<?xml version="1.0" encoding="UTF-8" standalone="no"?>
<svg
   xmlns:dc="http://purl.org/dc/elements/1.1/"
   xmlns:cc="http://creativecommons.org/ns#"
   xmlns:rdf="http://www.w3.org/1999/02/22-rdf-syntax-ns#"
   xmlns:svg="http://www.w3.org/2000/svg"
   xmlns="http://www.w3.org/2000/svg"
   xmlns:xlink="http://www.w3.org/1999/xlink"
   xmlns:sodipodi="http://sodipodi.sourceforge.net/DTD/sodipodi-0.dtd"
   xmlns:inkscape="http://www.inkscape.org/namespaces/inkscape"
   version="1.1"
   id="Layer_2"
   x="0px"
   y="0px"
   width="400.667px"
   height="400.666px"
   viewBox="0 0 400.667 400.666"
   enable-background="new 0 0 400.667 400.666"
   xml:space="preserve"
   inkscape:version="0.91 r13725"
   sodipodi:docname="altitude_hand3.svg"><metadata
     id="metadata176"><rdf:RDF><cc:Work
         rdf:about=""><dc:format>image/svg+xml</dc:format><dc:type
           rdf:resource="http://purl.org/dc/dcmitype/StillImage" /></cc:Work></rdf:RDF></metadata><defs
     id="defs174"><linearGradient
       id="SVGID_18_-1"
       gradientUnits="userSpaceOnUse"
       x1="148.1084"
       y1="142.3994"
       x2="163.70171"
       y2="169.4077"><stop
         offset="0"
         style="stop-color:#404040"
         id="stop11209" /><stop
         offset="1"
         style="stop-color:#000000"
         id="stop11211" /></linearGradient><radialGradient
       inkscape:collect="always"
       xlink:href="#linearGradient6221"
       id="radialGradient16437"
       cx="516.46423"
       cy="83.024521"
       fx="516.46423"
       fy="83.024521"
       r="39.708"
       gradientUnits="userSpaceOnUse"
       gradientTransform="matrix(1.3570252,1.469177,-1.3473353,1.2444845,214.58087,-1066.7978)" /><linearGradient
       y2="169.4077"
       x2="163.70171"
       y1="142.3994"
       x1="148.1084"
       gradientUnits="userSpaceOnUse"
       id="linearGradient6221"><stop
         id="stop6223"
         style="stop-color:#404040"
         offset="0" /><stop
         id="stop6225"
         style="stop-color:#202020;stop-opacity:1"
         offset="1" /></linearGradient><linearGradient
       inkscape:collect="always"
       xlink:href="#linearGradient16441"
       id="linearGradient16439"
       x1="498.63123"
       y1="112.14951"
       x2="562.17224"
       y2="61.774513"
       gradientUnits="userSpaceOnUse"
       gradientTransform="matrix(1.9999996,-1.9420642e-8,1.9420642e-8,1.9999996,-229.35425,-370.74676)" /><linearGradient
       id="linearGradient16441"
       inkscape:collect="always"><stop
         id="stop16443"
         offset="0"
         style="stop-color:#6d6d6d;stop-opacity:1" /><stop
         id="stop16445"
         offset="1"
         style="stop-color:#373737;stop-opacity:1" /></linearGradient><filter
       inkscape:collect="always"
       style="color-interpolation-filters:sRGB"
       id="filter9328"
       x="-0.13620837"
       width="1.2724167"
       y="-0.10723891"
       height="1.2144778"><feGaussianBlur
         inkscape:collect="always"
         stdDeviation="1.063465"
         id="feGaussianBlur9330" /></filter></defs><sodipodi:namedview
     pagecolor="#ffffff"
     bordercolor="#666666"
     borderopacity="1"
     objecttolerance="10"
     gridtolerance="10"
     guidetolerance="10"
     inkscape:pageopacity="0"
     inkscape:pageshadow="2"
     inkscape:window-width="1920"
     inkscape:window-height="1027"
     id="namedview172"
     showgrid="false"
     inkscape:zoom="1.1780386"
     inkscape:cx="190.29991"
     inkscape:cy="264.42707"
     inkscape:window-x="-8"
     inkscape:window-y="-8"
     inkscape:window-maximized="1"
     inkscape:current-layer="Layer_2" /><filter
     filterUnits="objectBoundingBox"
     id="AI_Shadow_1"><feGaussianBlur
       stdDeviation="5"
       result="blur"
       in="SourceAlpha"
       id="feGaussianBlur4" /><feOffset
       dy="0"
       dx="0"
       result="offsetBlurredAlpha"
       in="blur"
       id="feOffset6" /><feMerge
       id="feMerge8"><feMergeNode
         in="offsetBlurredAlpha"
         id="feMergeNode10" /><feMergeNode
         in="SourceGraphic"
         id="feMergeNode12" /></feMerge></filter><text
     transform="matrix(1 0 0 1 127.02 296.2324)"
     display="none"
     fill="#FFFFFF"
     stroke="#FFFFFF"
     stroke-miterlimit="10"
     font-family="sans-serif"
     font-size="25"
     id="text130">6</text>
<circle
     style="display:inline;fill:#1a1a1a;fill-opacity:0;stroke:#1a1a1a;stroke-width:2.22134805;stroke-opacity:0"
     id="circle577"
     cx="200.69186"
     cy="295.65405"
     r="2.221348" /><g
     transform="matrix(1.1106742,0,0,1.1106742,-729.66503,406.80676)"
     style="display:inline"
     id="g9336"
     inkscape:transform-center-y="-10.15776"><g
       id="g9264"><path
         style="opacity:1;fill:url(#radialGradient16437);fill-opacity:1;stroke:url(#linearGradient16439);stroke-width:1.19999981;stroke-miterlimit:4;stroke-dasharray:none;stroke-opacity:1"
         d="m 837.3236,-265.01237 c -43.52919,-2.3e-4 -78.81662,35.2872 -78.8164,78.81639 0.016,34.26333 22.16669,64.5912 54.80077,75.03124 l 19.17187,-42.66407 c 3.22786,0 6.45574,0 9.6836,0 l 19.14452,42.60937 c 32.62723,-10.42284 54.78787,-40.72497 54.83203,-74.97654 2.2e-4,-43.52917 -35.28722,-78.81661 -78.81639,-78.81639 z"
         id="path16413"
         inkscape:connector-curvature="0"
         sodipodi:nodetypes="cccccccc" /><g
         style="font-style:normal;font-weight:normal;font-size:7.45975399px;line-height:125%;font-family:Sans;text-align:center;letter-spacing:0px;word-spacing:0px;text-anchor:middle;display:inline;opacity:1;fill:#000000;fill-opacity:1;stroke:none;stroke-width:1px;stroke-linecap:butt;stroke-linejoin:miter;stroke-opacity:1"
         id="text4219-2"
         transform="matrix(1.9999996,-1.9420642e-8,1.9420642e-8,1.9999996,-41.104216,-370.74676)"><path
           inkscape:connector-curvature="0"
           d="m 420.57201,70.184189 2.05071,-5.339844 0.76127,0 2.18547,5.339844 -0.80498,0 -0.62286,-1.617252 -2.23283,0 -0.58643,1.617252 -0.75035,0 z m 1.54076,-2.19276 1.8103,0 -0.55729,-1.478838 q -0.25498,-0.673855 -0.37882,-1.107307 -0.10199,0.513587 -0.28775,1.019888 l -0.58644,1.566257 z"
           style="font-style:normal;font-variant:normal;font-weight:normal;font-stretch:normal;font-family:Arial;-inkscape-font-specification:Arial;letter-spacing:-0.32947242px;word-spacing:0px;fill:#ffffff"
           id="path16537" /><path
           inkscape:connector-curvature="0"
           d="m 425.78272,70.184189 0,-5.339844 0.70663,0 0,4.709699 2.62986,0 0,0.630145 -3.33649,0 z"
           style="font-style:normal;font-variant:normal;font-weight:normal;font-stretch:normal;font-family:Arial;-inkscape-font-specification:Arial;letter-spacing:-0.32947242px;word-spacing:0px;fill:#ffffff"
           id="path16539" /><path
           inkscape:connector-curvature="0"
           d="m 430.43977,70.184189 0,-4.709698 -1.75931,0 0,-0.630146 4.23254,0 0,0.630146 -1.76659,0 0,4.709698 -0.70664,0 z"
           style="font-style:normal;font-variant:normal;font-weight:normal;font-stretch:normal;font-family:Arial;-inkscape-font-specification:Arial;letter-spacing:-0.32947242px;word-spacing:0px;fill:#ffffff"
           id="path16541" /><path
           inkscape:connector-curvature="0"
           d="m 433.46136,70.184189 0,-5.339844 0.70664,0 0,5.339844 -0.70664,0 z"
           style="font-style:normal;font-variant:normal;font-weight:normal;font-stretch:normal;font-family:Arial;-inkscape-font-specification:Arial;letter-spacing:-0.32947242px;word-spacing:0px;fill:#ffffff"
           id="path16543" /><path
           inkscape:connector-curvature="0"
           d="m 435.05875,70.184189 0,-5.339844 1.06359,0 1.26394,3.780872 q 0.17484,0.528156 0.25497,0.790413 0.0911,-0.291396 0.28411,-0.855977 l 1.2785,-3.715308 0.95069,0 0,5.339844 -0.68114,0 0,-4.469296 -1.55169,4.469296 -0.63743,0 -1.5444,-4.545788 0,4.545788 -0.68114,0 z"
           style="font-style:normal;font-variant:normal;font-weight:normal;font-stretch:normal;font-family:Arial;-inkscape-font-specification:Arial;letter-spacing:-0.32947242px;word-spacing:0px;fill:#ffffff"
           id="path16545" /><path
           inkscape:connector-curvature="0"
           d="m 440.98702,70.184189 0,-5.339844 3.861,0 0,0.630146 -3.15436,0 0,1.635463 2.95403,0 0,0.626503 -2.95403,0 0,1.817587 3.27821,0 0,0.630145 -3.98485,0 z"
           style="font-style:normal;font-variant:normal;font-weight:normal;font-stretch:normal;font-family:Arial;-inkscape-font-specification:Arial;letter-spacing:-0.32947242px;word-spacing:0px;fill:#ffffff"
           id="path16547" /><path
           inkscape:connector-curvature="0"
           d="m 446.9845,70.184189 0,-4.709698 -1.75931,0 0,-0.630146 4.23253,0 0,0.630146 -1.76659,0 0,4.709698 -0.70663,0 z"
           style="font-style:normal;font-variant:normal;font-weight:normal;font-stretch:normal;font-family:Arial;-inkscape-font-specification:Arial;letter-spacing:-0.32947242px;word-spacing:0px;fill:#ffffff"
           id="path16549" /><path
           inkscape:connector-curvature="0"
           d="m 449.90045,70.184189 0,-5.339844 3.86101,0 0,0.630146 -3.15437,0 0,1.635463 2.95403,0 0,0.626503 -2.95403,0 0,1.817587 3.27821,0 0,0.630145 -3.98485,0 z"
           style="font-style:normal;font-variant:normal;font-weight:normal;font-stretch:normal;font-family:Arial;-inkscape-font-specification:Arial;letter-spacing:-0.32947242px;word-spacing:0px;fill:#ffffff"
           id="path16551" /><path
           inkscape:connector-curvature="0"
           d="m 454.55022,70.184189 0,-5.339844 2.3676,0 q 0.71392,0 1.08545,0.145699 0.37153,0.142056 0.59372,0.506301 0.22219,0.364246 0.22219,0.804984 0,0.568223 -0.36789,0.957966 -0.36789,0.389743 -1.13645,0.495374 0.28047,0.134771 0.42617,0.2659 0.30961,0.284112 0.58644,0.710279 l 0.92882,1.453341 -0.88876,0 -0.70663,-1.11095 q -0.30961,-0.480804 -0.50995,-0.735776 -0.20033,-0.254972 -0.3606,-0.356961 -0.15663,-0.101989 -0.32054,-0.142056 -0.1202,-0.0255 -0.39338,-0.0255 l -0.81955,0 0,2.37124 -0.70664,0 z m 0.70664,-2.983173 1.5189,0 q 0.48445,0 0.75763,-0.09835 0.27319,-0.101988 0.41524,-0.320536 0.14206,-0.22219 0.14206,-0.480804 0,-0.378816 -0.27683,-0.622861 -0.27318,-0.244044 -0.8669,-0.244044 l -1.6901,0 0,1.766592 z"
           style="font-style:normal;font-variant:normal;font-weight:normal;font-stretch:normal;font-family:Arial;-inkscape-font-specification:Arial;letter-spacing:-0.32947242px;word-spacing:0px;fill:#ffffff"
           id="path16553" /></g><g
         style="font-style:normal;font-weight:normal;font-size:5.99869108px;line-height:125%;font-family:Sans;text-align:center;letter-spacing:0px;word-spacing:0px;text-anchor:middle;display:inline;opacity:1;fill:#000000;fill-opacity:1;stroke:none;stroke-width:1px;stroke-linecap:butt;stroke-linejoin:miter;stroke-opacity:1"
         id="text4225-8"
         transform="matrix(1.9999996,-1.9420642e-8,1.9420642e-8,1.9999996,-41.104216,-370.74676)"><path
           inkscape:connector-curvature="0"
           d="m 406.47492,90.637771 0.47353,0.119603 q -0.14889,0.583368 -0.53699,0.890918 -0.38566,0.30511 -0.94462,0.30511 -0.57849,0 -0.94218,-0.234324 -0.36125,-0.236765 -0.55164,-0.683445 -0.18794,-0.44668 -0.18794,-0.959263 0,-0.55896 0.21235,-0.973909 0.2148,-0.417389 0.60778,-0.632186 0.39542,-0.217238 0.86895,-0.217238 0.53699,0 0.90312,0.273378 0.36614,0.273378 0.51015,0.768875 l -0.46621,0.10984 q -0.12448,-0.39054 -0.36125,-0.568724 -0.23676,-0.178184 -0.59557,-0.178184 -0.41251,0 -0.69077,0.197711 -0.27582,0.197711 -0.3881,0.532111 -0.11228,0.331958 -0.11228,0.685885 0,0.456443 0.13181,0.798166 0.13425,0.339281 0.41495,0.507701 0.2807,0.168421 0.60777,0.168421 0.39787,0 0.67369,-0.229443 0.27581,-0.229442 0.37345,-0.681003 z"
           style="font-style:normal;font-variant:normal;font-weight:normal;font-stretch:normal;font-size:4.998909px;line-height:82.99999833%;font-family:Arial;-inkscape-font-specification:Arial;text-align:center;letter-spacing:-0.04499019px;word-spacing:0px;text-anchor:middle;fill:#ffffff"
           id="path16556" /><path
           inkscape:connector-curvature="0"
           d="m 407.09629,91.89238 1.37421,-3.578321 0.51014,0 1.46453,3.578321 -0.53944,0 -0.41739,-1.083748 -1.49625,0 -0.39298,1.083748 -0.50282,0 z m 1.03249,-1.469406 1.21311,0 -0.37345,-0.990995 q -0.17086,-0.451561 -0.25385,-0.742025 -0.0684,0.344163 -0.19283,0.683444 l -0.39298,1.049576 z"
           style="font-style:normal;font-variant:normal;font-weight:normal;font-stretch:normal;font-size:4.998909px;line-height:82.99999833%;font-family:Arial;-inkscape-font-specification:Arial;text-align:center;letter-spacing:-0.04499019px;word-spacing:0px;text-anchor:middle;fill:#ffffff"
           id="path16558" /><path
           inkscape:connector-curvature="0"
           d="m 410.76387,91.89238 0,-3.578321 0.47352,0 0,3.15605 1.76232,0 0,0.422271 -2.23584,0 z"
           style="font-style:normal;font-variant:normal;font-weight:normal;font-stretch:normal;font-size:4.998909px;line-height:82.99999833%;font-family:Arial;-inkscape-font-specification:Arial;text-align:center;letter-spacing:-0.04499019px;word-spacing:0px;text-anchor:middle;fill:#ffffff"
           id="path16560" /><path
           inkscape:connector-curvature="0"
           d="m 413.60155,91.89238 0,-3.578321 0.47353,0 0,3.578321 -0.47353,0 z"
           style="font-style:normal;font-variant:normal;font-weight:normal;font-stretch:normal;font-size:4.998909px;line-height:82.99999833%;font-family:Arial;-inkscape-font-specification:Arial;text-align:center;letter-spacing:-0.04499019px;word-spacing:0px;text-anchor:middle;fill:#ffffff"
           id="path16562" /><path
           inkscape:connector-curvature="0"
           d="m 414.8429,91.89238 0,-3.578321 1.34248,0 q 0.41006,0 0.65659,0.109839 0.24897,0.107399 0.3881,0.3344 0.14157,0.224561 0.14157,0.471089 0,0.229442 -0.12448,0.432034 -0.12449,0.202593 -0.3759,0.327077 0.32464,0.09519 0.49794,0.324637 0.17574,0.229442 0.17574,0.541874 0,0.251409 -0.10739,0.468647 -0.10496,0.214797 -0.26118,0.331959 -0.15621,0.117162 -0.39298,0.178184 -0.23432,0.05858 -0.57604,0.05858 l -1.36445,0 z m 0.47353,-2.074743 0.77375,0 q 0.31488,0 0.45156,-0.0415 0.18063,-0.0537 0.27094,-0.178183 0.0928,-0.124485 0.0928,-0.312432 0,-0.178184 -0.0854,-0.312432 -0.0854,-0.136689 -0.24408,-0.185506 -0.15866,-0.05126 -0.54432,-0.05126 l -0.71517,0 0,1.081307 z m 0,1.652472 0.89092,0 q 0.22944,0 0.32219,-0.01709 0.16354,-0.02929 0.27338,-0.09763 0.10984,-0.06835 0.18062,-0.197711 0.0708,-0.131807 0.0708,-0.302668 0,-0.200152 -0.10252,-0.346605 -0.10252,-0.148893 -0.28558,-0.207474 -0.18063,-0.06102 -0.52235,-0.06102 l -0.82745,0 0,1.230201 z"
           style="font-style:normal;font-variant:normal;font-weight:normal;font-stretch:normal;font-size:4.998909px;line-height:82.99999833%;font-family:Arial;-inkscape-font-specification:Arial;text-align:center;letter-spacing:-0.04499019px;word-spacing:0px;text-anchor:middle;fill:#ffffff"
           id="path16564" /><path
           inkscape:connector-curvature="0"
           d="m 418.16387,91.89238 0,-3.578321 1.58657,0 q 0.47841,0 0.72738,0.09763 0.24897,0.09519 0.39786,0.339282 0.1489,0.244087 0.1489,0.539433 0,0.380776 -0.24653,0.641949 -0.24653,0.261174 -0.76155,0.331959 0.18794,0.09031 0.28558,0.178184 0.20747,0.190388 0.39298,0.47597 l 0.62242,0.973909 -0.59557,0 -0.47353,-0.744467 q -0.20748,-0.322195 -0.34172,-0.493056 -0.13425,-0.170861 -0.24165,-0.239206 -0.10496,-0.06834 -0.2148,-0.09519 -0.0806,-0.01709 -0.26361,-0.01709 l -0.5492,0 0,1.589009 -0.47353,0 z m 0.47353,-1.999076 1.01785,0 q 0.32463,0 0.5077,-0.0659 0.18306,-0.06834 0.27826,-0.214797 0.0952,-0.148893 0.0952,-0.322195 0,-0.253851 -0.18551,-0.41739 -0.18306,-0.163538 -0.58092,-0.163538 l -1.13257,0 0,1.183823 z"
           style="font-style:normal;font-variant:normal;font-weight:normal;font-stretch:normal;font-size:4.998909px;line-height:82.99999833%;font-family:Arial;-inkscape-font-specification:Arial;text-align:center;letter-spacing:-0.04499019px;word-spacing:0px;text-anchor:middle;fill:#ffffff"
           id="path16566" /><path
           inkscape:connector-curvature="0"
           d="m 421.33107,91.89238 1.37421,-3.578321 0.51015,0 1.46452,3.578321 -0.53943,0 -0.41739,-1.083748 -1.49626,0 -0.39298,1.083748 -0.50282,0 z m 1.03249,-1.469406 1.21311,0 -0.37345,-0.990995 q -0.17086,-0.451561 -0.25385,-0.742025 -0.0683,0.344163 -0.19283,0.683444 l -0.39298,1.049576 z"
           style="font-style:normal;font-variant:normal;font-weight:normal;font-stretch:normal;font-size:4.998909px;line-height:82.99999833%;font-family:Arial;-inkscape-font-specification:Arial;text-align:center;letter-spacing:-0.04499019px;word-spacing:0px;text-anchor:middle;fill:#ffffff"
           id="path16568" /><path
           inkscape:connector-curvature="0"
           d="m 425.55761,91.89238 0,-3.15605 -1.17894,0 0,-0.422271 2.83629,0 0,0.422271 -1.18382,0 0,3.15605 -0.47353,0 z"
           style="font-style:normal;font-variant:normal;font-weight:normal;font-stretch:normal;font-size:4.998909px;line-height:82.99999833%;font-family:Arial;-inkscape-font-specification:Arial;text-align:center;letter-spacing:-0.04499019px;word-spacing:0px;text-anchor:middle;fill:#ffffff"
           id="path16570" /><path
           inkscape:connector-curvature="0"
           d="m 427.68744,91.89238 0,-3.578321 2.58732,0 0,0.422271 -2.11379,0 0,1.095952 1.97955,0 0,0.419831 -1.97955,0 0,1.217996 2.19678,0 0,0.422271 -2.67031,0 z"
           style="font-style:normal;font-variant:normal;font-weight:normal;font-stretch:normal;font-size:4.998909px;line-height:82.99999833%;font-family:Arial;-inkscape-font-specification:Arial;text-align:center;letter-spacing:-0.04499019px;word-spacing:0px;text-anchor:middle;fill:#ffffff"
           id="path16572" /><path
           inkscape:connector-curvature="0"
           d="m 430.9718,91.89238 0,-3.578321 1.23264,0 q 0.41739,0 0.63707,0.05126 0.30755,0.07079 0.52479,0.256291 0.28314,0.239206 0.42227,0.612659 0.14157,0.371013 0.14157,0.849424 0,0.407626 -0.0952,0.722499 -0.0952,0.314873 -0.24408,0.522347 -0.1489,0.205033 -0.32708,0.324636 -0.17574,0.117162 -0.42715,0.178184 -0.24897,0.06102 -0.57361,0.06102 l -1.29122,0 z m 0.47353,-0.422271 0.76399,0 q 0.35393,0 0.55408,-0.0659 0.20259,-0.0659 0.3222,-0.185506 0.16842,-0.168421 0.26117,-0.451562 0.0952,-0.285582 0.0952,-0.690767 0,-0.561401 -0.1855,-0.861629 -0.18307,-0.302668 -0.44668,-0.405185 -0.19039,-0.07323 -0.61266,-0.07323 l -0.75179,0 0,2.733779 z"
           style="font-style:normal;font-variant:normal;font-weight:normal;font-stretch:normal;font-size:4.998909px;line-height:82.99999833%;font-family:Arial;-inkscape-font-specification:Arial;text-align:center;letter-spacing:-0.04499019px;word-spacing:0px;text-anchor:middle;fill:#ffffff"
           id="path16574" /><path
           inkscape:connector-curvature="0"
           d="m 404.87232,96.041489 0,-3.15605 -1.17894,0 0,-0.422271 2.83629,0 0,0.422271 -1.18382,0 0,3.15605 -0.47353,0 z"
           style="font-style:normal;font-variant:normal;font-weight:normal;font-stretch:normal;font-size:4.998909px;line-height:82.99999833%;font-family:Arial;-inkscape-font-specification:Arial;text-align:center;letter-spacing:-0.04499019px;word-spacing:0px;text-anchor:middle;fill:#ffffff"
           id="path16576" /><path
           inkscape:connector-curvature="0"
           d="m 406.7605,94.298705 q 0,-0.890919 0.47841,-1.393739 0.47841,-0.505261 1.23508,-0.505261 0.4955,0 0.89336,0.236765 0.39787,0.236765 0.60534,0.661477 0.20992,0.422271 0.20992,0.959263 0,0.544315 -0.21968,0.973909 -0.21968,0.429593 -0.62243,0.651713 -0.40274,0.219678 -0.86895,0.219678 -0.50526,0 -0.90312,-0.244087 -0.39786,-0.244087 -0.6029,-0.666358 -0.20503,-0.422271 -0.20503,-0.89336 z m 0.48818,0.0073 q 0,0.646831 0.3466,1.020285 0.34904,0.371012 0.87383,0.371012 0.53455,0 0.87872,-0.375894 0.3466,-0.375895 0.3466,-1.066662 0,-0.436916 -0.14889,-0.761552 -0.14645,-0.327077 -0.43204,-0.505261 -0.28314,-0.180625 -0.63706,-0.180625 -0.50282,0 -0.86651,0.346604 -0.36125,0.344163 -0.36125,1.152093 z"
           style="font-style:normal;font-variant:normal;font-weight:normal;font-stretch:normal;font-size:4.998909px;line-height:82.99999833%;font-family:Arial;-inkscape-font-specification:Arial;text-align:center;letter-spacing:-0.04499019px;word-spacing:0px;text-anchor:middle;fill:#ffffff"
           id="path16578" /><path
           inkscape:connector-curvature="0"
           d="m 414.2177,95.619218 0,0.422271 -2.3652,0 q -0.005,-0.158657 0.0512,-0.30511 0.0903,-0.241646 0.28803,-0.47597 0.20015,-0.234324 0.57604,-0.541874 0.58337,-0.478411 0.78841,-0.756671 0.20503,-0.2807 0.20503,-0.529669 0,-0.261174 -0.18795,-0.439357 -0.18551,-0.180625 -0.48573,-0.180625 -0.31732,0 -0.5077,0.190388 -0.19039,0.190388 -0.19283,0.527229 l -0.45156,-0.04638 q 0.0464,-0.505261 0.34904,-0.768875 0.30267,-0.266055 0.81281,-0.266055 0.51503,0 0.81525,0.285582 0.30023,0.285582 0.30023,0.707853 0,0.214797 -0.0879,0.422271 -0.0879,0.207475 -0.29291,0.436917 -0.20259,0.229442 -0.67612,0.629745 -0.39542,0.331959 -0.5077,0.451562 -0.11228,0.117162 -0.18551,0.236765 l 1.75499,0 z"
           style="font-style:normal;font-variant:normal;font-weight:normal;font-stretch:normal;font-size:4.998909px;line-height:82.99999833%;font-family:Arial;-inkscape-font-specification:Arial;text-align:center;letter-spacing:-0.04499019px;word-spacing:0px;text-anchor:middle;fill:#ffffff"
           id="path16580" /><path
           inkscape:connector-curvature="0"
           d="m 414.64624,94.276737 q 0,-0.634627 0.12937,-1.020285 0.1318,-0.388099 0.3881,-0.598014 0.25873,-0.209915 0.64927,-0.209915 0.28802,0 0.50526,0.117162 0.21724,0.114721 0.35881,0.334399 0.14157,0.217238 0.22212,0.532111 0.0805,0.312432 0.0805,0.844542 0,0.629745 -0.12937,1.017844 -0.12937,0.385658 -0.3881,0.598014 -0.25629,0.209915 -0.64927,0.209915 -0.51747,0 -0.81281,-0.371012 -0.35393,-0.44668 -0.35393,-1.454761 z m 0.45156,0 q 0,0.881155 0.20504,1.17406 0.20747,0.290464 0.51014,0.290464 0.30267,0 0.5077,-0.292905 0.20747,-0.292904 0.20747,-1.171619 0,-0.883596 -0.20747,-1.17406 -0.20503,-0.290464 -0.51258,-0.290464 -0.30267,0 -0.4833,0.256292 -0.227,0.327077 -0.227,1.208232 z"
           style="font-style:normal;font-variant:normal;font-weight:normal;font-stretch:normal;font-size:4.998909px;line-height:82.99999833%;font-family:Arial;-inkscape-font-specification:Arial;text-align:center;letter-spacing:-0.04499019px;word-spacing:0px;text-anchor:middle;fill:#ffffff"
           id="path16582" /><path
           inkscape:connector-curvature="0"
           d="m 417.62061,96.041489 0,-0.500379 0.50038,0 0,0.500379 q 0,0.275818 -0.0976,0.444239 -0.0976,0.170861 -0.31,0.263614 l -0.12204,-0.187947 q 0.13913,-0.06102 0.20503,-0.180625 0.0659,-0.117162 0.0732,-0.339281 l -0.24897,0 z"
           style="font-style:normal;font-variant:normal;font-weight:normal;font-stretch:normal;font-size:4.998909px;line-height:82.99999833%;font-family:Arial;-inkscape-font-specification:Arial;text-align:center;letter-spacing:-0.04499019px;word-spacing:0px;text-anchor:middle;fill:#ffffff"
           id="path16584" /><path
           inkscape:connector-curvature="0"
           d="m 418.72527,94.276737 q 0,-0.634627 0.12937,-1.020285 0.13181,-0.388099 0.3881,-0.598014 0.25873,-0.209915 0.64927,-0.209915 0.28802,0 0.50526,0.117162 0.21724,0.114721 0.35881,0.334399 0.14157,0.217238 0.22212,0.532111 0.0805,0.312432 0.0805,0.844542 0,0.629745 -0.12937,1.017844 -0.12936,0.385658 -0.3881,0.598014 -0.25629,0.209915 -0.64927,0.209915 -0.51746,0 -0.81281,-0.371012 -0.35393,-0.44668 -0.35393,-1.454761 z m 0.45156,0 q 0,0.881155 0.20504,1.17406 0.20747,0.290464 0.51014,0.290464 0.30267,0 0.5077,-0.292905 0.20748,-0.292904 0.20748,-1.171619 0,-0.883596 -0.20748,-1.17406 -0.20503,-0.290464 -0.51258,-0.290464 -0.30267,0 -0.48329,0.256292 -0.22701,0.327077 -0.22701,1.208232 z"
           style="font-style:normal;font-variant:normal;font-weight:normal;font-stretch:normal;font-size:4.998909px;line-height:82.99999833%;font-family:Arial;-inkscape-font-specification:Arial;text-align:center;letter-spacing:-0.04499019px;word-spacing:0px;text-anchor:middle;fill:#ffffff"
           id="path16586" /><path
           inkscape:connector-curvature="0"
           d="m 421.46288,94.276737 q 0,-0.634627 0.12936,-1.020285 0.13181,-0.388099 0.3881,-0.598014 0.25874,-0.209915 0.64928,-0.209915 0.28802,0 0.50526,0.117162 0.21723,0.114721 0.3588,0.334399 0.14158,0.217238 0.22212,0.532111 0.0806,0.312432 0.0806,0.844542 0,0.629745 -0.12936,1.017844 -0.12937,0.385658 -0.3881,0.598014 -0.25629,0.209915 -0.64927,0.209915 -0.51747,0 -0.81282,-0.371012 -0.35392,-0.44668 -0.35392,-1.454761 z m 0.45156,0 q 0,0.881155 0.20503,1.17406 0.20748,0.290464 0.51015,0.290464 0.30266,0 0.5077,-0.292905 0.20747,-0.292904 0.20747,-1.171619 0,-0.883596 -0.20747,-1.17406 -0.20504,-0.290464 -0.51259,-0.290464 -0.30266,0 -0.48329,0.256292 -0.227,0.327077 -0.227,1.208232 z"
           style="font-style:normal;font-variant:normal;font-weight:normal;font-stretch:normal;font-size:4.998909px;line-height:82.99999833%;font-family:Arial;-inkscape-font-specification:Arial;text-align:center;letter-spacing:-0.04499019px;word-spacing:0px;text-anchor:middle;fill:#ffffff"
           id="path16588" /><path
           inkscape:connector-curvature="0"
           d="m 424.20048,94.276737 q 0,-0.634627 0.12937,-1.020285 0.13181,-0.388099 0.3881,-0.598014 0.25873,-0.209915 0.64927,-0.209915 0.28802,0 0.50526,0.117162 0.21724,0.114721 0.35881,0.334399 0.14157,0.217238 0.22212,0.532111 0.0805,0.312432 0.0805,0.844542 0,0.629745 -0.12937,1.017844 -0.12936,0.385658 -0.3881,0.598014 -0.25629,0.209915 -0.64927,0.209915 -0.51746,0 -0.81281,-0.371012 -0.35393,-0.44668 -0.35393,-1.454761 z m 0.45157,0 q 0,0.881155 0.20503,1.17406 0.20747,0.290464 0.51014,0.290464 0.30267,0 0.5077,-0.292905 0.20748,-0.292904 0.20748,-1.171619 0,-0.883596 -0.20748,-1.17406 -0.20503,-0.290464 -0.51258,-0.290464 -0.30267,0 -0.48329,0.256292 -0.227,0.327077 -0.227,1.208232 z"
           style="font-style:normal;font-variant:normal;font-weight:normal;font-stretch:normal;font-size:4.998909px;line-height:82.99999833%;font-family:Arial;-inkscape-font-specification:Arial;text-align:center;letter-spacing:-0.04499019px;word-spacing:0px;text-anchor:middle;fill:#ffffff"
           id="path16590" /><path
           inkscape:connector-curvature="0"
           d="m 428.48211,96.041489 0,-3.578321 2.41402,0 0,0.422271 -1.94049,0 0,1.108157 1.67932,0 0,0.422271 -1.67932,0 0,1.625622 -0.47353,0 z"
           style="font-style:normal;font-variant:normal;font-weight:normal;font-stretch:normal;font-size:4.998909px;line-height:82.99999833%;font-family:Arial;-inkscape-font-specification:Arial;text-align:center;letter-spacing:-0.04499019px;word-spacing:0px;text-anchor:middle;fill:#ffffff"
           id="path16592" /><path
           inkscape:connector-curvature="0"
           d="m 432.37913,96.041489 0,-3.15605 -1.17894,0 0,-0.422271 2.83629,0 0,0.422271 -1.18382,0 0,3.15605 -0.47353,0 z"
           style="font-style:normal;font-variant:normal;font-weight:normal;font-stretch:normal;font-size:4.998909px;line-height:82.99999833%;font-family:Arial;-inkscape-font-specification:Arial;text-align:center;letter-spacing:-0.04499019px;word-spacing:0px;text-anchor:middle;fill:#ffffff"
           id="path16594" /></g></g><g
       id="g9332"><path
         style="display:inline;opacity:1;fill:#000000;fill-opacity:1;stroke:none;stroke-width:1;stroke-miterlimit:4;stroke-dasharray:none;stroke-dashoffset:0;stroke-opacity:1;filter:url(#filter9328)"
         d="m 837.32422,-281.45413 9.36916,16.80884 -9.36916,6.99144 -9.36916,-6.99144 z"
         id="rect8128-8-5"
         inkscape:connector-curvature="0"
         sodipodi:nodetypes="ccccc" /><path
         style="opacity:1;fill:#ffffff;fill-opacity:1;stroke:#4b4b4b;stroke-width:1;stroke-miterlimit:4;stroke-dasharray:none;stroke-dashoffset:0;stroke-opacity:1"
         d="m 837.32401,-281.45439 9.36916,16.80884 -9.36916,6.99144 -9.36916,-6.99144 z"
         id="rect8128-8"
         inkscape:connector-curvature="0"
         sodipodi:nodetypes="ccccc" /></g></g></svg>