<?xml version="1.0" encoding="UTF-8" standalone="no"?>
<svg
   xmlns:osb="http://www.openswatchbook.org/uri/2009/osb"
   xmlns:dc="http://purl.org/dc/elements/1.1/"
   xmlns:cc="http://creativecommons.org/ns#"
   xmlns:rdf="http://www.w3.org/1999/02/22-rdf-syntax-ns#"
   xmlns:svg="http://www.w3.org/2000/svg"
   xmlns="http://www.w3.org/2000/svg"
   xml:space="preserve"
   enable-background="new 0 0 400.667 400.666"
   viewBox="0 0 400.667 400.666"
   height="400.66599"
   width="400.66699"
   y="0px"
   x="0px"
   id="Layer_2"
   version="1.1"><metadata
     id="metadata111"><rdf:RDF><cc:Work
         rdf:about=""><dc:format>image/svg+xml</dc:format><dc:type
           rdf:resource="http://purl.org/dc/dcmitype/StillImage" /><dc:title></dc:title></cc:Work></rdf:RDF></metadata><defs
     id="defs109"><linearGradient
       y2="169.4077"
       x2="163.70171"
       y1="142.3994"
       x1="148.1084"
       gradientUnits="userSpaceOnUse"
       id="SVGID_18_-1"><stop
         id="stop11209"
         style="stop-color:#404040"
         offset="0" /><stop
         id="stop11211"
         style="stop-color:#000000"
         offset="1" /></linearGradient><linearGradient
       id="linearGradient6221"
       gradientUnits="userSpaceOnUse"
       x1="148.1084"
       y1="142.3994"
       x2="163.70171"
       y2="169.4077"><stop
         offset="0"
         style="stop-color:#404040"
         id="stop6223" /><stop
         offset="1"
         style="stop-color:#202020;stop-opacity:1"
         id="stop6225" /></linearGradient><pattern
       id="EMFhbasepattern"
       patternUnits="userSpaceOnUse"
       width="6"
       height="6"
       x="0"
       y="0" /><pattern
       id="EMFhbasepattern-7"
       patternUnits="userSpaceOnUse"
       width="6"
       height="6"
       x="0"
       y="0" /><linearGradient
       osb:paint="gradient"
       id="linearGradient5786"><stop
         id="stop5788"
         offset="0"
         style="stop-color:#363636;stop-opacity:1;" /><stop
         id="stop5790"
         offset="1"
         style="stop-color:#000000;stop-opacity:1;" /></linearGradient><linearGradient
       y2="169.4077"
       x2="163.70171"
       y1="142.3994"
       x1="148.1084"
       gradientUnits="userSpaceOnUse"
       id="linearGradient8979"><stop
         id="stop8981"
         style="stop-color:#2d2d2d;stop-opacity:1"
         offset="0" /><stop
         id="stop8983"
         style="stop-color:#000000"
         offset="1" /></linearGradient><filter
       height="1.0593014"
       y="-0.029650692"
       width="1.2518688"
       x="-0.12593441"
       id="filter6375"
       style="color-interpolation-filters:sRGB"><feGaussianBlur
         id="feGaussianBlur6377"
         stdDeviation="2.3857802" /></filter></defs><g
     id="g6367"
     style="display:inline"
     transform="matrix(1.1106764,0,0,1.1106764,-729.4964,406.75704)"><path
       id="path6361"
       d="m 824.11249,-309.61785 11.8393,22.43157 0,33.34398 -2.3776,3.10114 0,53.97275 c -4.50184,1.58858 -7.51455,5.84103 -7.5203,10.61493 0.005,4.80193 3.05255,9.07317 7.5914,10.64079 -6.3513,18.36766 -12.7019,36.73554 -19.0525,55.10336 7.3077,2.55511 14.9903,3.87394 22.7319,3.90227 7.7423,-0.0258 15.426,-1.34253 22.7352,-3.8958 l -19.0558,-55.10983 c 4.53885,-1.56762 7.58606,-5.83886 7.5914,-10.64079 -0.006,-4.7739 -3.01846,-9.02635 -7.5203,-10.61493 l 0,-53.97275 -2.3776,-3.10114 0,-33.34398 11.83961,-22.4317 z"
       style="display:inline;opacity:1;fill:#000000;fill-opacity:1;stroke:none;stroke-width:0.66157639;stroke-linecap:butt;stroke-linejoin:round;stroke-miterlimit:4;stroke-dasharray:none;stroke-opacity:1;filter:url(#filter6375)" /><path
       style="display:inline;opacity:1;fill:#ffffff;fill-opacity:1;stroke:#555555;stroke-width:0.75;stroke-linecap:butt;stroke-linejoin:round;stroke-miterlimit:4;stroke-dasharray:none;stroke-opacity:1"
       d="m 824.11249,-309.61785 11.8393,22.43157 0,33.34398 -2.3776,3.10114 0,53.97275 c -4.50184,1.58858 -7.51455,5.84103 -7.5203,10.61493 0.005,4.80193 3.05255,9.07317 7.5914,10.64079 -6.3513,18.36766 -12.7019,36.73554 -19.0525,55.10336 7.3077,2.55511 14.98998,3.87394 22.73158,3.90227 7.7423,-0.0258 15.42632,-1.34253 22.73552,-3.8958 l -19.0558,-55.10983 c 4.53885,-1.56762 7.58606,-5.83886 7.5914,-10.64079 -0.006,-4.7739 -3.01846,-9.02635 -7.5203,-10.61493 l 0,-53.97275 -2.3776,-3.10114 0,-33.34398 11.83961,-22.4317 z"
       id="path11883" /></g></svg>