<?xml version="1.0" encoding="UTF-8" standalone="no"?>
<svg
   xmlns:osb="http://www.openswatchbook.org/uri/2009/osb"
   xmlns:dc="http://purl.org/dc/elements/1.1/"
   xmlns:cc="http://creativecommons.org/ns#"
   xmlns:rdf="http://www.w3.org/1999/02/22-rdf-syntax-ns#"
   xmlns:svg="http://www.w3.org/2000/svg"
   xmlns="http://www.w3.org/2000/svg"
   xmlns:xlink="http://www.w3.org/1999/xlink"
   xml:space="preserve"
   enable-background="new 0 0 400.667 400.666"
   viewBox="0 0 400.667 400.666"
   height="400.66599"
   width="400.66699"
   y="0px"
   x="0px"
   id="Layer_2"
   version="1.1"><metadata
     id="metadata111"><rdf:RDF><cc:Work
         rdf:about=""><dc:format>image/svg+xml</dc:format><dc:type
           rdf:resource="http://purl.org/dc/dcmitype/StillImage" /><dc:title></dc:title></cc:Work></rdf:RDF></metadata><defs
     id="defs109"><linearGradient
       y2="169.4077"
       x2="163.70171"
       y1="142.3994"
       x1="148.1084"
       gradientUnits="userSpaceOnUse"
       id="SVGID_18_-1"><stop
         id="stop11209"
         style="stop-color:#404040"
         offset="0" /><stop
         id="stop11211"
         style="stop-color:#000000"
         offset="1" /></linearGradient><linearGradient
       id="linearGradient6221"
       gradientUnits="userSpaceOnUse"
       x1="148.1084"
       y1="142.3994"
       x2="163.70171"
       y2="169.4077"><stop
         offset="0"
         style="stop-color:#404040"
         id="stop6223" /><stop
         offset="1"
         style="stop-color:#202020;stop-opacity:1"
         id="stop6225" /></linearGradient><pattern
       id="EMFhbasepattern"
       patternUnits="userSpaceOnUse"
       width="6"
       height="6"
       x="0"
       y="0" /><pattern
       id="EMFhbasepattern-7"
       patternUnits="userSpaceOnUse"
       width="6"
       height="6"
       x="0"
       y="0" /><linearGradient
       osb:paint="gradient"
       id="linearGradient5786"><stop
         id="stop5788"
         offset="0"
         style="stop-color:#363636;stop-opacity:1;" /><stop
         id="stop5790"
         offset="1"
         style="stop-color:#000000;stop-opacity:1;" /></linearGradient><linearGradient
       id="linearGradient8125"><stop
         style="stop-color:#141414;stop-opacity:1"
         offset="0"
         id="stop8127" /><stop
         style="stop-color:#232323;stop-opacity:1"
         offset="1"
         id="stop8129" /></linearGradient><linearGradient
       y2="169.4077"
       x2="163.70171"
       y1="142.3994"
       x1="148.1084"
       gradientUnits="userSpaceOnUse"
       id="linearGradient8979"><stop
         id="stop8981"
         style="stop-color:#2d2d2d;stop-opacity:1"
         offset="0" /><stop
         id="stop8983"
         style="stop-color:#000000"
         offset="1" /></linearGradient><filter
       height="1.0649095"
       y="-0.032454677"
       width="1.793294"
       x="-0.39664695"
       id="filter8076"
       style="color-interpolation-filters:sRGB"><feGaussianBlur
         id="feGaussianBlur8078"
         stdDeviation="2.3237793" /></filter><linearGradient
       gradientTransform="translate(47.997196,-461.99998)"
       gradientUnits="userSpaceOnUse"
       y2="313.49023"
       x2="789.32703"
       y1="275.84702"
       x1="789.32703"
       id="linearGradient6517"
       xlink:href="#linearGradient9408" /><linearGradient
       id="linearGradient9408"><stop
         id="stop9410"
         offset="0"
         style="stop-color:#141414;stop-opacity:1" /><stop
         id="stop9412"
         offset="1"
         style="stop-color:#1e1e1e;stop-opacity:1" /></linearGradient><radialGradient
       gradientTransform="matrix(0.70612336,-9.1108243e-6,8.9651279e-6,0.69483134,246.07172,-56.800432)"
       gradientUnits="userSpaceOnUse"
       r="5.5297403"
       fy="-186.15297"
       fx="837.32422"
       cy="-186.15297"
       cx="837.32422"
       id="radialGradient7967"
       xlink:href="#linearGradient9414" /><linearGradient
       id="linearGradient9414"><stop
         id="stop9416"
         offset="0"
         style="stop-color:#191919;stop-opacity:1" /><stop
         id="stop9418"
         offset="1"
         style="stop-color:#0f0f0f;stop-opacity:1" /></linearGradient><linearGradient
       gradientUnits="userSpaceOnUse"
       y2="-144.56387"
       x2="840.60443"
       y1="-133.93887"
       x1="833.04401"
       id="linearGradient9406"
       xlink:href="#linearGradient8125" /></defs><g
     id="g8068"
     style="display:inline"
     transform="matrix(1.1106764,0,0,1.1106764,-729.49571,406.75544)"><path
       style="opacity:1;fill:#000000;fill-opacity:1;stroke:none;stroke-width:0.40189981;stroke-linecap:butt;stroke-linejoin:round;stroke-miterlimit:4;stroke-dasharray:none;stroke-opacity:1;filter:url(#filter8076)"
       d="m 789.32617,158.625 -3.58984,12.18359 0,93.01953 0,0.98438 0,7.10352 a 5.32974,5.32974 0 0 0 -1.73828,3.93164 5.32974,5.32974 0 0 0 1.73828,3.92968 l 0,37.62305 a 7.0302324,7.0302324 0 0 0 -3.43945,6.03516 7.0302324,7.0302324 0 0 0 7.02929,7.03125 7.0302324,7.0302324 0 0 0 7.03125,-7.03125 7.0302324,7.0302324 0 0 0 -3.43945,-6.03321 l 0,-37.625 a 5.32974,5.32974 0 0 0 1.73828,-3.92968 5.32974,5.32974 0 0 0 -1.73828,-3.92969 l 0,-7.10547 0,-0.98438 0,-93.01757 -3.5918,-12.18555 z"
       id="path8039"
       transform="translate(47.997196,-461.99998)" /><g
       id="g8062"><path
         id="rect6495"
         d="m 837.32347,-303.37403 -3.58899,12.18255 0,94.00305 7.17974,0 0,-94.00108 z"
         style="opacity:1;fill:#ffffff;fill-opacity:1;stroke:#2d2d2d;stroke-width:0.75;stroke-linecap:butt;stroke-linejoin:round;stroke-miterlimit:4;stroke-dasharray:none;stroke-opacity:1" /><path
         id="rect13524"
         d="m 833.73353,-198.17186 0,57.32422 3.58984,0 3.5918,0 0,-57.32422 -7.18164,0 z"
         style="opacity:1;fill:url(#linearGradient6517);fill-opacity:1;stroke:#2d2d2d;stroke-width:0.75;stroke-linecap:butt;stroke-linejoin:round;stroke-miterlimit:4;stroke-dasharray:none;stroke-opacity:1" /><path
         id="path13514"
         d="m 842.65382,-186.15297 c 0,2.94353 -2.38607,5.32974 -5.3296,5.32974 -2.94353,0 -5.32974,-2.38621 -5.32974,-5.32974 0,-2.94353 2.38621,-5.32974 5.32974,-5.32974 2.94353,0 5.3296,2.38621 5.3296,5.32974 z"
         style="opacity:1;fill:url(#radialGradient7967);fill-opacity:1;stroke:#232323;stroke-width:0.75;stroke-linecap:butt;stroke-linejoin:round;stroke-miterlimit:4;stroke-dasharray:none;stroke-opacity:1" /><path
         id="path13522"
         d="m 844.35445,-138.56387 a 7.0302324,7.0302324 0 0 1 -7.03023,7.03023 7.0302324,7.0302324 0 0 1 -7.03023,-7.03023 7.0302324,7.0302324 0 0 1 7.03023,-7.03024 7.0302324,7.0302324 0 0 1 7.03023,7.03024 z"
         style="opacity:1;fill:url(#linearGradient9406);fill-opacity:1;stroke:#2d2d2d;stroke-width:0.75;stroke-linecap:butt;stroke-linejoin:round;stroke-miterlimit:4;stroke-dasharray:none;stroke-opacity:1" /></g></g></svg>