<?xml version="1.0" encoding="UTF-8" standalone="no"?>
<svg
   xmlns:dc="http://purl.org/dc/elements/1.1/"
   xmlns:cc="http://creativecommons.org/ns#"
   xmlns:rdf="http://www.w3.org/1999/02/22-rdf-syntax-ns#"
   xmlns:svg="http://www.w3.org/2000/svg"
   xmlns="http://www.w3.org/2000/svg"
   xmlns:sodipodi="http://sodipodi.sourceforge.net/DTD/sodipodi-0.dtd"
   xmlns:inkscape="http://www.inkscape.org/namespaces/inkscape"
   version="1.1"
   id="Layer_2"
   x="0px"
   y="0px"
   width="400.667px"
   height="400.666px"
   viewBox="0 0 400.667 400.666"
   enable-background="new 0 0 400.667 400.666"
   xml:space="preserve"
   inkscape:version="0.91 r13725"
   sodipodi:docname="altitude_hand2.svg"><metadata
     id="metadata176"><rdf:RDF><cc:Work
         rdf:about=""><dc:format>image/svg+xml</dc:format><dc:type
           rdf:resource="http://purl.org/dc/dcmitype/StillImage" /></cc:Work></rdf:RDF></metadata><defs
     id="defs174"><linearGradient
       id="SVGID_18_-1"
       gradientUnits="userSpaceOnUse"
       x1="148.1084"
       y1="142.3994"
       x2="163.70171"
       y2="169.4077"><stop
         offset="0"
         style="stop-color:#404040"
         id="stop11209" /><stop
         offset="1"
         style="stop-color:#000000"
         id="stop11211" /></linearGradient><linearGradient
       y2="169.4077"
       x2="163.70171"
       y1="142.3994"
       x1="148.1084"
       gradientUnits="userSpaceOnUse"
       id="linearGradient6221"><stop
         id="stop6223"
         style="stop-color:#404040"
         offset="0" /><stop
         id="stop6225"
         style="stop-color:#202020;stop-opacity:1"
         offset="1" /></linearGradient><filter
       inkscape:collect="always"
       style="color-interpolation-filters:sRGB"
       id="filter9220"
       x="-0.3646048"
       width="1.7292095"
       y="-0.07181859"
       height="1.1436372"><feGaussianBlur
         inkscape:collect="always"
         stdDeviation="4.1599615"
         id="feGaussianBlur9222" /></filter></defs><sodipodi:namedview
     pagecolor="#ffffff"
     bordercolor="#666666"
     borderopacity="1"
     objecttolerance="10"
     gridtolerance="10"
     guidetolerance="10"
     inkscape:pageopacity="0"
     inkscape:pageshadow="2"
     inkscape:window-width="1920"
     inkscape:window-height="1027"
     id="namedview172"
     showgrid="false"
     inkscape:zoom="1.1780386"
     inkscape:cx="123.66372"
     inkscape:cy="272.91576"
     inkscape:window-x="-8"
     inkscape:window-y="-8"
     inkscape:window-maximized="1"
     inkscape:current-layer="Layer_2" /><filter
     filterUnits="objectBoundingBox"
     id="AI_Shadow_1"><feGaussianBlur
       stdDeviation="5"
       result="blur"
       in="SourceAlpha"
       id="feGaussianBlur4" /><feOffset
       dy="0"
       dx="0"
       result="offsetBlurredAlpha"
       in="blur"
       id="feOffset6" /><feMerge
       id="feMerge8"><feMergeNode
         in="offsetBlurredAlpha"
         id="feMergeNode10" /><feMergeNode
         in="SourceGraphic"
         id="feMergeNode12" /></feMerge></filter><text
     transform="matrix(1 0 0 1 127.02 296.2324)"
     display="none"
     fill="#FFFFFF"
     stroke="#FFFFFF"
     stroke-miterlimit="10"
     font-family="sans-serif"
     font-size="25"
     id="text130">6</text>
<g
     transform="matrix(1.1106742,0,0,1.1106742,-729.665,406.80676)"
     style="display:inline"
     id="g9224"
     inkscape:transform-center-y="-12.630962"
     inkscape:transform-center-x="0.0039062501"><path
       transform="translate(47.997196,-461.99998)"
       id="path6368-2"
       d="m 789.46875,193.70898 c -5.70496,11.12766 -9.79903,20.64792 -12.10937,28.38868 2.78545,1.95249 4.84111,2.07501 7.14453,2.81836 l -4.38868,75.33007 c -0.003,7.2e-4 -0.006,0.001 -0.01,0.002 l -0.55078,9.21875 c -2.50299,2.55021 -3.91005,5.97749 -3.91992,9.55078 -0.009,7.56165 6.11412,13.69915 13.67578,13.70703 7.56165,0.009 13.69916,-6.11413 13.70703,-13.67578 0,-3.50655 -1.34443,-6.87797 -3.75781,-9.42188 l -0.53907,-9.35937 c -0.005,-0.001 -0.009,-9.3e-4 -0.0137,-0.002 l -4.2168,-75.33593 c 2.30502,-0.73807 4.36446,-0.85666 7.1543,-2.80274 -2.53545,-7.78553 -6.60024,-17.41613 -12.17578,-28.41797 z"
       style="fill:#000000;fill-opacity:1;fill-rule:evenodd;stroke:none;stroke-width:0.99999982;stroke-linecap:butt;stroke-linejoin:miter;stroke-miterlimit:4;stroke-dasharray:none;stroke-opacity:1;filter:url(#filter9220)"
       inkscape:connector-curvature="0" /><g
       id="g6486"
       transform="matrix(1.9999983,0.00227849,-0.00227849,1.9999983,-45.208004,-362.5604)"
       inkscape:transform-center-y="-12.631823"
       style="stroke:#333333;stroke-width:0.5;stroke-miterlimit:4;stroke-dasharray:none;stroke-opacity:1"
       inkscape:transform-center-x="0.0023863548"
       inkscape:export-xdpi="900"
       inkscape:export-ydpi="900"><g
         id="g6477"
         style="stroke:#333333;stroke-width:0.5;stroke-miterlimit:4;stroke-dasharray:none;stroke-opacity:1"><path
           style="fill:#ffffff;fill-rule:evenodd;stroke:#333333;stroke-width:0.5;stroke-linecap:butt;stroke-linejoin:miter;stroke-miterlimit:4;stroke-dasharray:none;stroke-opacity:1"
           d="m 441.39051,46.631413 c -2.84614,5.567078 -4.88757,10.330033 -6.03833,14.201725 1.39384,0.974658 2.4212,1.034445 3.57333,1.404805 l -2.51933,44.130217 4.98433,1.17818 0,0.0171 0.0357,-0.008 0.028,0.006 0,-0.014 4.9859,-1.17973 -2.52089,-44.128664 c 1.15209,-0.370349 2.18107,-0.430177 3.57488,-1.404806 -1.27222,-3.891508 -3.30931,-8.705168 -6.10355,-14.203237 z"
           id="path6368"
           inkscape:connector-curvature="0"
           sodipodi:nodetypes="cccccccccccccc" /><path
           sodipodi:nodetypes="ccccccccc"
           inkscape:connector-curvature="0"
           style="opacity:1;fill:#4d4d4d;fill-opacity:1;stroke:#333333;stroke-width:0.5;stroke-miterlimit:4;stroke-dasharray:none;stroke-dashoffset:0;stroke-opacity:1"
           d="m 441.42312,99.384736 c -1.55132,0.0024 -3.10261,0.178337 -4.65392,0.521563 l -0.26989,4.610241 c -1.25004,1.27653 -1.95141,2.99124 -1.95431,4.77789 -3.7e-4,3.78083 3.06468,6.84589 6.84551,6.84552 3.78083,3.7e-4 6.84589,-3.06469 6.84552,-6.84552 -0.002,-1.75327 -0.67632,-3.439 -1.88446,-4.70958 l -0.27455,-4.678551 c -1.5513,-0.352167 -3.1026,-0.523796 -4.6539,-0.521563 z"
           id="path6366" /></g></g></g></svg>