<?xml version="1.0" encoding="UTF-8" standalone="no"?>
<svg
   xmlns:dc="http://purl.org/dc/elements/1.1/"
   xmlns:cc="http://creativecommons.org/ns#"
   xmlns:rdf="http://www.w3.org/1999/02/22-rdf-syntax-ns#"
   xmlns:svg="http://www.w3.org/2000/svg"
   xmlns="http://www.w3.org/2000/svg"
   xmlns:xlink="http://www.w3.org/1999/xlink"
   xmlns:sodipodi="http://sodipodi.sourceforge.net/DTD/sodipodi-0.dtd"
   xmlns:inkscape="http://www.inkscape.org/namespaces/inkscape"
   xml:space="preserve"
   enable-background="new 0 0 400.667 400.666"
   viewBox="0 0 400.667 400.666"
   height="400.66599"
   width="400.66699"
   y="0px"
   x="0px"
   id="Layer_2"
   version="1.1"
   inkscape:version="0.91 r13725"
   sodipodi:docname="attitude_pitch.svg"><sodipodi:namedview
     pagecolor="#ffffff"
     bordercolor="#666666"
     borderopacity="1"
     objecttolerance="10"
     gridtolerance="10"
     guidetolerance="10"
     inkscape:pageopacity="0"
     inkscape:pageshadow="2"
     inkscape:window-width="1920"
     inkscape:window-height="1150"
     id="namedview147"
     showgrid="false"
     inkscape:zoom="2.3560772"
     inkscape:cx="161.58877"
     inkscape:cy="140.42674"
     inkscape:window-x="0"
     inkscape:window-y="0"
     inkscape:window-maximized="1"
     inkscape:current-layer="g8219" /><metadata
     id="metadata111"><rdf:RDF><cc:Work
         rdf:about=""><dc:format>image/svg+xml</dc:format><dc:type
           rdf:resource="http://purl.org/dc/dcmitype/StillImage" /><dc:title /></cc:Work></rdf:RDF></metadata><defs
     id="defs109"><radialGradient
       xlink:href="#linearGradient5132"
       id="radialGradient5742-9-3"
       cx="129.2859"
       cy="92.274101"
       fx="129.2859"
       fy="92.274101"
       r="72.725906"
       gradientUnits="userSpaceOnUse"
       gradientTransform="matrix(1.6514344,0,0,1.6514344,-84.144237,-60.123606)" /><linearGradient
       id="linearGradient5132"><stop
         id="stop5134"
         offset="0"
         style="stop-color:#969696;stop-opacity:1" /><stop
         id="stop5136"
         offset="1"
         style="stop-color:#000000;stop-opacity:1" /></linearGradient><radialGradient
       gradientTransform="matrix(1.9720261,0,0,1.9720261,-361.57264,26.139009)"
       gradientUnits="userSpaceOnUse"
       r="2.1655145"
       fy="124.89909"
       fx="276.83231"
       cy="124.89909"
       cx="276.83231"
       id="radialGradient14809-7"
       xlink:href="#linearGradient14803" /><linearGradient
       id="linearGradient14803"><stop
         style="stop-color:#7d7d7d;stop-opacity:1"
         offset="0"
         id="stop14805" /><stop
         style="stop-color:#000000;stop-opacity:0.98431373"
         offset="1"
         id="stop14807" /></linearGradient><radialGradient
       gradientTransform="matrix(1.9720261,0,0,1.9720261,-329.26265,26.139875)"
       gradientUnits="userSpaceOnUse"
       r="2.1655145"
       fy="124.89909"
       fx="276.83231"
       cy="124.89909"
       cx="276.83231"
       id="radialGradient14809-1-20"
       xlink:href="#linearGradient14803" /><radialGradient
       gradientTransform="matrix(1.9720261,0,0,1.9720261,-361.57312,26.139553)"
       gradientUnits="userSpaceOnUse"
       r="2.1655145"
       fy="124.89909"
       fx="276.83231"
       cy="124.89909"
       cx="276.83231"
       id="radialGradient14809-3-8"
       xlink:href="#linearGradient14803" /><radialGradient
       gradientTransform="matrix(1.9720261,0,0,1.9720261,-329.26313,26.140419)"
       gradientUnits="userSpaceOnUse"
       r="2.1655145"
       fy="124.89909"
       fx="276.83231"
       cy="124.89909"
       cx="276.83231"
       id="radialGradient14809-1-2-8"
       xlink:href="#linearGradient14803" /><filter
       style="color-interpolation-filters:sRGB"
       id="filter6810"
       x="-0.024771105"
       width="1.0495422"
       y="-0.046819154"
       height="1.0936383"><feGaussianBlur
         stdDeviation="2.1931338"
         id="feGaussianBlur6812" /></filter><linearGradient
       y2="-159.00803"
       x2="548.70923"
       y1="-159.00803"
       x1="507.27173"
       gradientUnits="userSpaceOnUse"
       id="linearGradient7188"
       xlink:href="#linearGradient6073" /><linearGradient
       id="linearGradient6073"><stop
         style="stop-color:#404040;stop-opacity:1;"
         offset="0"
         id="stop6075" /><stop
         id="stop6081"
         offset="0.5"
         style="stop-color:#505050;stop-opacity:1" /><stop
         style="stop-color:#404040;stop-opacity:1"
         offset="1"
         id="stop6077" /></linearGradient><linearGradient
       gradientUnits="userSpaceOnUse"
       y2="-176.40439"
       x2="592.07349"
       y1="-176.40439"
       x1="463.90927"
       id="linearGradient6089-1"
       xlink:href="#linearGradient6083" /><linearGradient
       id="linearGradient6083"><stop
         style="stop-color:#ff3506;stop-opacity:1;"
         offset="0"
         id="stop6085" /><stop
         id="stop6091"
         offset="0.49964535"
         style="stop-color:#c22500;stop-opacity:1" /><stop
         style="stop-color:#ff3506;stop-opacity:1"
         offset="1"
         id="stop6087" /></linearGradient><linearGradient
       y2="56.183659"
       x2="284.10498"
       y1="26.683659"
       x1="284.10498"
       gradientTransform="matrix(1.9999996,0,0,1.9999996,-40.219005,-370.69988)"
       gradientUnits="userSpaceOnUse"
       id="linearGradient7190"
       xlink:href="#linearGradient7937" /><linearGradient
       id="linearGradient7937"><stop
         style="stop-color:#373737;stop-opacity:0.36862746"
         offset="0"
         id="stop7939" /><stop
         style="stop-color:#e1e1e1;stop-opacity:0.23529412"
         offset="1"
         id="stop7941" /></linearGradient><radialGradient
       gradientUnits="userSpaceOnUse"
       gradientTransform="matrix(1.4282286,-1.0857902,1.04174,1.3702855,3.4768015,65.589453)"
       r="9.7426796"
       fy="156.93466"
       fx="334.20053"
       cy="156.93466"
       cx="334.20053"
       id="radialGradient7541-6"
       xlink:href="#linearGradient7533" /><linearGradient
       id="linearGradient7533"><stop
         style="stop-color:#5e5e5e;stop-opacity:1"
         offset="0"
         id="stop7535" /><stop
         style="stop-color:#272727;stop-opacity:1"
         offset="1"
         id="stop7537" /></linearGradient><radialGradient
       gradientUnits="userSpaceOnUse"
       gradientTransform="matrix(1.9464321,0,0,1.256371,-20.848288,-261.29564)"
       r="9.7426796"
       fy="148.36002"
       fx="341.57889"
       cy="148.36002"
       cx="341.57889"
       id="radialGradient7681-88"
       xlink:href="#linearGradient7533" /><radialGradient
       gradientTransform="translate(55.5,5.5)"
       gradientUnits="userSpaceOnUse"
       r="8.3716879"
       fy="145.74329"
       fx="284.11771"
       cy="145.74329"
       cx="284.11771"
       id="radialGradient7619-1-1"
       xlink:href="#linearGradient7611" /><linearGradient
       id="linearGradient7611"><stop
         style="stop-color:#191919;stop-opacity:1"
         offset="0"
         id="stop7613" /><stop
         style="stop-color:#000000;stop-opacity:0;"
         offset="1"
         id="stop7615" /></linearGradient><linearGradient
       y2="138.3627"
       x2="284.10498"
       y1="160.63657"
       x1="284.10498"
       gradientTransform="matrix(2.221348,0,0,2.221348,-385.57539,18.408881)"
       gradientUnits="userSpaceOnUse"
       id="linearGradient7194"
       xlink:href="#linearGradient5770" /><linearGradient
       id="linearGradient5770"><stop
         style="stop-color:#191919;stop-opacity:1"
         offset="0"
         id="stop5772" /><stop
         style="stop-color:#2d2d2d;stop-opacity:1"
         offset="1"
         id="stop5774" /></linearGradient><linearGradient
       y2="165.00002"
       x2="272.13785"
       y1="134.42438"
       x1="272.13785"
       gradientTransform="matrix(2.221348,0,0,2.221348,-385.57539,18.408881)"
       gradientUnits="userSpaceOnUse"
       id="linearGradient7196"
       xlink:href="#linearGradient6785" /><linearGradient
       id="linearGradient6785"><stop
         style="stop-color:#4c4c4c;stop-opacity:1"
         offset="0"
         id="stop6787" /><stop
         style="stop-color:#000000;stop-opacity:0;"
         offset="1"
         id="stop6789" /></linearGradient><radialGradient
       gradientTransform="matrix(3.6684104,0,0,3.6684104,-219.44418,-111.36367)"
       gradientUnits="userSpaceOnUse"
       r="72.725906"
       fy="92.274101"
       fx="129.2859"
       cy="92.274101"
       cx="129.2859"
       id="radialGradient5742-9-38-1"
       xlink:href="#linearGradient5132" /><radialGradient
       gradientTransform="translate(92.3125,2.0190639)"
       gradientUnits="userSpaceOnUse"
       r="6.5083065"
       fy="31.47263"
       fx="-22.804193"
       cy="31.47263"
       cx="-22.804193"
       id="radialGradient6302-8-1-1-3-9"
       xlink:href="#linearGradient6296" /><linearGradient
       id="linearGradient6296"><stop
         style="stop-color:#bcb8ae;stop-opacity:1;"
         offset="0"
         id="stop6298" /><stop
         style="stop-color:#5f5a4f;stop-opacity:1"
         offset="1"
         id="stop6300" /></linearGradient><radialGradient
       gradientTransform="translate(92.3125,2.0190639)"
       gradientUnits="userSpaceOnUse"
       r="6.5083065"
       fy="31.47263"
       fx="-22.804193"
       cy="31.47263"
       cx="-22.804193"
       id="radialGradient6302-5-9-1-2-3-9"
       xlink:href="#linearGradient6296" /><radialGradient
       gradientTransform="translate(92.3125,2.0190639)"
       gradientUnits="userSpaceOnUse"
       r="6.5083065"
       fy="31.47263"
       fx="-22.804193"
       cy="31.47263"
       cx="-22.804193"
       id="radialGradient6302-4-7-4-3-0-7"
       xlink:href="#linearGradient6296" /><radialGradient
       xlink:href="#linearGradient14803"
       id="radialGradient6042-3"
       gradientUnits="userSpaceOnUse"
       gradientTransform="matrix(1.7755217,0,0,1.7755217,-26.073475,-296.66282)"
       cx="276.83231"
       cy="124.89909"
       fx="276.83231"
       fy="124.89909"
       r="2.1655145" /><radialGradient
       xlink:href="#linearGradient14803"
       id="radialGradient6044-0"
       gradientUnits="userSpaceOnUse"
       gradientTransform="matrix(1.7755217,0,0,1.7755217,3.016955,-296.66204)"
       cx="276.83231"
       cy="124.89909"
       fx="276.83231"
       fy="124.89909"
       r="2.1655145" /><radialGradient
       xlink:href="#linearGradient14803"
       id="radialGradient6048-4"
       gradientUnits="userSpaceOnUse"
       gradientTransform="matrix(1.7755217,0,0,1.7755217,-26.073912,-296.66233)"
       cx="276.83231"
       cy="124.89909"
       fx="276.83231"
       fy="124.89909"
       r="2.1655145" /><radialGradient
       xlink:href="#linearGradient14803"
       id="radialGradient6050-9"
       gradientUnits="userSpaceOnUse"
       gradientTransform="matrix(1.7755217,0,0,1.7755217,3.0165178,-296.66155)"
       cx="276.83231"
       cy="124.89909"
       fx="276.83231"
       fy="124.89909"
       r="2.1655145" /><filter
       style="color-interpolation-filters:sRGB"
       id="filter8276"
       x="-0.10858973"
       width="1.2171795"
       y="-0.053853765"
       height="1.1077075"><feGaussianBlur
         stdDeviation="2.0013282"
         id="feGaussianBlur8278" /></filter><filter
       style="color-interpolation-filters:sRGB"
       id="filter10001"
       x="-0.096000001"
       width="1.192"
       y="-0.096000001"
       height="1.192"><feGaussianBlur
         stdDeviation="8.0736902"
         id="feGaussianBlur10003" /></filter><linearGradient
       id="linearGradient4861"><stop
         style="stop-color:#e3e4f3;stop-opacity:1"
         offset="0"
         id="stop4863" /><stop
         style="stop-color:#8491b4;stop-opacity:1"
         offset="1"
         id="stop4865" /></linearGradient><linearGradient
       id="linearGradient4894"><stop
         id="stop4896"
         offset="0"
         style="stop-color:#987440;stop-opacity:1" /><stop
         id="stop4898"
         offset="1"
         style="stop-color:#d5bb9b;stop-opacity:1" /></linearGradient><linearGradient
       y2="25.103758"
       x2="282.66592"
       y1="92.273994"
       x1="282.66592"
       gradientTransform="matrix(1.9999996,0,0,1.9999996,-37.342044,-370.6998)"
       gradientUnits="userSpaceOnUse"
       id="linearGradient5590-8"
       xlink:href="#linearGradient5602-8" /><linearGradient
       id="linearGradient5602-8"><stop
         style="stop-color:#9fa5d3;stop-opacity:1"
         offset="0"
         id="stop5604-0" /><stop
         style="stop-color:#5c6994;stop-opacity:1"
         offset="1"
         id="stop5606-9" /></linearGradient><linearGradient
       y2="25.103758"
       x2="282.66592"
       y1="92.273994"
       x1="282.66592"
       gradientTransform="matrix(1.9999996,0,0,-1.9999996,-37.341966,-1.6036738)"
       gradientUnits="userSpaceOnUse"
       id="linearGradient5592-8"
       xlink:href="#linearGradient5596-5" /><linearGradient
       id="linearGradient5596-5"><stop
         id="stop5598-8"
         offset="0"
         style="stop-color:#5d4625;stop-opacity:1" /><stop
         id="stop5600-3"
         offset="1"
         style="stop-color:#af814b;stop-opacity:1" /></linearGradient><linearGradient
       y2="25.103758"
       x2="282.66592"
       y1="92.273994"
       x1="282.66592"
       gradientTransform="translate(-3.9e-5,1e-5)"
       gradientUnits="userSpaceOnUse"
       id="linearGradient4949"
       xlink:href="#linearGradient4861" /><linearGradient
       y2="25.103758"
       x2="282.66592"
       y1="92.273994"
       x1="282.66592"
       gradientTransform="matrix(1,0,0,-1,0,184.54811)"
       gradientUnits="userSpaceOnUse"
       id="linearGradient4951"
       xlink:href="#linearGradient4894" /><filter
       inkscape:collect="always"
       style="color-interpolation-filters:sRGB"
       id="filter4309"
       x="-0.030282152"
       width="1.0605643"
       y="-0.044379741"
       height="1.0887595"><feGaussianBlur
         inkscape:collect="always"
         stdDeviation="2.8366847"
         id="feGaussianBlur4311" /></filter></defs><g
     transform="matrix(2.2213481,0,0,2.2213481,-86.85814,-4.9720701)"
     style="display:inline"
     id="airspeedIndicatorHand" /><g
     transform="matrix(2.2213481,0,0,2.2213481,-86.85814,-4.9720701)"
     style="display:inline"
     id="airspeedIndicatorFg" /><g
     id="g8219"
     style="display:inline"
     transform="matrix(1.1106742,0,0,1.1106742,-332.61351,355.63474)"><g
       id="g4313"><path
         style="display:inline;opacity:1;fill:#000000;fill-opacity:1;stroke:#000000;stroke-width:0.75;stroke-miterlimit:4;stroke-dasharray:none;stroke-dashoffset:0;stroke-opacity:1;filter:url(#filter4309)"
         d="m 480.18716,-216.85357 c -62.08251,0 -112.41016,34.34011 -112.41016,76.70118 0,42.36106 50.32747,76.70312 112.40998,76.70312 62.08251,2e-5 112.41034,-34.34206 112.41034,-76.70312 0,-42.36107 -50.32764,-76.70119 -112.41016,-76.70118 z"
         id="path4275" /><g
         style="display:inline;opacity:1"
         id="g4905-8-8"
         transform="matrix(1.6648725,0,0,1.1360006,9.583652,-244.97525)"><path
           id="path4856-0-9-19"
           d="m 350.18477,92.274 c -27.09316,0 -116.96781,0 -135.03777,0 0,-37.28965 30.22923,-67.51888 67.51888,-67.51888 37.28965,-1e-5 67.51889,30.22923 67.51889,67.51888 z"
           style="display:inline;opacity:1;fill:url(#linearGradient4949);fill-opacity:1;stroke:none;stroke-width:0.5;stroke-miterlimit:4;stroke-dasharray:none;stroke-dashoffset:0;stroke-opacity:1" /><path
           id="path4856-2-4"
           d="m 350.18481,92.27412 c -27.09316,0 -116.96781,0 -135.03777,0 0,37.28965 30.22923,67.51888 67.51888,67.51888 37.28965,1e-5 67.51889,-30.22923 67.51889,-67.51888 z"
           style="display:inline;opacity:1;fill:url(#linearGradient4951);fill-opacity:1;stroke:none;stroke-width:0.5;stroke-miterlimit:4;stroke-dasharray:none;stroke-dashoffset:0;stroke-opacity:1" /></g><path
         style="display:inline;opacity:1;fill:#ffffff;fill-opacity:1;stroke:none;stroke-width:0.40003356;stroke-miterlimit:4;stroke-dasharray:none;stroke-dashoffset:0;stroke-opacity:1"
         d="m 367.82736,-141.903 c -0.0654,1.15965 -0.08,2.32459 0,3.5 74.8729,0 149.74581,0 224.61872,0 0.08,-1.17541 0.0654,-2.34035 0,-3.5 -74.87291,0 -149.74582,0 -224.61872,0 z"
         id="rect5240-7" /><path
         id="path7623"
         transform="translate(0,-416)"
         d="m 468.12695,244.54688 0,2.5996 12.06055,0 12.06055,0 0,-2.5996 -12.06055,0 -12.06055,0 z"
         style="opacity:1;fill:#000000;fill-opacity:1;stroke:none;stroke-width:1.70000005;stroke-miterlimit:4;stroke-dasharray:none" /><g
         transform="matrix(0.82557004,0,0,0.81703693,89.178653,-27.702616)"
         id="text7713"
         style="font-style:normal;font-weight:normal;font-size:12.63661194px;line-height:125%;font-family:sans-serif;letter-spacing:-0.40000001px;word-spacing:0px;opacity:1;fill:#ffffff;fill-opacity:1;stroke:none;stroke-width:1px;stroke-linecap:butt;stroke-linejoin:miter;stroke-opacity:1"><path
           id="path7729"
           style="font-style:normal;font-variant:normal;font-weight:normal;font-stretch:normal;font-family:FreeSans;-inkscape-font-specification:FreeSans;letter-spacing:-0.40000001px;fill:#ffffff"
           d="m 505.62918,-115.20013 -1.98395,0 0,-0.79611 q 1.28893,-0.16427 1.68067,-0.45492 0.39173,-0.29064 0.68237,-1.32684 l 0.73293,0 0,8.95936 -1.11202,0 0,-6.38149 z" /><path
           id="path7731"
           style="font-style:normal;font-variant:normal;font-weight:normal;font-stretch:normal;font-family:FreeSans;-inkscape-font-specification:FreeSans;letter-spacing:-0.40000001px;fill:#ffffff"
           d="m 509.53372,-113.153 q 0,-1.12466 0.18955,-1.98395 0.18955,-0.85929 0.48019,-1.33948 0.29064,-0.49283 0.69501,-0.79611 0.40437,-0.30327 0.77084,-0.40437 0.37909,-0.10109 0.7961,-0.10109 2.9317,0 2.9317,4.70082 0,2.21141 -0.7582,3.38661 -0.74556,1.16257 -2.1735,1.16257 -1.44057,0 -2.18613,-1.1752 -0.74556,-1.18785 -0.74556,-3.4498 z m 4.72609,-0.0253 q 0,-3.61407 -1.7944,-3.61407 -1.7944,0 -1.7944,3.65198 0,3.68989 1.76913,3.68989 0.93511,0 1.37739,-0.90984 0.44228,-0.90983 0.44228,-2.81796 z" /></g><g
         transform="matrix(0.81703693,0,0,0.81703693,94.822575,-29.762613)"
         id="text7717"
         style="font-style:normal;font-weight:normal;font-size:12.63661194px;line-height:125%;font-family:sans-serif;letter-spacing:-0.40000001px;word-spacing:0px;opacity:1;fill:#ffffff;fill-opacity:1;stroke:none;stroke-width:1px;stroke-linecap:butt;stroke-linejoin:miter;stroke-opacity:1"><path
           id="path7723"
           style="font-style:normal;font-variant:normal;font-weight:normal;font-stretch:normal;font-family:FreeSans;-inkscape-font-specification:FreeSans;letter-spacing:-0.40000001px;fill:#ffffff"
           d="m 529.94659,-87.669393 q 0.0885,-3.108607 2.95697,-3.108607 1.27629,0 2.0724,0.732924 0.79611,0.732923 0.79611,1.895492 0,1.668033 -1.89549,2.704235 l -1.26367,0.682377 q -0.82138,0.442281 -1.1752,0.859289 -0.35383,0.417009 -0.44228,0.985656 l 4.71345,0 0,1.099385 -5.96448,0 q 0.0758,-1.478483 0.59392,-2.27459 0.5181,-0.808743 1.92077,-1.60485 l 1.16257,-0.657103 q 1.21311,-0.695014 1.21311,-1.769126 0,-0.720287 -0.50546,-1.200478 -0.50547,-0.480191 -1.26366,-0.480191 -1.68067,0 -1.80704,2.135587 l -1.11202,0 z" /><path
           id="path7725"
           style="font-style:normal;font-variant:normal;font-weight:normal;font-stretch:normal;font-family:FreeSans;-inkscape-font-specification:FreeSans;letter-spacing:-0.40000001px;fill:#ffffff"
           d="m 536.49218,-86.153 q 0,-1.124658 0.18955,-1.983948 0.18955,-0.859289 0.48019,-1.33948 0.29065,-0.492828 0.69502,-0.796107 0.40437,-0.303279 0.77083,-0.404372 0.3791,-0.101093 0.79611,-0.101093 2.93169,0 2.93169,4.70082 0,2.211407 -0.75819,3.386612 -0.74556,1.162568 -2.1735,1.162568 -1.44058,0 -2.18614,-1.175204 -0.74556,-1.187842 -0.74556,-3.449796 z m 4.7261,-0.02527 q 0,-3.614071 -1.7944,-3.614071 -1.7944,0 -1.7944,3.651981 0,3.689891 1.76912,3.689891 0.93511,0 1.3774,-0.909836 0.44228,-0.909836 0.44228,-2.817965 z" /></g><g
         transform="matrix(0.81703693,0,0,0.81703693,97.420553,-67.702616)"
         style="font-style:normal;font-weight:normal;font-size:12.63661194px;line-height:125%;font-family:sans-serif;letter-spacing:-0.40000001px;word-spacing:0px;opacity:1;fill:#000000;fill-opacity:1;stroke:none;stroke-width:1px;stroke-linecap:butt;stroke-linejoin:miter;stroke-opacity:1"
         id="g7733"><path
           d="m 505.62918,-115.20013 -1.98395,0 0,-0.79611 q 1.28893,-0.16427 1.68067,-0.45492 0.39173,-0.29064 0.68237,-1.32684 l 0.73293,0 0,8.95936 -1.11202,0 0,-6.38149 z"
           style="font-style:normal;font-variant:normal;font-weight:normal;font-stretch:normal;font-family:FreeSans;-inkscape-font-specification:FreeSans;letter-spacing:-0.40000001px;fill:#000000"
           id="path7735" /><path
           d="m 509.53372,-113.153 q 0,-1.12466 0.18955,-1.98395 0.18955,-0.85929 0.48019,-1.33948 0.29064,-0.49283 0.69501,-0.79611 0.40437,-0.30327 0.77084,-0.40437 0.37909,-0.10109 0.7961,-0.10109 2.9317,0 2.9317,4.70082 0,2.21141 -0.7582,3.38661 -0.74556,1.16257 -2.1735,1.16257 -1.44057,0 -2.18613,-1.1752 -0.74556,-1.18785 -0.74556,-3.4498 z m 4.72609,-0.0253 q 0,-3.61407 -1.7944,-3.61407 -1.7944,0 -1.7944,3.65198 0,3.68989 1.76913,3.68989 0.93511,0 1.37739,-0.90984 0.44228,-0.90983 0.44228,-2.81796 z"
           style="font-style:normal;font-variant:normal;font-weight:normal;font-stretch:normal;font-family:FreeSans;-inkscape-font-specification:FreeSans;letter-spacing:-0.40000001px;fill:#000000"
           id="path7737" /></g><g
         transform="matrix(0.81703693,0,0,0.81708108,75.429262,-109.75901)"
         style="font-style:normal;font-weight:normal;font-size:12.63661194px;line-height:125%;font-family:sans-serif;letter-spacing:-0.40000001px;word-spacing:0px;opacity:1;fill:#000000;fill-opacity:1;stroke:none;stroke-width:1px;stroke-linecap:butt;stroke-linejoin:miter;stroke-opacity:1"
         id="g7739"><path
           d="m 529.94659,-87.669393 q 0.0885,-3.108607 2.95697,-3.108607 1.27629,0 2.0724,0.732924 0.79611,0.732923 0.79611,1.895492 0,1.668033 -1.89549,2.704235 l -1.26367,0.682377 q -0.82138,0.442281 -1.1752,0.859289 -0.35383,0.417009 -0.44228,0.985656 l 4.71345,0 0,1.099385 -5.96448,0 q 0.0758,-1.478483 0.59392,-2.27459 0.5181,-0.808743 1.92077,-1.60485 l 1.16257,-0.657103 q 1.21311,-0.695014 1.21311,-1.769126 0,-0.720287 -0.50546,-1.200478 -0.50547,-0.480191 -1.26366,-0.480191 -1.68067,0 -1.80704,2.135587 l -1.11202,0 z"
           style="font-style:normal;font-variant:normal;font-weight:normal;font-stretch:normal;font-family:FreeSans;-inkscape-font-specification:FreeSans;letter-spacing:-0.40000001px;fill:#000000"
           id="path7741" /><path
           d="m 536.49218,-86.153 q 0,-1.124658 0.18955,-1.983948 0.18955,-0.859289 0.48019,-1.33948 0.29065,-0.492828 0.69502,-0.796107 0.40437,-0.303279 0.77083,-0.404372 0.3791,-0.101093 0.79611,-0.101093 2.93169,0 2.93169,4.70082 0,2.211407 -0.75819,3.386612 -0.74556,1.162568 -2.1735,1.162568 -1.44058,0 -2.18614,-1.175204 -0.74556,-1.187842 -0.74556,-3.449796 z m 4.7261,-0.02527 q 0,-3.614071 -1.7944,-3.614071 -1.7944,0 -1.7944,3.651981 0,3.689891 1.76912,3.689891 0.93511,0 1.3774,-0.909836 0.44228,-0.909836 0.44228,-2.817965 z"
           style="font-style:normal;font-variant:normal;font-weight:normal;font-stretch:normal;font-family:FreeSans;-inkscape-font-specification:FreeSans;letter-spacing:-0.40000001px;fill:#000000"
           id="path7743" /></g><path
         id="path8079"
         transform="translate(0,-416)"
         d="m 457.31445,294.54688 0,2.5996 22.87305,0 22.87305,0 0,-2.5996 -22.87305,0 -22.87305,0 z"
         style="opacity:1;fill:#ffffff;fill-opacity:1;stroke:none;stroke-width:1.70000005;stroke-miterlimit:4;stroke-dasharray:none" /><path
         id="path7828"
         d="m 588.0925,-118.85352 c 0.36961,-0.8568 0.67353,-1.73075 0.9993,-2.5996 l -72.9668,0 0,2.5996 71.9675,0 z"
         style="opacity:1;fill:#ffffff;fill-opacity:1;stroke:none;stroke-width:1.70000005;stroke-miterlimit:4;stroke-dasharray:none" /><path
         id="path8063"
         transform="translate(0,-416)"
         d="m 434.00391,314.54688 0,2.5996 46.18359,0 46.18359,0 0,-2.5996 -46.18359,0 -46.18359,0 z"
         style="opacity:1;fill:#ffffff;fill-opacity:1;stroke:none;stroke-width:1.70000005;stroke-miterlimit:4;stroke-dasharray:none" /><path
         transform="translate(0,-416)"
         id="path7830"
         d="m 574.81055,317.14648 c 0.80122,-0.8529 1.56202,-1.72408 2.31445,-2.5996 l -38.23633,0 0,2.5996 35.92188,0 z"
         style="opacity:1;fill:#ffffff;fill-opacity:1;stroke:none;stroke-width:1.70000005;stroke-miterlimit:4;stroke-dasharray:none" /><path
         id="path7834"
         transform="translate(0,-416)"
         d="m 454.12695,234.54688 0,2.5996 26.06055,0 26.06055,0 0,-2.5996 -26.06055,0 -26.06055,0 z"
         style="opacity:1;fill:#000000;fill-opacity:1;stroke:none;stroke-width:1.70000005;stroke-miterlimit:4;stroke-dasharray:none" /><path
         id="path7837"
         transform="translate(0,-416)"
         d="m 454.12695,254.54688 0,2.5996 26.06055,0 26.06055,0 0,-2.5996 -26.06055,0 -26.06055,0 z"
         style="opacity:1;fill:#000000;fill-opacity:1;stroke:none;stroke-width:1.70000005;stroke-miterlimit:4;stroke-dasharray:none" /><path
         id="path7839"
         transform="translate(0,-416)"
         d="m 468.12695,264.54688 0,2.5996 12.06055,0 12.06055,0 0,-2.5996 -12.06055,0 -12.06055,0 z"
         style="opacity:1;fill:#000000;fill-opacity:1;stroke:none;stroke-width:1.70000005;stroke-miterlimit:4;stroke-dasharray:none" /><path
         id="path8085"
         transform="translate(0,-416)"
         d="m 480.70703,275.36523 -0.51953,0.48243 0,1.05078 58.88086,64.19726 c 0.93126,-0.39216 1.89368,-0.75209 2.80664,-1.16211 l -61.16797,-64.56836 z"
         style="opacity:1;fill:#ffffff;fill-opacity:1;stroke:none;stroke-width:1.70000005;stroke-miterlimit:4;stroke-dasharray:none" /><path
         id="path8095"
         transform="translate(0,-416)"
         d="m 480.46094,275.19336 -0.27344,0.6543 0,0.77148 94.66016,40.48633 c 0.75275,-0.80242 1.46616,-1.62288 2.17578,-2.44531 l -96.5625,-39.4668 z"
         style="opacity:1;fill:#ffffff;fill-opacity:1;stroke:none;stroke-width:1.70000005;stroke-miterlimit:4;stroke-dasharray:none" /><g
         style="font-style:normal;font-weight:normal;font-size:12.63661194px;line-height:125%;font-family:sans-serif;letter-spacing:-0.40000001px;word-spacing:0px;opacity:1;fill:#ffffff;fill-opacity:1;stroke:none;stroke-width:1px;stroke-linecap:butt;stroke-linejoin:miter;stroke-opacity:1"
         id="g8164"
         transform="matrix(0.82557004,0,0,0.81703693,29.905325,-27.702616)"><path
           d="m 505.62918,-115.20013 -1.98395,0 0,-0.79611 q 1.28893,-0.16427 1.68067,-0.45492 0.39173,-0.29064 0.68237,-1.32684 l 0.73293,0 0,8.95936 -1.11202,0 0,-6.38149 z"
           style="font-style:normal;font-variant:normal;font-weight:normal;font-stretch:normal;font-family:FreeSans;-inkscape-font-specification:FreeSans;letter-spacing:-0.40000001px;fill:#ffffff"
           id="path8166" /><path
           d="m 509.53372,-113.153 q 0,-1.12466 0.18955,-1.98395 0.18955,-0.85929 0.48019,-1.33948 0.29064,-0.49283 0.69501,-0.79611 0.40437,-0.30327 0.77084,-0.40437 0.37909,-0.10109 0.7961,-0.10109 2.9317,0 2.9317,4.70082 0,2.21141 -0.7582,3.38661 -0.74556,1.16257 -2.1735,1.16257 -1.44057,0 -2.18613,-1.1752 -0.74556,-1.18785 -0.74556,-3.4498 z m 4.72609,-0.0253 q 0,-3.61407 -1.7944,-3.61407 -1.7944,0 -1.7944,3.65198 0,3.68989 1.76913,3.68989 0.93511,0 1.37739,-0.90984 0.44228,-0.90983 0.44228,-2.81796 z"
           style="font-style:normal;font-variant:normal;font-weight:normal;font-stretch:normal;font-family:FreeSans;-inkscape-font-specification:FreeSans;letter-spacing:-0.40000001px;fill:#ffffff"
           id="path8168" /></g><g
         style="font-style:normal;font-weight:normal;font-size:12.63661194px;line-height:125%;font-family:sans-serif;letter-spacing:-0.40000001px;word-spacing:0px;opacity:1;fill:#ffffff;fill-opacity:1;stroke:none;stroke-width:1px;stroke-linecap:butt;stroke-linejoin:miter;stroke-opacity:1"
         id="g8170"
         transform="matrix(0.81703693,0,0,0.81703693,-10.393048,-29.762613)"><path
           d="m 529.94659,-87.669393 q 0.0885,-3.108607 2.95697,-3.108607 1.27629,0 2.0724,0.732924 0.79611,0.732923 0.79611,1.895492 0,1.668033 -1.89549,2.704235 l -1.26367,0.682377 q -0.82138,0.442281 -1.1752,0.859289 -0.35383,0.417009 -0.44228,0.985656 l 4.71345,0 0,1.099385 -5.96448,0 q 0.0758,-1.478483 0.59392,-2.27459 0.5181,-0.808743 1.92077,-1.60485 l 1.16257,-0.657103 q 1.21311,-0.695014 1.21311,-1.769126 0,-0.720287 -0.50546,-1.200478 -0.50547,-0.480191 -1.26366,-0.480191 -1.68067,0 -1.80704,2.135587 l -1.11202,0 z"
           style="font-style:normal;font-variant:normal;font-weight:normal;font-stretch:normal;font-family:FreeSans;-inkscape-font-specification:FreeSans;letter-spacing:-0.40000001px;fill:#ffffff"
           id="path8172" /><path
           d="m 536.49218,-86.153 q 0,-1.124658 0.18955,-1.983948 0.18955,-0.859289 0.48019,-1.33948 0.29065,-0.492828 0.69502,-0.796107 0.40437,-0.303279 0.77083,-0.404372 0.3791,-0.101093 0.79611,-0.101093 2.93169,0 2.93169,4.70082 0,2.211407 -0.75819,3.386612 -0.74556,1.162568 -2.1735,1.162568 -1.44058,0 -2.18614,-1.175204 -0.74556,-1.187842 -0.74556,-3.449796 z m 4.7261,-0.02527 q 0,-3.614071 -1.7944,-3.614071 -1.7944,0 -1.7944,3.651981 0,3.689891 1.76912,3.689891 0.93511,0 1.3774,-0.909836 0.44228,-0.909836 0.44228,-2.817965 z"
           style="font-style:normal;font-variant:normal;font-weight:normal;font-stretch:normal;font-family:FreeSans;-inkscape-font-specification:FreeSans;letter-spacing:-0.40000001px;fill:#ffffff"
           id="path8174" /></g><g
         id="g8176"
         style="font-style:normal;font-weight:normal;font-size:12.63661194px;line-height:125%;font-family:sans-serif;letter-spacing:-0.40000001px;word-spacing:0px;opacity:1;fill:#000000;fill-opacity:1;stroke:none;stroke-width:1px;stroke-linecap:butt;stroke-linejoin:miter;stroke-opacity:1"
         transform="matrix(0.81703693,0,0,0.81703693,31.026247,-67.702616)"><path
           id="path8178"
           style="font-style:normal;font-variant:normal;font-weight:normal;font-stretch:normal;font-family:FreeSans;-inkscape-font-specification:FreeSans;letter-spacing:-0.40000001px;fill:#000000"
           d="m 505.62918,-115.20013 -1.98395,0 0,-0.79611 q 1.28893,-0.16427 1.68067,-0.45492 0.39173,-0.29064 0.68237,-1.32684 l 0.73293,0 0,8.95936 -1.11202,0 0,-6.38149 z" /><path
           id="path8180"
           style="font-style:normal;font-variant:normal;font-weight:normal;font-stretch:normal;font-family:FreeSans;-inkscape-font-specification:FreeSans;letter-spacing:-0.40000001px;fill:#000000"
           d="m 509.53372,-113.153 q 0,-1.12466 0.18955,-1.98395 0.18955,-0.85929 0.48019,-1.33948 0.29064,-0.49283 0.69501,-0.79611 0.40437,-0.30327 0.77084,-0.40437 0.37909,-0.10109 0.7961,-0.10109 2.9317,0 2.9317,4.70082 0,2.21141 -0.7582,3.38661 -0.74556,1.16257 -2.1735,1.16257 -1.44057,0 -2.18613,-1.1752 -0.74556,-1.18785 -0.74556,-3.4498 z m 4.72609,-0.0253 q 0,-3.61407 -1.7944,-3.61407 -1.7944,0 -1.7944,3.65198 0,3.68989 1.76913,3.68989 0.93511,0 1.37739,-0.90984 0.44228,-0.90983 0.44228,-2.81796 z" /></g><g
         id="g8182"
         style="font-style:normal;font-weight:normal;font-size:12.63661194px;line-height:125%;font-family:sans-serif;letter-spacing:-0.40000001px;word-spacing:0px;opacity:1;fill:#000000;fill-opacity:1;stroke:none;stroke-width:1px;stroke-linecap:butt;stroke-linejoin:miter;stroke-opacity:1"
         transform="matrix(0.81703693,0,0,0.81708108,9.0002719,-109.75901)"><path
           id="path8184"
           style="font-style:normal;font-variant:normal;font-weight:normal;font-stretch:normal;font-family:FreeSans;-inkscape-font-specification:FreeSans;letter-spacing:-0.40000001px;fill:#000000"
           d="m 529.94659,-87.669393 q 0.0885,-3.108607 2.95697,-3.108607 1.27629,0 2.0724,0.732924 0.79611,0.732923 0.79611,1.895492 0,1.668033 -1.89549,2.704235 l -1.26367,0.682377 q -0.82138,0.442281 -1.1752,0.859289 -0.35383,0.417009 -0.44228,0.985656 l 4.71345,0 0,1.099385 -5.96448,0 q 0.0758,-1.478483 0.59392,-2.27459 0.5181,-0.808743 1.92077,-1.60485 l 1.16257,-0.657103 q 1.21311,-0.695014 1.21311,-1.769126 0,-0.720287 -0.50546,-1.200478 -0.50547,-0.480191 -1.26366,-0.480191 -1.68067,0 -1.80704,2.135587 l -1.11202,0 z" /><path
           id="path8186"
           style="font-style:normal;font-variant:normal;font-weight:normal;font-stretch:normal;font-family:FreeSans;-inkscape-font-specification:FreeSans;letter-spacing:-0.40000001px;fill:#000000"
           d="m 536.49218,-86.153 q 0,-1.124658 0.18955,-1.983948 0.18955,-0.859289 0.48019,-1.33948 0.29065,-0.492828 0.69502,-0.796107 0.40437,-0.303279 0.77083,-0.404372 0.3791,-0.101093 0.79611,-0.101093 2.93169,0 2.93169,4.70082 0,2.211407 -0.75819,3.386612 -0.74556,1.162568 -2.1735,1.162568 -1.44058,0 -2.18614,-1.175204 -0.74556,-1.187842 -0.74556,-3.449796 z m 4.7261,-0.02527 q 0,-3.614071 -1.7944,-3.614071 -1.7944,0 -1.7944,3.651981 0,3.689891 1.76912,3.689891 0.93511,0 1.3774,-0.909836 0.44228,-0.909836 0.44228,-2.817965 z" /></g><path
         style="opacity:1;fill:#ffffff;fill-opacity:1;stroke:none;stroke-width:1.70000005;stroke-miterlimit:4;stroke-dasharray:none"
         d="m 372.2823,-118.85352 c -0.36961,-0.8568 -0.67353,-1.73075 -0.9993,-2.5996 l 72.9668,0 0,2.5996 -71.9675,0 z"
         id="path8190" /><path
         style="opacity:1;fill:#ffffff;fill-opacity:1;stroke:none;stroke-width:1.70000005;stroke-miterlimit:4;stroke-dasharray:none"
         d="m 385.56425,-98.85352 c -0.80122,-0.8529 -1.56202,-1.72408 -2.31445,-2.5996 l 38.23633,0 0,2.5996 -35.92188,0 z"
         id="path8194" /><path
         style="opacity:1;fill:#ffffff;fill-opacity:1;stroke:none;stroke-width:1.70000005;stroke-miterlimit:4;stroke-dasharray:none"
         d="m 479.66777,-140.63477 0.51953,0.48243 0,1.05078 -58.88086,64.19726 c -0.93126,-0.39216 -1.89368,-0.75209 -2.80664,-1.16211 l 61.16797,-64.56836 z"
         id="path8203" /><path
         style="opacity:1;fill:#ffffff;fill-opacity:1;stroke:none;stroke-width:1.70000005;stroke-miterlimit:4;stroke-dasharray:none"
         d="m 479.91386,-140.80664 0.27344,0.6543 0,0.77148 -94.66016,40.48633 c -0.75275,-0.80242 -1.46616,-1.62288 -2.17578,-2.44531 l 96.5625,-39.4668 z"
         id="path8205" /><path
         id="path4856-0-9-1-6"
         d="m 480.18716,-216.85357 c -62.08251,0 -112.41016,34.34011 -112.41016,76.70118 0,42.36106 50.32747,76.70312 112.40998,76.70312 62.08251,2e-5 112.41034,-34.34206 112.41034,-76.70312 0,-42.36107 -50.32764,-76.70119 -112.41016,-76.70118 z"
         style="display:inline;opacity:1;fill:none;fill-opacity:1;stroke:#000000;stroke-width:0.75;stroke-miterlimit:4;stroke-dasharray:none;stroke-dashoffset:0;stroke-opacity:1" /></g></g><circle
     style="display:inline;opacity:1;fill:url(#radialGradient14809-7);fill-opacity:1;stroke:none;stroke-width:0.5;stroke-miterlimit:4;stroke-dasharray:none;stroke-dashoffset:0;stroke-opacity:1"
     id="path14799-6"
     cx="184.34792"
     cy="272.4433"
     r="0" /><circle
     style="display:inline;opacity:1;fill:url(#radialGradient14809-1-20);fill-opacity:1;stroke:none;stroke-width:0.5;stroke-miterlimit:4;stroke-dasharray:none;stroke-dashoffset:0;stroke-opacity:1"
     id="path14799-8-1"
     cx="216.65787"
     cy="272.44415"
     r="0" /><circle
     style="display:inline;opacity:1;fill:url(#radialGradient14809-3-8);fill-opacity:1;stroke:none;stroke-width:0.5;stroke-miterlimit:4;stroke-dasharray:none;stroke-dashoffset:0;stroke-opacity:1"
     id="path14799-9-9"
     cx="184.34744"
     cy="272.44385"
     r="0" /><circle
     style="display:inline;opacity:1;fill:url(#radialGradient14809-1-2-8);fill-opacity:1;stroke:none;stroke-width:0.5;stroke-miterlimit:4;stroke-dasharray:none;stroke-dashoffset:0;stroke-opacity:1"
     id="path14799-8-7-4"
     cx="216.65739"
     cy="272.4447"
     r="0" /></svg>