<?xml version="1.0" encoding="UTF-8" standalone="no"?>
<!-- Created with Inkscape (http://www.inkscape.org/) -->

<svg
   xmlns:dc="http://purl.org/dc/elements/1.1/"
   xmlns:cc="http://creativecommons.org/ns#"
   xmlns:rdf="http://www.w3.org/1999/02/22-rdf-syntax-ns#"
   xmlns:svg="http://www.w3.org/2000/svg"
   xmlns="http://www.w3.org/2000/svg"
   xmlns:sodipodi="http://sodipodi.sourceforge.net/DTD/sodipodi-0.dtd"
   xmlns:inkscape="http://www.inkscape.org/namespaces/inkscape"
   version="1.1"
   width="537.94183"
   height="539.90863"
   id="svg6534"
   preserveAspectRatio="X200Y200 meet"
   inkscape:version="0.91 r13725"
   sodipodi:docname="fi_tc_airplane.svg">
  <metadata
     id="metadata11">
    <rdf:RDF>
      <cc:Work
         rdf:about="">
        <dc:format>image/svg+xml</dc:format>
        <dc:type
           rdf:resource="http://purl.org/dc/dcmitype/StillImage" />
      </cc:Work>
    </rdf:RDF>
  </metadata>
  <defs
     id="defs9">
    <filter
       inkscape:collect="always"
       style="color-interpolation-filters:sRGB"
       id="filter8286"
       x="-0.059879337"
       width="1.1197587"
       y="-0.24195024"
       height="1.4839005">
      <feGaussianBlur
         inkscape:collect="always"
         stdDeviation="4.452458"
         id="feGaussianBlur8288" />
    </filter>
  </defs>
  <sodipodi:namedview
     pagecolor="#ffffff"
     bordercolor="#666666"
     borderopacity="1"
     objecttolerance="10"
     gridtolerance="10"
     guidetolerance="10"
     inkscape:pageopacity="0"
     inkscape:pageshadow="2"
     inkscape:window-width="1920"
     inkscape:window-height="1142"
     id="namedview7"
     showgrid="false"
     inkscape:zoom="0.87422199"
     inkscape:cx="59.189552"
     inkscape:cy="202.86438"
     inkscape:window-x="0"
     inkscape:window-y="0"
     inkscape:window-maximized="1"
     inkscape:current-layer="svg6534" />
  <g
     transform="translate(-78,33), scale(0.8)"
     id="layer3"
     style="display:inline">
    <path
       d="m 435.64988,289.47018 c -12.33394,0 -22.41326,9.69394 -23.03125,21.875 l -121.9375,-0.22694 c -4.43702,0.0318 -5.34776,6.2322 -0.5,7.0625 l 126.375,7.25819 c 4.14867,6.10563 11.15189,10.125 19.09375,10.125 7.92634,0 14.91358,-4.00188 19.0625,-10.09375 l 126.9375,-7.28944 c 4.84776,-0.8303 3.93702,-7.0307 -0.5,-7.0625 l -122.46875,0.25819 c -0.6019,-12.19506 -10.68685,-21.90625 -23.03125,-21.90625 z"
       id="path7134"
       style="fill:#ffffff;fill-opacity:1;stroke:none" />
    <path
       d="m 382.64058,303.11984 c 4.38251,0.0518 102.16734,0.0518 106.54985,0 4.38251,-0.0518 5.82754,-6.6971 -0.25253,-7.17567 l -44.44671,-2.12492 c -3.68642,-0.66946 -4.02856,-2.28053 -4.29315,-4.3671 l -0.50508,-25.22318 c 0,-3.88798 -7.42864,-3.96105 -7.42864,0 l -0.50508,25.22318 c -0.26459,2.08657 -0.60673,3.69764 -4.29315,4.3671 l -44.57298,2.12492 c -6.08007,0.47857 -4.63504,7.12387 -0.25253,7.17567 z"
       id="path7318"
       style="fill:#000000;fill-opacity:0.60301508;stroke:none;filter:url(#filter7320)" />
    <path
       d="m 382.64058,299.50149 c 4.38251,0.0518 102.16734,0.0518 106.54985,0 4.38251,-0.0518 5.82754,-6.6971 -0.25253,-7.17567 l -44.44671,-2.12492 c -3.68642,-0.66946 -4.02856,-2.28053 -4.29315,-4.3671 l -0.50508,-25.22318 c 0,-3.88798 -7.42864,-3.96105 -7.42864,0 l -0.50508,25.22318 c -0.26459,2.08657 -0.60673,3.69764 -4.29315,4.3671 l -44.57298,2.12492 c -6.08007,0.47857 -4.63504,7.12387 -0.25253,7.17567 z"
       id="path7169"
       style="fill:#ffffff;fill-opacity:1;stroke:none" />
  </g>
  <g
     transform="matrix(1.1106743,0,0,1.1106743,6.0375869,132.31243)"
     style="display:inline"
     id="g8303"
     inkscape:transform-center-x="-6.5346367e-05"
     inkscape:transform-center-y="-12.019229">
    <path
       style="display:inline;fill:#000000;fill-opacity:1;stroke:none;stroke-width:0.1;stroke-miterlimit:4;stroke-dasharray:none;stroke-dashoffset:0;stroke-opacity:1;filter:url(#filter8286)"
       d="m 214.82009,114.48035 0,17.27091 -29.88453,0 0,4.2348 23.87307,0.90424 0.0272,0.18638 c -1.94661,2.13009 -3.12716,4.85152 -3.34424,7.72896 l -76.36739,1.29442 3e-5,3.7 78.42118,2.9663 c 2.37467,3.66212 6.44499,5.87502 10.80966,5.87966 4.36462,-0.004 8.43048,-2.21754 10.80512,-5.87966 l 78.42122,-2.9663 -3e-5,-3.7 -76.36739,-1.29442 c -0.21707,-2.87744 -1.39308,-5.59886 -3.33967,-7.72896 l 0.0272,-0.1864 23.86847,-0.90424 1e-5,-4.2348 -29.87993,0 1e-5,-17.27091 -3.53508,0 -3.53505,0 z"
       id="path4623-5"
       inkscape:connector-curvature="0"
       sodipodi:nodetypes="cccccccccccccccccccccccc"
       inkscape:transform-center-y="-12.000017" />
    <path
       style="display:inline;fill:#ffffff;fill-opacity:1;stroke:none;stroke-width:0.1;stroke-miterlimit:4;stroke-dasharray:none;stroke-dashoffset:0;stroke-opacity:1"
       d="m 214.82023,114.48029 0,17.27091 -29.88453,0 0,4.2348 23.87307,0.90424 0.0272,0.18638 c -1.94661,2.13009 -3.12716,4.85152 -3.34424,7.72896 l -76.36739,1.29442 3e-5,3.7 78.42118,2.9663 c 2.37467,3.66212 6.44499,5.87502 10.80966,5.87966 4.36462,-0.004 8.43048,-2.21754 10.80512,-5.87966 l 78.42122,-2.9663 -3e-5,-3.7 -76.36739,-1.29442 c -0.21707,-2.87744 -1.39308,-5.59886 -3.33967,-7.72896 l 0.0272,-0.1864 23.86847,-0.90424 1e-5,-4.2348 -29.87993,0 1e-5,-17.27091 -3.53508,0 -3.53505,0 z"
       id="path4623"
       inkscape:connector-curvature="0"
       sodipodi:nodetypes="cccccccccccccccccccccccc"
       inkscape:transform-center-y="-12.019548" />
  </g>
</svg>
