<?xml version="1.0" encoding="UTF-8" standalone="no"?>
<svg
   xmlns:osb="http://www.openswatchbook.org/uri/2009/osb"
   xmlns:dc="http://purl.org/dc/elements/1.1/"
   xmlns:cc="http://creativecommons.org/ns#"
   xmlns:rdf="http://www.w3.org/1999/02/22-rdf-syntax-ns#"
   xmlns:svg="http://www.w3.org/2000/svg"
   xmlns="http://www.w3.org/2000/svg"
   xmlns:xlink="http://www.w3.org/1999/xlink"
   xmlns:sodipodi="http://sodipodi.sourceforge.net/DTD/sodipodi-0.dtd"
   xmlns:inkscape="http://www.inkscape.org/namespaces/inkscape"
   version="1.1"
   id="Layer_2"
   x="0px"
   y="0px"
   width="400.667px"
   height="400.666px"
   viewBox="0 0 400.667 400.666"
   enable-background="new 0 0 400.667 400.666"
   xml:space="preserve"
   inkscape:version="0.91 r13725"
   sodipodi:docname="heading_yaw.svg"><metadata
     id="metadata213"><rdf:RDF><cc:Work
         rdf:about=""><dc:format>image/svg+xml</dc:format><dc:type
           rdf:resource="http://purl.org/dc/dcmitype/StillImage" /></cc:Work></rdf:RDF></metadata><defs
     id="defs211"><linearGradient
       gradientTransform="matrix(1.183726,0,0,1.183726,-26.207062,-21.790107)"
       inkscape:collect="always"
       xlink:href="#linearGradient5786"
       id="linearGradient5945"
       gradientUnits="userSpaceOnUse"
       x1="280.22632"
       y1="115.96942"
       x2="191.42857"
       y2="187.36218" /><linearGradient
       id="linearGradient5786"
       osb:paint="gradient"><stop
         style="stop-color:#363636;stop-opacity:1;"
         offset="0"
         id="stop5788" /><stop
         style="stop-color:#000000;stop-opacity:1;"
         offset="1"
         id="stop5790" /></linearGradient><radialGradient
       gradientTransform="matrix(2.2213482,0,0,2.2213482,-430.76591,-376.75254)"
       inkscape:collect="always"
       xlink:href="#linearGradient5927"
       id="radialGradient5933"
       cx="284.28571"
       cy="259.72156"
       fx="284.28571"
       fy="259.72156"
       r="69.336487"
       gradientUnits="userSpaceOnUse" /><linearGradient
       inkscape:collect="always"
       id="linearGradient5927"><stop
         style="stop-color:#000000;stop-opacity:1;"
         offset="0"
         id="stop5929" /><stop
         style="stop-color:#323232;stop-opacity:1"
         offset="1"
         id="stop5931" /></linearGradient></defs><sodipodi:namedview
     pagecolor="#ffffff"
     bordercolor="#666666"
     borderopacity="1"
     objecttolerance="10"
     gridtolerance="10"
     guidetolerance="10"
     inkscape:pageopacity="0"
     inkscape:pageshadow="2"
     inkscape:window-width="1920"
     inkscape:window-height="1027"
     id="namedview209"
     showgrid="false"
     inkscape:zoom="0.83299909"
     inkscape:cx="140.85241"
     inkscape:cy="115.85355"
     inkscape:window-x="-8"
     inkscape:window-y="-8"
     inkscape:window-maximized="1"
     inkscape:current-layer="Layer_2" /><line
     fill="none"
     stroke="#FFFFFF"
     stroke-width="2"
     stroke-miterlimit="10"
     x1="200.333"
     y1="350.099"
     x2="200.333"
     y2="326.667"
     id="line5" /><line
     fill="none"
     stroke="#FFFFFF"
     stroke-width="2"
     stroke-miterlimit="10"
     x1="213.416"
     y1="349.528"
     x2="212.023"
     y2="333.609"
     id="line7" /><line
     fill="none"
     stroke="#FFFFFF"
     stroke-width="2"
     stroke-miterlimit="10"
     x1="239.182"
     y1="344.985"
     x2="235.046"
     y2="329.55"
     id="line9" /><line
     fill="none"
     stroke="#FFFFFF"
     stroke-width="2"
     stroke-miterlimit="10"
     x1="263.768"
     y1="336.036"
     x2="257.015"
     y2="321.554"
     id="line11" /><line
     fill="none"
     stroke="#FFFFFF"
     stroke-width="2"
     stroke-miterlimit="10"
     x1="286.427"
     y1="322.955"
     x2="277.261"
     y2="309.865"
     id="line13" /><line
     fill="none"
     stroke="#FFFFFF"
     stroke-width="2"
     stroke-miterlimit="10"
     x1="306.47"
     y1="306.137"
     x2="295.17"
     y2="294.837"
     id="line15" /><line
     fill="none"
     stroke="#FFFFFF"
     stroke-width="2"
     stroke-miterlimit="10"
     x1="323.289"
     y1="286.094"
     x2="310.198"
     y2="276.929"
     id="line17" /><line
     fill="none"
     stroke="#FFFFFF"
     stroke-width="2"
     stroke-miterlimit="10"
     x1="336.371"
     y1="263.436"
     x2="321.887"
     y2="256.683"
     id="line19" /><line
     fill="none"
     stroke="#FFFFFF"
     stroke-width="2"
     stroke-miterlimit="10"
     x1="345.32"
     y1="238.85"
     x2="329.883"
     y2="234.714"
     id="line21" /><line
     fill="none"
     stroke="#FFFFFF"
     stroke-width="2"
     stroke-miterlimit="10"
     x1="349.864"
     y1="213.083"
     x2="333.943"
     y2="211.691"
     id="line23" /><line
     fill="none"
     stroke="#FFFFFF"
     stroke-width="2"
     stroke-miterlimit="10"
     x1="349.864"
     y1="186.918"
     x2="333.944"
     y2="188.313"
     id="line25" /><line
     fill="none"
     stroke="#FFFFFF"
     stroke-width="2"
     stroke-miterlimit="10"
     x1="345.321"
     y1="161.151"
     x2="329.885"
     y2="165.289"
     id="line27" /><line
     fill="none"
     stroke="#FFFFFF"
     stroke-width="2"
     stroke-miterlimit="10"
     x1="336.373"
     y1="136.565"
     x2="321.89"
     y2="143.32"
     id="line29" /><line
     fill="none"
     stroke="#FFFFFF"
     stroke-width="2"
     stroke-miterlimit="10"
     x1="323.291"
     y1="113.906"
     x2="310.202"
     y2="123.073"
     id="line31" /><line
     fill="none"
     stroke="#FFFFFF"
     stroke-width="2"
     stroke-miterlimit="10"
     x1="306.472"
     y1="93.863"
     x2="295.174"
     y2="105.163"
     id="line33" /><line
     fill="none"
     stroke="#FFFFFF"
     stroke-width="2"
     stroke-miterlimit="10"
     x1="286.429"
     y1="77.045"
     x2="277.265"
     y2="90.135"
     id="line35" /><line
     fill="none"
     stroke="#FFFFFF"
     stroke-width="2"
     stroke-miterlimit="10"
     x1="263.771"
     y1="63.962"
     x2="257.019"
     y2="78.446"
     id="line37" /><line
     fill="none"
     stroke="#FFFFFF"
     stroke-width="2"
     stroke-miterlimit="10"
     x1="239.185"
     y1="55.013"
     x2="235.05"
     y2="70.449"
     id="line39" /><line
     fill="none"
     stroke="#FFFFFF"
     stroke-width="2"
     stroke-miterlimit="10"
     x1="213.418"
     y1="50.469"
     x2="212.027"
     y2="66.389"
     id="line41" /><line
     fill="none"
     stroke="#FFFFFF"
     stroke-width="2"
     stroke-miterlimit="10"
     x1="187.254"
     y1="50.469"
     x2="188.648"
     y2="66.388"
     id="line43" /><line
     fill="none"
     stroke="#FFFFFF"
     stroke-width="2"
     stroke-miterlimit="10"
     x1="161.488"
     y1="55.012"
     x2="165.625"
     y2="70.447"
     id="line45" /><line
     fill="none"
     stroke="#FFFFFF"
     stroke-width="2"
     stroke-miterlimit="10"
     x1="136.901"
     y1="63.96"
     x2="143.656"
     y2="78.443"
     id="line47" /><line
     fill="none"
     stroke="#FFFFFF"
     stroke-width="2"
     stroke-miterlimit="10"
     x1="114.242"
     y1="77.042"
     x2="123.409"
     y2="90.131"
     id="line49" /><line
     fill="none"
     stroke="#FFFFFF"
     stroke-width="2"
     stroke-miterlimit="10"
     x1="94.199"
     y1="93.86"
     x2="105.499"
     y2="105.159"
     id="line51" /><line
     fill="none"
     stroke="#FFFFFF"
     stroke-width="2"
     stroke-miterlimit="10"
     x1="77.38"
     y1="113.903"
     x2="90.47"
     y2="123.067"
     id="line53" /><line
     fill="none"
     stroke="#FFFFFF"
     stroke-width="2"
     stroke-miterlimit="10"
     x1="64.298"
     y1="136.562"
     x2="78.781"
     y2="143.314"
     id="line55" /><line
     fill="none"
     stroke="#FFFFFF"
     stroke-width="2"
     stroke-miterlimit="10"
     x1="55.349"
     y1="161.148"
     x2="70.785"
     y2="165.283"
     id="line57" /><line
     fill="none"
     stroke="#FFFFFF"
     stroke-width="2"
     stroke-miterlimit="10"
     x1="50.805"
     y1="186.915"
     x2="66.724"
     y2="188.306"
     id="line59" /><line
     fill="none"
     stroke="#FFFFFF"
     stroke-width="2"
     stroke-miterlimit="10"
     x1="50.804"
     y1="213.079"
     x2="66.723"
     y2="211.685"
     id="line61" /><line
     fill="none"
     stroke="#FFFFFF"
     stroke-width="2"
     stroke-miterlimit="10"
     x1="55.347"
     y1="238.845"
     x2="70.783"
     y2="234.709"
     id="line63" /><line
     fill="none"
     stroke="#FFFFFF"
     stroke-width="2"
     stroke-miterlimit="10"
     x1="64.295"
     y1="263.432"
     x2="78.778"
     y2="256.678"
     id="line65" /><line
     fill="none"
     stroke="#FFFFFF"
     stroke-width="2"
     stroke-miterlimit="10"
     x1="77.376"
     y1="286.091"
     x2="90.466"
     y2="276.925"
     id="line67" /><line
     fill="none"
     stroke="#FFFFFF"
     stroke-width="2"
     stroke-miterlimit="10"
     x1="94.194"
     y1="306.135"
     x2="105.494"
     y2="294.834"
     id="line69" /><line
     fill="none"
     stroke="#FFFFFF"
     stroke-width="2"
     stroke-miterlimit="10"
     x1="114.237"
     y1="322.954"
     x2="123.402"
     y2="309.863"
     id="line71" /><line
     fill="none"
     stroke="#FFFFFF"
     stroke-width="2"
     stroke-miterlimit="10"
     x1="136.895"
     y1="336.037"
     x2="143.648"
     y2="321.553"
     id="line73" /><line
     fill="none"
     stroke="#FFFFFF"
     stroke-width="2"
     stroke-miterlimit="10"
     x1="161.481"
     y1="344.986"
     x2="165.617"
     y2="329.549"
     id="line75" /><line
     fill="none"
     stroke="#FFFFFF"
     stroke-width="2"
     stroke-miterlimit="10"
     x1="187.248"
     y1="349.53"
     x2="188.64"
     y2="333.61"
     id="line77" /><line
     fill="none"
     stroke="#FFFFFF"
     stroke-width="2"
     stroke-miterlimit="10"
     x1="226.398"
     y1="347.819"
     x2="222.33"
     y2="324.742"
     id="line79" /><line
     fill="none"
     stroke="#FFFFFF"
     stroke-width="2"
     stroke-miterlimit="10"
     x1="251.67"
     y1="341.047"
     x2="243.657"
     y2="319.028"
     id="line81" /><line
     fill="none"
     stroke="#FFFFFF"
     stroke-width="2"
     stroke-miterlimit="10"
     x1="275.383"
     y1="329.99"
     x2="263.667"
     y2="309.697"
     id="line83" /><line
     fill="none"
     stroke="#FFFFFF"
     stroke-width="2"
     stroke-miterlimit="10"
     x1="296.816"
     y1="314.983"
     x2="281.754"
     y2="297.033"
     id="line85" /><line
     fill="none"
     stroke="#FFFFFF"
     stroke-width="2"
     stroke-miterlimit="10"
     x1="315.317"
     y1="296.483"
     x2="297.367"
     y2="281.42"
     id="line87" /><line
     fill="none"
     stroke="#FFFFFF"
     stroke-width="2"
     stroke-miterlimit="10"
     x1="330.324"
     y1="275.05"
     x2="310.031"
     y2="263.333"
     id="line89" /><line
     fill="none"
     stroke="#FFFFFF"
     stroke-width="2"
     stroke-miterlimit="10"
     x1="341.381"
     y1="251.337"
     x2="319.363"
     y2="243.323"
     id="line91" /><line
     fill="none"
     stroke="#FFFFFF"
     stroke-width="2"
     stroke-miterlimit="10"
     x1="348.153"
     y1="226.065"
     x2="325.078"
     y2="221.996"
     id="line93" /><line
     fill="none"
     stroke="#FFFFFF"
     stroke-width="2"
     stroke-miterlimit="10"
     x1="350.433"
     y1="200"
     x2="327.001"
     y2="200"
     id="line95" /><line
     fill="none"
     stroke="#FFFFFF"
     stroke-width="2"
     stroke-miterlimit="10"
     x1="348.153"
     y1="173.936"
     x2="325.078"
     y2="178.004"
     id="line97" /><line
     fill="none"
     stroke="#FFFFFF"
     stroke-width="2"
     stroke-miterlimit="10"
     x1="341.381"
     y1="148.664"
     x2="319.363"
     y2="156.677"
     id="line99" /><line
     fill="none"
     stroke="#FFFFFF"
     stroke-width="2"
     stroke-miterlimit="10"
     x1="330.324"
     y1="124.951"
     x2="310.032"
     y2="136.667"
     id="line101" /><line
     fill="none"
     stroke="#FFFFFF"
     stroke-width="2"
     stroke-miterlimit="10"
     x1="315.317"
     y1="103.519"
     x2="297.368"
     y2="118.58"
     id="line103" /><line
     fill="none"
     stroke="#FFFFFF"
     stroke-width="2"
     stroke-miterlimit="10"
     x1="296.816"
     y1="85.018"
     x2="281.755"
     y2="102.967"
     id="line105" /><line
     fill="none"
     stroke="#FFFFFF"
     stroke-width="2"
     stroke-miterlimit="10"
     x1="275.384"
     y1="70.011"
     x2="263.668"
     y2="90.303"
     id="line107" /><line
     fill="none"
     stroke="#FFFFFF"
     stroke-width="2"
     stroke-miterlimit="10"
     x1="251.672"
     y1="58.954"
     x2="243.658"
     y2="80.971"
     id="line109" /><line
     fill="none"
     stroke="#FFFFFF"
     stroke-width="2"
     stroke-miterlimit="10"
     x1="226.4"
     y1="52.182"
     x2="222.331"
     y2="75.256"
     id="line111" /><line
     fill="none"
     stroke="#FFFFFF"
     stroke-width="2"
     stroke-miterlimit="10"
     x1="200.335"
     y1="49.901"
     x2="200.334"
     y2="73.332"
     id="line113" /><line
     fill="none"
     stroke="#FFFFFF"
     stroke-width="2"
     stroke-miterlimit="10"
     x1="174.271"
     y1="52.181"
     x2="178.339"
     y2="75.256"
     id="line115" /><line
     fill="none"
     stroke="#FFFFFF"
     stroke-width="2"
     stroke-miterlimit="10"
     x1="148.999"
     y1="58.953"
     x2="157.012"
     y2="80.971"
     id="line117" /><line
     fill="none"
     stroke="#FFFFFF"
     stroke-width="2"
     stroke-miterlimit="10"
     x1="125.286"
     y1="70.01"
     x2="137.001"
     y2="90.302"
     id="line119" /><line
     fill="none"
     stroke="#FFFFFF"
     stroke-width="2"
     stroke-miterlimit="10"
     x1="103.853"
     y1="85.017"
     x2="118.915"
     y2="102.966"
     id="line121" /><line
     fill="none"
     stroke="#FFFFFF"
     stroke-width="2"
     stroke-miterlimit="10"
     x1="85.352"
     y1="103.517"
     x2="103.302"
     y2="118.579"
     id="line123" /><line
     fill="none"
     stroke="#FFFFFF"
     stroke-width="2"
     stroke-miterlimit="10"
     x1="70.345"
     y1="124.949"
     x2="90.638"
     y2="136.665"
     id="line125" /><line
     fill="none"
     stroke="#FFFFFF"
     stroke-width="2"
     stroke-miterlimit="10"
     x1="59.288"
     y1="148.662"
     x2="81.307"
     y2="156.676"
     id="line127" /><line
     fill="none"
     stroke="#FFFFFF"
     stroke-width="2"
     stroke-miterlimit="10"
     x1="52.515"
     y1="173.934"
     x2="75.592"
     y2="178.002"
     id="line129" /><line
     fill="none"
     stroke="#FFFFFF"
     stroke-width="2"
     stroke-miterlimit="10"
     x1="50.235"
     y1="199.999"
     x2="73.667"
     y2="199.998"
     id="line131" /><line
     fill="none"
     stroke="#FFFFFF"
     stroke-width="2"
     stroke-miterlimit="10"
     x1="52.515"
     y1="226.063"
     x2="75.591"
     y2="221.993"
     id="line133" /><line
     fill="none"
     stroke="#FFFFFF"
     stroke-width="2"
     stroke-miterlimit="10"
     x1="59.287"
     y1="251.335"
     x2="81.306"
     y2="243.32"
     id="line135" /><line
     fill="none"
     stroke="#FFFFFF"
     stroke-width="2"
     stroke-miterlimit="10"
     x1="70.343"
     y1="275.048"
     x2="90.637"
     y2="263.331"
     id="line137" /><line
     fill="none"
     stroke="#FFFFFF"
     stroke-width="2"
     stroke-miterlimit="10"
     x1="85.35"
     y1="296.481"
     x2="103.301"
     y2="281.417"
     id="line139" /><line
     fill="none"
     stroke="#FFFFFF"
     stroke-width="2"
     stroke-miterlimit="10"
     x1="103.851"
     y1="314.982"
     x2="118.914"
     y2="297.03"
     id="line141" /><line
     fill="none"
     stroke="#FFFFFF"
     stroke-width="2"
     stroke-miterlimit="10"
     x1="125.284"
     y1="329.989"
     x2="137"
     y2="309.695"
     id="line143" /><line
     fill="none"
     stroke="#FFFFFF"
     stroke-width="2"
     stroke-miterlimit="10"
     x1="148.997"
     y1="341.047"
     x2="157.01"
     y2="319.026"
     id="line145" /><line
     fill="none"
     stroke="#FFFFFF"
     stroke-width="2"
     stroke-miterlimit="10"
     x1="174.269"
     y1="347.819"
     x2="178.337"
     y2="324.741"
     id="line147" /><g
     id="g149"><path
       fill="#FFFFFF"
       stroke="#FFFFFF"
       stroke-miterlimit="10"
       d="M192.637,101.333V79.786h0.469l14.341,16.518V79.786h2.124v21.548   h-0.483l-14.224-16.316v16.316H192.637z"
       id="path151" /></g><g
     id="g153"><path
       fill="#FFFFFF"
       stroke="#FFFFFF"
       stroke-miterlimit="10"
       d="M135.018,109.119l-1.585,0.916   c-0.452-1.449-0.468-2.755-0.05-3.919c0.419-1.162,1.186-2.064,2.299-2.708c0.811-0.468,1.674-0.719,2.588-0.754   c0.915-0.035,1.746,0.15,2.492,0.556c0.746,0.406,1.316,0.95,1.711,1.634c0.773,1.339,0.72,2.784-0.161,4.336   c0.923-0.128,1.792-0.038,2.608,0.27c1.153,0.434,2.024,1.162,2.614,2.184c0.509,0.882,0.762,1.856,0.759,2.925   c-0.004,1.068-0.281,2.053-0.832,2.954c-0.552,0.9-1.324,1.638-2.317,2.211c-1.34,0.773-2.68,1.032-4.02,0.778   c-1.341-0.256-2.579-1.051-3.718-2.387l1.522-0.879c0.851,0.854,1.655,1.362,2.416,1.523c0.971,0.201,1.953,0.014,2.946-0.56   c1.128-0.651,1.838-1.512,2.131-2.584c0.293-1.07,0.178-2.061-0.347-2.97c-0.351-0.606-0.849-1.075-1.496-1.406   s-1.335-0.465-2.063-0.401c-0.729,0.064-1.715,0.412-2.957,1.044l-0.823-1.427c0.712-0.411,1.287-0.91,1.729-1.498   c0.44-0.588,0.681-1.152,0.721-1.692c0.041-0.54-0.07-1.039-0.335-1.498c-0.391-0.676-0.998-1.105-1.822-1.288   c-0.824-0.182-1.648-0.034-2.473,0.441c-0.67,0.387-1.139,0.909-1.408,1.566C134.879,107.144,134.836,108.021,135.018,109.119z"
       id="path155" /><path
       fill="#FFFFFF"
       stroke="#FFFFFF"
       stroke-miterlimit="10"
       d="M147.018,102.192l-1.586,0.915   c-0.452-1.449-0.469-2.755-0.05-3.918c0.419-1.163,1.185-2.065,2.298-2.708c0.811-0.468,1.674-0.719,2.588-0.754   c0.916-0.034,1.746,0.151,2.492,0.556c0.747,0.406,1.317,0.95,1.712,1.633c0.773,1.34,0.72,2.785-0.161,4.336   c0.922-0.128,1.791-0.038,2.608,0.27c1.153,0.434,2.024,1.162,2.614,2.184c0.509,0.881,0.762,1.856,0.758,2.924   c-0.003,1.068-0.28,2.053-0.832,2.954c-0.551,0.9-1.323,1.638-2.317,2.212c-1.339,0.773-2.679,1.032-4.019,0.777   c-1.342-0.256-2.58-1.05-3.718-2.386l1.522-0.879c0.85,0.854,1.654,1.362,2.416,1.523c0.971,0.201,1.953,0.015,2.947-0.56   c1.127-0.65,1.838-1.512,2.131-2.583c0.292-1.071,0.177-2.061-0.349-2.97c-0.35-0.606-0.849-1.075-1.495-1.406   s-1.335-0.465-2.064-0.401c-0.729,0.064-1.714,0.412-2.955,1.044l-0.824-1.427c0.711-0.411,1.287-0.91,1.729-1.498   c0.439-0.588,0.681-1.152,0.721-1.692c0.041-0.54-0.071-1.039-0.336-1.498c-0.391-0.676-0.998-1.105-1.821-1.288   c-0.824-0.182-1.648-0.035-2.474,0.441c-0.669,0.387-1.138,0.909-1.406,1.566C146.877,100.216,146.834,101.094,147.018,102.192z"
       id="path157" /></g><g
     id="g159"><path
       fill="#FFFFFF"
       stroke="#FFFFFF"
       stroke-miterlimit="10"
       d="M98.427,152.854l-0.915,1.585   c-1.116-1.029-1.783-2.152-2.003-3.369c-0.218-1.216-0.006-2.381,0.637-3.495c0.468-0.81,1.09-1.459,1.864-1.947   c0.775-0.487,1.587-0.742,2.436-0.764c0.85-0.022,1.615,0.165,2.299,0.559c1.34,0.773,2.016,2.052,2.029,3.835   c0.734-0.572,1.532-0.928,2.394-1.07c1.215-0.2,2.334-0.006,3.355,0.584c0.882,0.509,1.588,1.227,2.119,2.154   s0.783,1.918,0.757,2.974c-0.027,1.056-0.328,2.08-0.901,3.074c-0.773,1.339-1.805,2.233-3.092,2.683   c-1.29,0.45-2.76,0.38-4.413-0.208l0.879-1.522c1.163,0.314,2.114,0.352,2.854,0.111c0.941-0.312,1.699-0.965,2.273-1.958   c0.65-1.127,0.835-2.229,0.553-3.303c-0.281-1.074-0.877-1.875-1.786-2.399c-0.606-0.35-1.272-0.507-1.998-0.47   c-0.726,0.037-1.388,0.265-1.988,0.685c-0.599,0.42-1.278,1.214-2.038,2.382l-1.427-0.824c0.411-0.712,0.66-1.433,0.748-2.162   c0.087-0.729,0.014-1.338-0.222-1.826c-0.234-0.488-0.581-0.864-1.04-1.129c-0.676-0.391-1.417-0.458-2.222-0.205   c-0.805,0.255-1.444,0.794-1.921,1.619c-0.387,0.67-0.531,1.356-0.436,2.06C97.319,151.214,97.72,151.996,98.427,152.854z"
       id="path161" /><path
       fill="#FFFFFF"
       stroke="#FFFFFF"
       stroke-miterlimit="10"
       d="M108.273,145.444c-2.051-1.184-3.509-2.319-4.376-3.407   c-0.866-1.087-1.355-2.199-1.471-3.336c-0.113-1.137,0.116-2.203,0.69-3.196c0.581-1.008,1.399-1.752,2.452-2.235   c1.054-0.481,2.299-0.625,3.736-0.429c1.438,0.196,3.137,0.859,5.096,1.991c1.952,1.127,3.371,2.259,4.256,3.395   c0.886,1.136,1.385,2.286,1.497,3.451s-0.122,2.25-0.704,3.258c-0.574,0.993-1.377,1.724-2.407,2.19   c-1.03,0.467-2.24,0.598-3.63,0.392S110.31,146.62,108.273,145.444z M109.148,143.99c1.757,1.014,3.175,1.624,4.255,1.83   c1.08,0.205,2.03,0.136,2.85-0.209c0.82-0.344,1.427-0.858,1.821-1.542c0.398-0.691,0.544-1.467,0.435-2.329   c-0.108-0.861-0.529-1.71-1.26-2.546c-0.884-1.027-2.104-1.99-3.663-2.89c-1.566-0.904-2.948-1.471-4.146-1.703   c-1.197-0.23-2.203-0.175-3.017,0.168c-0.814,0.342-1.417,0.852-1.808,1.529c-0.398,0.691-0.542,1.473-0.43,2.345   c0.112,0.874,0.526,1.728,1.243,2.564C106.145,142.044,107.385,142.972,109.148,143.99z"
       id="path163" /></g><g
     id="g165"><path
       fill="#FFFFFF"
       stroke="#FFFFFF"
       stroke-miterlimit="10"
       d="M109.917,264.448l0.86,1.49c-1.558,0.843-3.112,1.057-4.665,0.643   c-1.552-0.414-2.745-1.344-3.579-2.789c-0.826-1.431-1.033-2.855-0.619-4.272c0.412-1.418,1.246-2.489,2.501-3.214   c0.882-0.509,1.83-0.775,2.846-0.799c1.016-0.025,2.534,0.191,4.554,0.646l6.408,1.466l-4.143-7.175l1.502-0.866l6.097,10.561   l-9.851-2.234c-1.987-0.459-3.397-0.69-4.23-0.693c-0.834-0.002-1.597,0.196-2.288,0.596c-0.874,0.504-1.439,1.265-1.694,2.281   s-0.109,1.997,0.436,2.941c0.574,0.993,1.383,1.628,2.425,1.905C107.52,265.209,108.667,265.047,109.917,264.448z"
       id="path167" /><path
       fill="#FFFFFF"
       stroke="#FFFFFF"
       stroke-miterlimit="10"
       d="M93.859,248.767l-0.182-0.315l10.846-6.262l-1.086-1.882   l1.48-0.854l1.086,1.882l3.616-2.087l0.891,1.543l-3.616,2.088l4.297,7.441L93.859,248.767z M105.415,243.733l-6.531,3.771   l9.191,0.836L105.415,243.733z"
       id="path169" /></g><g
     id="g171"><path
       fill="#FFFFFF"
       stroke="#FFFFFF"
       stroke-miterlimit="10"
       d="M153.804,300.688l1.491,0.86c-0.928,1.509-2.167,2.472-3.72,2.889   c-1.551,0.417-3.049,0.208-4.494-0.626c-1.431-0.826-2.322-1.955-2.673-3.391c-0.352-1.434-0.165-2.778,0.56-4.033   c0.509-0.882,1.198-1.586,2.065-2.115s2.29-1.102,4.267-1.718l6.282-1.935l-7.174-4.142l0.867-1.502l10.561,6.098l-9.648,2.991   c-1.951,0.595-3.288,1.1-4.011,1.514c-0.723,0.415-1.284,0.969-1.683,1.66c-0.505,0.873-0.614,1.815-0.326,2.823   c0.287,1.007,0.903,1.784,1.847,2.329c0.994,0.573,2.012,0.719,3.053,0.438C152.109,302.546,153.021,301.833,153.804,300.688z"
       id="path173" /><path
       fill="#FFFFFF"
       stroke="#FFFFFF"
       stroke-miterlimit="10"
       d="M137.497,297.756l-3.055-1.764l8.978-15.551l1.543,0.891   l-8.1,14.029l2.442,1.409L137.497,297.756z"
       id="path175" /></g><g
     id="g177"><path
       fill="#FFFFFF"
       stroke="#FFFFFF"
       stroke-miterlimit="10"
       d="M265.364,296.643l-3.056,1.764l-8.979-15.551l1.544-0.892   l8.099,14.029l2.442-1.41L265.364,296.643z"
       id="path179" /><path
       fill="#FFFFFF"
       stroke="#FFFFFF"
       stroke-miterlimit="10"
       d="M248.674,306.278l-0.854-1.479l5.525-3.19l-1.67-4.689   c-0.562,0.588-1.112,1.038-1.655,1.352c-1.415,0.817-2.855,1.017-4.321,0.6c-1.466-0.418-2.627-1.366-3.481-2.847   c-0.59-1.021-0.895-2.096-0.915-3.221c-0.021-1.126,0.242-2.148,0.787-3.069c0.544-0.921,1.345-1.686,2.402-2.296   c1.262-0.729,2.548-0.957,3.86-0.686c1.313,0.272,2.408,0.971,3.285,2.1l-1.597,0.922c-0.466-0.53-0.949-0.899-1.45-1.108   c-0.501-0.209-1.055-0.291-1.664-0.245c-0.607,0.046-1.172,0.219-1.693,0.52c-1.021,0.59-1.676,1.484-1.963,2.681   c-0.285,1.198-0.093,2.376,0.578,3.538c0.604,1.048,1.428,1.709,2.468,1.981c1.041,0.272,2.114,0.089,3.221-0.55   c0.916-0.529,1.865-1.449,2.848-2.758l3.024,8.558L248.674,306.278z"
       id="path181" /></g><g
     id="g183"><path
       fill="#FFFFFF"
       stroke="#FFFFFF"
       stroke-miterlimit="10"
       d="M305.018,250.334l-1.765,3.056l-15.551-8.979l0.892-1.543   l14.028,8.099l1.41-2.442L305.018,250.334z"
       id="path185" /><path
       fill="#FFFFFF"
       stroke="#FFFFFF"
       stroke-miterlimit="10"
       d="M295.219,256.076l0.86-1.49c1.509,0.928,2.472,2.167,2.889,3.719   c0.417,1.551,0.209,3.05-0.626,4.495c-0.825,1.431-1.955,2.322-3.391,2.672c-1.434,0.352-2.778,0.165-4.033-0.56   c-0.881-0.509-1.586-1.197-2.115-2.064c-0.528-0.868-1.102-2.29-1.718-4.267l-1.935-6.282l-4.142,7.174l-1.501-0.867l6.097-10.561   l2.991,9.648c0.595,1.95,1.1,3.287,1.514,4.011c0.416,0.724,0.969,1.284,1.66,1.684c0.874,0.505,1.815,0.614,2.823,0.326   c1.008-0.287,1.784-0.903,2.329-1.848c0.574-0.993,0.719-2.012,0.438-3.053C297.078,257.771,296.364,256.859,295.219,256.076z"
       id="path187" /></g><g
     id="g189"><path
       fill="#FFFFFF"
       stroke="#FFFFFF"
       stroke-miterlimit="10"
       d="M302.287,142.898l-0.097,1.762l-8.791-0.532   c0.516,0.455,0.916,0.929,1.201,1.423c0.713,1.235,0.873,2.541,0.479,3.917c-0.395,1.376-1.244,2.44-2.547,3.193   c-0.896,0.517-1.824,0.775-2.787,0.776s-1.879-0.259-2.747-0.778c-0.868-0.519-1.557-1.22-2.066-2.102   c-0.493-0.854-0.744-1.765-0.753-2.733c-0.01-0.968,0.239-1.876,0.746-2.724s1.187-1.518,2.039-2.01   c0.635-0.366,1.376-0.623,2.227-0.77c0.85-0.147,1.96-0.174,3.33-0.08L302.287,142.898z M293.023,145.97   c-0.522-0.903-1.286-1.491-2.292-1.762c-1.007-0.27-1.964-0.143-2.874,0.383c-0.902,0.521-1.488,1.284-1.757,2.291   c-0.269,1.008-0.142,1.963,0.379,2.866s1.286,1.491,2.292,1.762c1.007,0.271,1.961,0.146,2.863-0.376   c0.909-0.524,1.498-1.291,1.767-2.298S293.545,146.873,293.023,145.97z"
       id="path191" /></g><g
     id="g193"><path
       fill="#FFFFFF"
       stroke="#FFFFFF"
       stroke-miterlimit="10"
       d="M252.478,100.756l-1.585-0.915   c1.029-1.116,2.152-1.783,3.369-2.003c1.216-0.218,2.381-0.006,3.495,0.637c0.81,0.468,1.459,1.09,1.947,1.864   c0.487,0.775,0.742,1.587,0.764,2.436c0.022,0.85-0.165,1.615-0.559,2.299c-0.773,1.34-2.052,2.016-3.835,2.029   c0.572,0.734,0.928,1.532,1.07,2.394c0.2,1.215,0.006,2.334-0.584,3.355c-0.509,0.882-1.227,1.588-2.154,2.119   s-1.918,0.783-2.974,0.757c-1.056-0.027-2.08-0.328-3.074-0.901c-1.339-0.773-2.233-1.805-2.683-3.092   c-0.45-1.29-0.38-2.76,0.208-4.413l1.522,0.879c-0.314,1.163-0.352,2.114-0.111,2.854c0.312,0.941,0.965,1.699,1.958,2.273   c1.127,0.65,2.229,0.835,3.303,0.553c1.074-0.281,1.875-0.877,2.399-1.786c0.35-0.606,0.507-1.272,0.47-1.998   c-0.037-0.726-0.265-1.388-0.685-1.988c-0.42-0.599-1.214-1.278-2.382-2.038l0.824-1.427c0.712,0.411,1.433,0.66,2.162,0.748   c0.729,0.087,1.338,0.014,1.826-0.222c0.488-0.234,0.864-0.581,1.129-1.04c0.391-0.676,0.458-1.417,0.205-2.222   c-0.255-0.805-0.794-1.444-1.619-1.921c-0.67-0.387-1.356-0.531-2.06-0.436C254.118,99.647,253.336,100.049,252.478,100.756z"
       id="path195" /></g><g
     id="g197"><path
       fill="#FFFFFF"
       stroke="#FFFFFF"
       stroke-miterlimit="10"
       d="M80.119,212.927v-2.212l15.527-4.402l-15.527-6.177v-0.447   l15.527-6.105l-15.527-4.477v-2.195l21.548,6.191v0.4l-16.304,6.394l16.304,6.519v0.402L80.119,212.927z"
       id="path199" /></g><g
     id="g201"><path
       fill="#FFFFFF"
       stroke="#FFFFFF"
       stroke-miterlimit="10"
       d="M206.271,302.679l-1.831,1.099   c-1.289-2.373-2.778-3.56-4.468-3.56c-0.723,0-1.401,0.168-2.036,0.505s-1.118,0.789-1.45,1.355s-0.498,1.167-0.498,1.802   c0,0.723,0.244,1.431,0.732,2.124c0.674,0.957,1.904,2.109,3.691,3.457c1.797,1.357,2.915,2.339,3.354,2.944   c0.762,1.016,1.143,2.114,1.143,3.296c0,0.938-0.225,1.792-0.674,2.563s-1.082,1.379-1.897,1.824s-1.702,0.667-2.659,0.667   c-1.016,0-1.965-0.251-2.849-0.754s-1.819-1.428-2.805-2.776l1.758-1.333c0.811,1.074,1.501,1.782,2.073,2.124   s1.194,0.513,1.868,0.513c0.869,0,1.58-0.264,2.131-0.791s0.828-1.177,0.828-1.948c0-0.469-0.098-0.923-0.293-1.362   s-0.552-0.918-1.069-1.436c-0.283-0.273-1.211-0.991-2.783-2.153c-1.865-1.377-3.145-2.603-3.838-3.677s-1.04-2.153-1.04-3.237   c0-1.563,0.593-2.92,1.78-4.072s2.629-1.729,4.329-1.729c1.309,0,2.495,0.349,3.56,1.047S205.373,301.039,206.271,302.679z"
       id="path203" /></g><g
     id="g205"><path
       fill="#FFFFFF"
       stroke="#FFFFFF"
       stroke-miterlimit="10"
       d="M320.547,193.303v12.349h-2.109v-10.195h-6.753v10.107h-2.109   v-10.107h-8.467v10.107H299v-12.261H320.547z"
       id="path207" /></g><circle
     r="152.98428"
     cy="200.17946"
     cx="200.7316"
     id="path5795"
     style="display:inline;fill:url(#radialGradient5933);fill-opacity:1;fill-rule:evenodd;stroke:none;stroke-width:0.9329446;stroke-linecap:butt;stroke-linejoin:miter;stroke-miterlimit:4;stroke-dasharray:none;stroke-dashoffset:0;stroke-opacity:1" /><g
     id="g5161"><path
       id="path4815"
       d="M 335.67486,199.99547 A 135.28297,135.28297 0 0 1 200.39189,335.27844 135.28297,135.28297 0 0 1 65.108897,199.99547 135.28297,135.28297 0 0 1 200.39189,64.712502 135.28297,135.28297 0 0 1 335.67486,199.99547 Z"
       style="display:inline;fill:url(#linearGradient5945);fill-opacity:1;fill-rule:evenodd;stroke:none;stroke-width:0.96476698;stroke-linecap:butt;stroke-linejoin:miter;stroke-miterlimit:4;stroke-dasharray:none;stroke-dashoffset:0;stroke-opacity:1"
       inkscape:connector-curvature="0" /><path
       inkscape:connector-curvature="0"
       id="path5836"
       d="M 200.171,91.775587 200.1157,64.729562"
       style="display:inline;fill:none;fill-opacity:1;fill-rule:evenodd;stroke:#951c00;stroke-width:3.42605972;stroke-linecap:butt;stroke-linejoin:miter;stroke-miterlimit:4;stroke-dasharray:none;stroke-dashoffset:0;stroke-opacity:1" /><path
       id="path5922"
       d="m 218.96656,93.381378 4.62225,-26.53085"
       style="display:inline;fill:none;fill-opacity:1;fill-rule:evenodd;stroke:#ffffff;stroke-width:3.42605972;stroke-linecap:butt;stroke-linejoin:miter;stroke-miterlimit:4;stroke-dasharray:none;stroke-dashoffset:0;stroke-opacity:1"
       inkscape:connector-curvature="0" /><path
       id="path5920"
       d="m 209.99273,87.615824 1.90865,-22.341343"
       style="display:inline;fill:none;fill-opacity:1;fill-rule:evenodd;stroke:#ffffff;stroke-width:3.42605972;stroke-linecap:butt;stroke-linejoin:miter;stroke-miterlimit:4;stroke-dasharray:none;stroke-dashoffset:0;stroke-opacity:1"
       inkscape:connector-curvature="0" /><path
       id="path5918"
       d="M 190.33238,87.655964 188.3325,65.322618"
       style="display:inline;fill:none;fill-opacity:1;fill-rule:evenodd;stroke:#ffffff;stroke-width:3.42605972;stroke-linecap:butt;stroke-linejoin:miter;stroke-miterlimit:4;stroke-dasharray:none;stroke-dashoffset:0;stroke-opacity:1"
       inkscape:connector-curvature="0" /><path
       id="path5916"
       d="M 170.99095,91.15863 165.14318,69.511481"
       style="display:inline;fill:none;fill-opacity:1;fill-rule:evenodd;stroke:#ffffff;stroke-width:3.42605972;stroke-linecap:butt;stroke-linejoin:miter;stroke-miterlimit:4;stroke-dasharray:none;stroke-dashoffset:0;stroke-opacity:1"
       inkscape:connector-curvature="0" /><path
       id="path5914"
       d="M 152.5319,97.903931 143.02486,77.6242"
       style="display:inline;fill:none;fill-opacity:1;fill-rule:evenodd;stroke:#ffffff;stroke-width:3.42605972;stroke-linecap:butt;stroke-linejoin:miter;stroke-miterlimit:4;stroke-dasharray:none;stroke-dashoffset:0;stroke-opacity:1"
       inkscape:connector-curvature="0" /><path
       id="path5912"
       d="M 135.51799,107.74726 122.6282,89.418492"
       style="display:inline;fill:none;fill-opacity:1;fill-rule:evenodd;stroke:#ffffff;stroke-width:3.42605972;stroke-linecap:butt;stroke-linejoin:miter;stroke-miterlimit:4;stroke-dasharray:none;stroke-dashoffset:0;stroke-opacity:1"
       inkscape:connector-curvature="0" /><path
       id="path5910"
       d="M 120.43053,120.35985 104.55267,104.5467"
       style="display:inline;fill:none;fill-opacity:1;fill-rule:evenodd;stroke:#ffffff;stroke-width:3.42605972;stroke-linecap:butt;stroke-linejoin:miter;stroke-miterlimit:4;stroke-dasharray:none;stroke-dashoffset:0;stroke-opacity:1"
       inkscape:connector-curvature="0" /><path
       id="path5908"
       d="M 107.87965,135.49872 89.498412,122.68387"
       style="display:inline;fill:none;fill-opacity:1;fill-rule:evenodd;stroke:#ffffff;stroke-width:3.42605972;stroke-linecap:butt;stroke-linejoin:miter;stroke-miterlimit:4;stroke-dasharray:none;stroke-dashoffset:0;stroke-opacity:1"
       inkscape:connector-curvature="0" /><path
       id="path5906"
       d="M 98.109757,152.55447 77.789019,143.12923"
       style="display:inline;fill:none;fill-opacity:1;fill-rule:evenodd;stroke:#ffffff;stroke-width:3.42605972;stroke-linecap:butt;stroke-linejoin:miter;stroke-miterlimit:4;stroke-dasharray:none;stroke-dashoffset:0;stroke-opacity:1"
       inkscape:connector-curvature="0" /><path
       id="path5904"
       d="m 91.442069,171.04071 -21.678026,-5.7612"
       style="display:inline;fill:none;fill-opacity:1;fill-rule:evenodd;stroke:#ffffff;stroke-width:3.42605972;stroke-linecap:butt;stroke-linejoin:miter;stroke-miterlimit:4;stroke-dasharray:none;stroke-dashoffset:0;stroke-opacity:1"
       inkscape:connector-curvature="0" /><path
       id="path5902"
       d="M 88.020349,190.39536 65.674164,188.48629"
       style="display:inline;fill:none;fill-opacity:1;fill-rule:evenodd;stroke:#ffffff;stroke-width:3.42605972;stroke-linecap:butt;stroke-linejoin:miter;stroke-miterlimit:4;stroke-dasharray:none;stroke-dashoffset:0;stroke-opacity:1"
       inkscape:connector-curvature="0" /><path
       id="path5900"
       d="m 88.061244,210.05425 -22.338655,2.00037"
       style="display:inline;fill:none;fill-opacity:1;fill-rule:evenodd;stroke:#ffffff;stroke-width:3.42605972;stroke-linecap:butt;stroke-linejoin:miter;stroke-miterlimit:4;stroke-dasharray:none;stroke-dashoffset:0;stroke-opacity:1"
       inkscape:connector-curvature="0" /><path
       id="path5898"
       d="m 91.521216,229.40566 -21.616961,5.83957"
       style="display:inline;fill:none;fill-opacity:1;fill-rule:evenodd;stroke:#ffffff;stroke-width:3.42605972;stroke-linecap:butt;stroke-linejoin:miter;stroke-miterlimit:4;stroke-dasharray:none;stroke-dashoffset:0;stroke-opacity:1"
       inkscape:connector-curvature="0" /><path
       id="path5896"
       d="m 98.337001,247.83838 -20.318739,9.52534"
       style="display:inline;fill:none;fill-opacity:1;fill-rule:evenodd;stroke:#ffffff;stroke-width:3.42605972;stroke-linecap:butt;stroke-linejoin:miter;stroke-miterlimit:4;stroke-dasharray:none;stroke-dashoffset:0;stroke-opacity:1"
       inkscape:connector-curvature="0" /><path
       id="path5894"
       d="M 108.16773,264.85262 89.80849,277.76383"
       style="display:inline;fill:none;fill-opacity:1;fill-rule:evenodd;stroke:#ffffff;stroke-width:3.42605972;stroke-linecap:butt;stroke-linejoin:miter;stroke-miterlimit:4;stroke-dasharray:none;stroke-dashoffset:0;stroke-opacity:1"
       inkscape:connector-curvature="0" /><path
       id="path5892"
       d="m 120.79203,279.92114 -0.0178,0.0178"
       style="display:inline;fill:none;fill-opacity:1;fill-rule:evenodd;stroke:#ffffff;stroke-width:3.42605972;stroke-linecap:butt;stroke-linejoin:miter;stroke-miterlimit:4;stroke-dasharray:none;stroke-dashoffset:0;stroke-opacity:1"
       inkscape:connector-curvature="0" /><path
       id="path5890"
       d="m 120.77426,279.93897 -15.8379,15.90272"
       style="display:inline;fill:none;fill-opacity:1;fill-rule:evenodd;stroke:#ffffff;stroke-width:3.42605972;stroke-linecap:butt;stroke-linejoin:miter;stroke-miterlimit:4;stroke-dasharray:none;stroke-dashoffset:0;stroke-opacity:1"
       inkscape:connector-curvature="0" /><path
       id="path5888"
       d="m 135.89942,292.50183 -12.83866,18.41542"
       style="display:inline;fill:none;fill-opacity:1;fill-rule:evenodd;stroke:#ffffff;stroke-width:3.42605972;stroke-linecap:butt;stroke-linejoin:miter;stroke-miterlimit:4;stroke-dasharray:none;stroke-dashoffset:0;stroke-opacity:1"
       inkscape:connector-curvature="0" /><path
       id="path5885"
       d="m 152.95262,302.27425 -9.4262,20.32278"
       style="display:inline;fill:none;fill-opacity:1;fill-rule:evenodd;stroke:#ffffff;stroke-width:3.42605972;stroke-linecap:butt;stroke-linejoin:miter;stroke-miterlimit:4;stroke-dasharray:none;stroke-dashoffset:0;stroke-opacity:1"
       inkscape:connector-curvature="0" /><path
       id="path5883"
       d="m 171.43788,308.94309 -5.76062,21.67588"
       style="display:inline;fill:none;fill-opacity:1;fill-rule:evenodd;stroke:#ffffff;stroke-width:3.42605972;stroke-linecap:butt;stroke-linejoin:miter;stroke-miterlimit:4;stroke-dasharray:none;stroke-dashoffset:0;stroke-opacity:1"
       inkscape:connector-curvature="0" /><path
       id="path5881"
       d="m 190.792,312.36628 -1.90909,22.34665"
       style="display:inline;fill:none;fill-opacity:1;fill-rule:evenodd;stroke:#ffffff;stroke-width:3.42605972;stroke-linecap:butt;stroke-linejoin:miter;stroke-miterlimit:4;stroke-dasharray:none;stroke-dashoffset:0;stroke-opacity:1"
       inkscape:connector-curvature="0" /><path
       id="path5879"
       d="m 210.45087,312.32614 2.00034,22.33866"
       style="display:inline;fill:none;fill-opacity:1;fill-rule:evenodd;stroke:#ffffff;stroke-width:3.42605972;stroke-linecap:butt;stroke-linejoin:miter;stroke-miterlimit:4;stroke-dasharray:none;stroke-dashoffset:0;stroke-opacity:1"
       inkscape:connector-curvature="0" /><path
       id="path5877"
       d="m 229.79086,308.82394 5.84909,21.65217"
       style="display:inline;fill:none;fill-opacity:1;fill-rule:evenodd;stroke:#ffffff;stroke-width:3.42605972;stroke-linecap:butt;stroke-linejoin:miter;stroke-miterlimit:4;stroke-dasharray:none;stroke-dashoffset:0;stroke-opacity:1"
       inkscape:connector-curvature="0" /><path
       id="path5875"
       d="m 248.2487,302.07966 9.50913,20.28411"
       style="display:inline;fill:none;fill-opacity:1;fill-rule:evenodd;stroke:#ffffff;stroke-width:3.42605972;stroke-linecap:butt;stroke-linejoin:miter;stroke-miterlimit:4;stroke-dasharray:none;stroke-dashoffset:0;stroke-opacity:1"
       inkscape:connector-curvature="0" /><path
       id="path5873"
       d="m 265.26188,292.23765 12.91376,18.36284"
       style="display:inline;fill:none;fill-opacity:1;fill-rule:evenodd;stroke:#ffffff;stroke-width:3.42605972;stroke-linecap:butt;stroke-linejoin:miter;stroke-miterlimit:4;stroke-dasharray:none;stroke-dashoffset:0;stroke-opacity:1"
       inkscape:connector-curvature="0" /><path
       id="path5871"
       d="m 280.31773,279.59533 0.0178,0.0178"
       style="display:inline;fill:none;fill-opacity:1;fill-rule:evenodd;stroke:#ffffff;stroke-width:3.42605972;stroke-linecap:butt;stroke-linejoin:miter;stroke-miterlimit:4;stroke-dasharray:none;stroke-dashoffset:0;stroke-opacity:1"
       inkscape:connector-curvature="0" /><path
       id="path5869"
       d="m 280.33559,279.6131 15.89575,15.83097"
       style="display:inline;fill:none;fill-opacity:1;fill-rule:evenodd;stroke:#ffffff;stroke-width:3.42605972;stroke-linecap:butt;stroke-linejoin:miter;stroke-miterlimit:4;stroke-dasharray:none;stroke-dashoffset:0;stroke-opacity:1"
       inkscape:connector-curvature="0" /><path
       id="path5867"
       d="m 292.88037,264.47535 18.41182,12.83615"
       style="display:inline;fill:none;fill-opacity:1;fill-rule:evenodd;stroke:#ffffff;stroke-width:3.42605972;stroke-linecap:butt;stroke-linejoin:miter;stroke-miterlimit:4;stroke-dasharray:none;stroke-dashoffset:0;stroke-opacity:1"
       inkscape:connector-curvature="0" /><path
       id="path5865"
       d="m 302.67087,247.43476 20.33646,9.43254"
       style="display:inline;fill:none;fill-opacity:1;fill-rule:evenodd;stroke:#ffffff;stroke-width:3.42605972;stroke-linecap:butt;stroke-linejoin:miter;stroke-miterlimit:4;stroke-dasharray:none;stroke-dashoffset:0;stroke-opacity:1"
       inkscape:connector-curvature="0" /><path
       id="path5863"
       d="m 309.38198,228.96072 21.64062,5.75127"
       style="display:inline;fill:none;fill-opacity:1;fill-rule:evenodd;stroke:#ffffff;stroke-width:3.42605972;stroke-linecap:butt;stroke-linejoin:miter;stroke-miterlimit:4;stroke-dasharray:none;stroke-dashoffset:0;stroke-opacity:1"
       inkscape:connector-curvature="0" /><path
       id="path5861"
       d="m 312.76285,209.59534 22.34666,1.90912"
       style="display:inline;fill:none;fill-opacity:1;fill-rule:evenodd;stroke:#ffffff;stroke-width:3.42605972;stroke-linecap:butt;stroke-linejoin:miter;stroke-miterlimit:4;stroke-dasharray:none;stroke-dashoffset:0;stroke-opacity:1"
       inkscape:connector-curvature="0" /><path
       id="path5855"
       d="m 312.72347,189.93645 22.33821,-2.00032"
       style="display:inline;fill:none;fill-opacity:1;fill-rule:evenodd;stroke:#ffffff;stroke-width:3.42605972;stroke-linecap:butt;stroke-linejoin:miter;stroke-miterlimit:4;stroke-dasharray:none;stroke-dashoffset:0;stroke-opacity:1"
       inkscape:connector-curvature="0" /><path
       id="path5853"
       d="m 309.22276,170.59593 21.6543,-5.84968"
       style="display:inline;fill:none;fill-opacity:1;fill-rule:evenodd;stroke:#ffffff;stroke-width:3.42605972;stroke-linecap:butt;stroke-linejoin:miter;stroke-miterlimit:4;stroke-dasharray:none;stroke-dashoffset:0;stroke-opacity:1"
       inkscape:connector-curvature="0" /><path
       id="path5851"
       d="m 302.47963,152.13708 20.28205,-9.50815"
       style="display:inline;fill:none;fill-opacity:1;fill-rule:evenodd;stroke:#ffffff;stroke-width:3.42605972;stroke-linecap:butt;stroke-linejoin:miter;stroke-miterlimit:4;stroke-dasharray:none;stroke-dashoffset:0;stroke-opacity:1"
       inkscape:connector-curvature="0" /><path
       id="path5849"
       d="m 292.62033,135.13528 18.34001,-12.8977"
       style="display:inline;fill:none;fill-opacity:1;fill-rule:evenodd;stroke:#ffffff;stroke-width:3.42605972;stroke-linecap:butt;stroke-linejoin:miter;stroke-miterlimit:4;stroke-dasharray:none;stroke-dashoffset:0;stroke-opacity:1"
       inkscape:connector-curvature="0" /><path
       id="path5847"
       d="m 280.02753,120.03389 15.81314,-15.87786"
       style="display:inline;fill:none;fill-opacity:1;fill-rule:evenodd;stroke:#ffffff;stroke-width:3.42605972;stroke-linecap:butt;stroke-linejoin:miter;stroke-miterlimit:4;stroke-dasharray:none;stroke-dashoffset:0;stroke-opacity:1"
       inkscape:connector-curvature="0" /><path
       id="path5845"
       d="M 264.88869,107.48301 277.70352,89.10175"
       style="display:inline;fill:none;fill-opacity:1;fill-rule:evenodd;stroke:#ffffff;stroke-width:3.42605972;stroke-linecap:butt;stroke-linejoin:miter;stroke-miterlimit:4;stroke-dasharray:none;stroke-dashoffset:0;stroke-opacity:1"
       inkscape:connector-curvature="0" /><path
       id="path5843"
       d="m 247.83473,97.709252 9.42414,-20.318361"
       style="display:inline;fill:none;fill-opacity:1;fill-rule:evenodd;stroke:#ffffff;stroke-width:3.42605972;stroke-linecap:butt;stroke-linejoin:miter;stroke-miterlimit:4;stroke-dasharray:none;stroke-dashoffset:0;stroke-opacity:1"
       inkscape:connector-curvature="0" /><path
       id="path5840"
       d="m 229.34832,91.03941 5.75927,-21.670873"
       style="display:inline;fill:none;fill-opacity:1;fill-rule:evenodd;stroke:#ffffff;stroke-width:3.42605972;stroke-linecap:butt;stroke-linejoin:miter;stroke-miterlimit:4;stroke-dasharray:none;stroke-dashoffset:0;stroke-opacity:1"
       inkscape:connector-curvature="0" /><path
       id="path5834"
       d="M 181.39947,93.554909 176.65079,66.941758"
       style="display:inline;fill:none;fill-opacity:1;fill-rule:evenodd;stroke:#ffffff;stroke-width:3.42605972;stroke-linecap:butt;stroke-linejoin:miter;stroke-miterlimit:4;stroke-dasharray:none;stroke-dashoffset:0;stroke-opacity:1"
       inkscape:connector-curvature="0" /><path
       id="path5832"
       d="M 163.19881,98.453582 153.91205,73.099624"
       style="display:inline;fill:none;fill-opacity:1;fill-rule:evenodd;stroke:#ffffff;stroke-width:3.42605972;stroke-linecap:butt;stroke-linejoin:miter;stroke-miterlimit:4;stroke-dasharray:none;stroke-dashoffset:0;stroke-opacity:1"
       inkscape:connector-curvature="0" /><path
       id="path5830"
       d="M 146.14406,106.47676 132.57984,83.093248"
       style="display:inline;fill:none;fill-opacity:1;fill-rule:evenodd;stroke:#ffffff;stroke-width:3.42605972;stroke-linecap:butt;stroke-linejoin:miter;stroke-miterlimit:4;stroke-dasharray:none;stroke-dashoffset:0;stroke-opacity:1"
       inkscape:connector-curvature="0" /><path
       id="path5828"
       d="M 130.68447,117.26487 113.27081,96.597912"
       style="display:inline;fill:none;fill-opacity:1;fill-rule:evenodd;stroke:#ffffff;stroke-width:3.42605972;stroke-linecap:butt;stroke-linejoin:miter;stroke-miterlimit:4;stroke-dasharray:none;stroke-dashoffset:0;stroke-opacity:1"
       inkscape:connector-curvature="0" /><path
       id="path5826"
       d="M 117.37842,130.6271 96.639913,113.29747"
       style="display:inline;fill:none;fill-opacity:1;fill-rule:evenodd;stroke:#ffffff;stroke-width:3.42605972;stroke-linecap:butt;stroke-linejoin:miter;stroke-miterlimit:4;stroke-dasharray:none;stroke-dashoffset:0;stroke-opacity:1"
       inkscape:connector-curvature="0" /><path
       id="path5824"
       d="M 106.63325,146.11872 83.189672,132.64733"
       style="display:inline;fill:none;fill-opacity:1;fill-rule:evenodd;stroke:#ffffff;stroke-width:3.42605972;stroke-linecap:butt;stroke-linejoin:miter;stroke-miterlimit:4;stroke-dasharray:none;stroke-dashoffset:0;stroke-opacity:1"
       inkscape:connector-curvature="0" /><path
       id="path5822"
       d="M 98.704701,163.21923 73.309404,154.03476"
       style="display:inline;fill:none;fill-opacity:1;fill-rule:evenodd;stroke:#ffffff;stroke-width:3.42605972;stroke-linecap:butt;stroke-linejoin:miter;stroke-miterlimit:4;stroke-dasharray:none;stroke-dashoffset:0;stroke-opacity:1"
       inkscape:connector-curvature="0" /><path
       id="path5820"
       d="M 93.848145,181.43307 67.210648,176.79222"
       style="display:inline;fill:none;fill-opacity:1;fill-rule:evenodd;stroke:#ffffff;stroke-width:3.42605972;stroke-linecap:butt;stroke-linejoin:miter;stroke-miterlimit:4;stroke-dasharray:none;stroke-dashoffset:0;stroke-opacity:1"
       inkscape:connector-curvature="0" /><path
       id="path5818"
       d="m 92.14637,200.21641 -27.052467,0.0553"
       style="display:inline;fill:none;fill-opacity:1;fill-rule:evenodd;stroke:#ffffff;stroke-width:3.42605972;stroke-linecap:butt;stroke-linejoin:miter;stroke-miterlimit:4;stroke-dasharray:none;stroke-dashoffset:0;stroke-opacity:1"
       inkscape:connector-curvature="0" /><path
       id="path5816"
       d="m 93.926514,218.99235 -26.619415,4.7498"
       style="display:inline;fill:none;fill-opacity:1;fill-rule:evenodd;stroke:#ffffff;stroke-width:3.42605972;stroke-linecap:butt;stroke-linejoin:miter;stroke-miterlimit:4;stroke-dasharray:none;stroke-dashoffset:0;stroke-opacity:1"
       inkscape:connector-curvature="0" /><path
       id="path5814"
       d="m 98.858929,237.18535 -25.359667,9.28884"
       style="display:inline;fill:none;fill-opacity:1;fill-rule:evenodd;stroke:#ffffff;stroke-width:3.42605972;stroke-linecap:butt;stroke-linejoin:miter;stroke-miterlimit:4;stroke-dasharray:none;stroke-dashoffset:0;stroke-opacity:1"
       inkscape:connector-curvature="0" /><path
       id="path5812"
       d="M 106.8429,254.26099 83.467185,267.82068"
       style="display:inline;fill:none;fill-opacity:1;fill-rule:evenodd;stroke:#ffffff;stroke-width:3.42605972;stroke-linecap:butt;stroke-linejoin:miter;stroke-miterlimit:4;stroke-dasharray:none;stroke-dashoffset:0;stroke-opacity:1"
       inkscape:connector-curvature="0" /><path
       id="path5810"
       d="M 117.66726,269.698 96.99655,287.11486"
       style="display:inline;fill:none;fill-opacity:1;fill-rule:evenodd;stroke:#ffffff;stroke-width:3.42605972;stroke-linecap:butt;stroke-linejoin:miter;stroke-miterlimit:4;stroke-dasharray:none;stroke-dashoffset:0;stroke-opacity:1"
       inkscape:connector-curvature="0" /><path
       id="path5808"
       d="m 131.02776,283.00406 -17.33227,20.7417"
       style="display:inline;fill:none;fill-opacity:1;fill-rule:evenodd;stroke:#ffffff;stroke-width:3.42605972;stroke-linecap:butt;stroke-linejoin:miter;stroke-miterlimit:4;stroke-dasharray:none;stroke-dashoffset:0;stroke-opacity:1"
       inkscape:connector-curvature="0" /><path
       id="path5806"
       d="m 146.5307,293.72735 -13.48678,23.47034"
       style="display:inline;fill:none;fill-opacity:1;fill-rule:evenodd;stroke:#ffffff;stroke-width:3.42605972;stroke-linecap:butt;stroke-linejoin:miter;stroke-miterlimit:4;stroke-dasharray:none;stroke-dashoffset:0;stroke-opacity:1"
       inkscape:connector-curvature="0" /><path
       id="path5804"
       d="m 163.61698,301.67949 -9.18521,25.39736"
       style="display:inline;fill:none;fill-opacity:1;fill-rule:evenodd;stroke:#ffffff;stroke-width:3.42605972;stroke-linecap:butt;stroke-linejoin:miter;stroke-miterlimit:4;stroke-dasharray:none;stroke-dashoffset:0;stroke-opacity:1"
       inkscape:connector-curvature="0" /><path
       id="path5802"
       d="m 181.82997,306.53751 -4.635,26.60397"
       style="display:inline;fill:none;fill-opacity:1;fill-rule:evenodd;stroke:#ffffff;stroke-width:3.42605972;stroke-linecap:butt;stroke-linejoin:miter;stroke-miterlimit:4;stroke-dasharray:none;stroke-dashoffset:0;stroke-opacity:1"
       inkscape:connector-curvature="0" /><path
       id="path5800"
       d="m 200.61296,308.2053 0.0553,27.05246"
       style="display:inline;fill:none;fill-opacity:1;fill-rule:evenodd;stroke:#ffffff;stroke-width:3.42605972;stroke-linecap:butt;stroke-linejoin:miter;stroke-miterlimit:4;stroke-dasharray:none;stroke-dashoffset:0;stroke-opacity:1"
       inkscape:connector-curvature="0" /><path
       id="path5798"
       d="m 219.38895,306.46083 4.74362,26.5848"
       style="display:inline;fill:none;fill-opacity:1;fill-rule:evenodd;stroke:#ffffff;stroke-width:3.42605972;stroke-linecap:butt;stroke-linejoin:miter;stroke-miterlimit:4;stroke-dasharray:none;stroke-dashoffset:0;stroke-opacity:1"
       inkscape:connector-curvature="0" /><path
       id="path5796"
       d="m 237.58197,301.52846 9.28885,25.35964"
       style="display:inline;fill:none;fill-opacity:1;fill-rule:evenodd;stroke:#ffffff;stroke-width:3.42605972;stroke-linecap:butt;stroke-linejoin:miter;stroke-miterlimit:4;stroke-dasharray:none;stroke-dashoffset:0;stroke-opacity:1"
       inkscape:connector-curvature="0" /><path
       id="path5793"
       d="m 254.63561,293.50657 13.58255,23.41505"
       style="display:inline;fill:none;fill-opacity:1;fill-rule:evenodd;stroke:#ffffff;stroke-width:3.42605972;stroke-linecap:butt;stroke-linejoin:miter;stroke-miterlimit:4;stroke-dasharray:none;stroke-dashoffset:0;stroke-opacity:1"
       inkscape:connector-curvature="0" /><path
       id="path5791"
       d="m 270.0946,282.7201 17.41686,20.67071"
       style="display:inline;fill:none;fill-opacity:1;fill-rule:evenodd;stroke:#ffffff;stroke-width:3.42605972;stroke-linecap:butt;stroke-linejoin:miter;stroke-miterlimit:4;stroke-dasharray:none;stroke-dashoffset:0;stroke-opacity:1"
       inkscape:connector-curvature="0" /><path
       id="path5789"
       d="m 283.40067,269.35958 20.74169,17.33227"
       style="display:inline;fill:none;fill-opacity:1;fill-rule:evenodd;stroke:#ffffff;stroke-width:3.42605972;stroke-linecap:butt;stroke-linejoin:miter;stroke-miterlimit:4;stroke-dasharray:none;stroke-dashoffset:0;stroke-opacity:1"
       inkscape:connector-curvature="0" /><path
       id="path5787"
       d="m 294.16191,253.87845 23.43089,13.4641"
       style="display:inline;fill:none;fill-opacity:1;fill-rule:evenodd;stroke:#ffffff;stroke-width:3.42605972;stroke-linecap:butt;stroke-linejoin:miter;stroke-miterlimit:4;stroke-dasharray:none;stroke-dashoffset:0;stroke-opacity:1"
       inkscape:connector-curvature="0" /><path
       id="path5785"
       d="m 302.07606,236.77038 25.39738,9.18519"
       style="display:inline;fill:none;fill-opacity:1;fill-rule:evenodd;stroke:#ffffff;stroke-width:3.42605972;stroke-linecap:butt;stroke-linejoin:miter;stroke-miterlimit:4;stroke-dasharray:none;stroke-dashoffset:0;stroke-opacity:1"
       inkscape:connector-curvature="0" /><path
       id="path5783"
       d="m 306.93413,218.55737 26.63858,4.64104"
       style="display:inline;fill:none;fill-opacity:1;fill-rule:evenodd;stroke:#ffffff;stroke-width:3.42605972;stroke-linecap:butt;stroke-linejoin:miter;stroke-miterlimit:4;stroke-dasharray:none;stroke-dashoffset:0;stroke-opacity:1"
       inkscape:connector-curvature="0" /><path
       id="path5781"
       d="m 308.63759,199.77434 27.05247,-0.0553"
       style="display:inline;fill:none;fill-opacity:1;fill-rule:evenodd;stroke:#ffffff;stroke-width:3.42605972;stroke-linecap:butt;stroke-linejoin:miter;stroke-miterlimit:4;stroke-dasharray:none;stroke-dashoffset:0;stroke-opacity:1"
       inkscape:connector-curvature="0" /><path
       id="path5779"
       d="m 306.85913,180.99808 26.61831,-4.7496"
       style="display:inline;fill:none;fill-opacity:1;fill-rule:evenodd;stroke:#ffffff;stroke-width:3.42605972;stroke-linecap:butt;stroke-linejoin:miter;stroke-miterlimit:4;stroke-dasharray:none;stroke-dashoffset:0;stroke-opacity:1"
       inkscape:connector-curvature="0" /><path
       id="path5777"
       d="m 301.92823,162.80422 25.35758,-9.2881"
       style="display:inline;fill:none;fill-opacity:1;fill-rule:evenodd;stroke:#ffffff;stroke-width:3.42605972;stroke-linecap:butt;stroke-linejoin:miter;stroke-miterlimit:4;stroke-dasharray:none;stroke-dashoffset:0;stroke-opacity:1"
       inkscape:connector-curvature="0" /><path
       id="path5775"
       d="M 293.92989,145.73622 317.31824,132.1692"
       style="display:inline;fill:none;fill-opacity:1;fill-rule:evenodd;stroke:#ffffff;stroke-width:3.42605972;stroke-linecap:butt;stroke-linejoin:miter;stroke-miterlimit:4;stroke-dasharray:none;stroke-dashoffset:0;stroke-opacity:1"
       inkscape:connector-curvature="0" /><path
       id="path5773"
       d="M 283.12154,130.28863 303.7891,112.87444"
       style="display:inline;fill:none;fill-opacity:1;fill-rule:evenodd;stroke:#ffffff;stroke-width:3.42605972;stroke-linecap:butt;stroke-linejoin:miter;stroke-miterlimit:4;stroke-dasharray:none;stroke-dashoffset:0;stroke-opacity:1"
       inkscape:connector-curvature="0" /><path
       id="path5771"
       d="m 269.76102,116.98087 17.324,-20.731776"
       style="display:inline;fill:none;fill-opacity:1;fill-rule:evenodd;stroke:#ffffff;stroke-width:3.42605972;stroke-linecap:butt;stroke-linejoin:miter;stroke-miterlimit:4;stroke-dasharray:none;stroke-dashoffset:0;stroke-opacity:1"
       inkscape:connector-curvature="0" /><path
       id="path5769"
       d="M 254.2575,106.25598 267.72611,82.817267"
       style="display:inline;fill:none;fill-opacity:1;fill-rule:evenodd;stroke:#ffffff;stroke-width:3.42605972;stroke-linecap:butt;stroke-linejoin:miter;stroke-miterlimit:4;stroke-dasharray:none;stroke-dashoffset:0;stroke-opacity:1"
       inkscape:connector-curvature="0" /><path
       id="path5639"
       d="m 237.17015,98.302508 9.18312,-25.391676"
       style="display:inline;fill:none;fill-opacity:1;fill-rule:evenodd;stroke:#ffffff;stroke-width:3.42605972;stroke-linecap:butt;stroke-linejoin:miter;stroke-miterlimit:4;stroke-dasharray:none;stroke-dashoffset:0;stroke-opacity:1"
       inkscape:connector-curvature="0" /><path
       inkscape:connector-curvature="0"
       id="text5666"
       d="m 190.61309,120.36778 -0.05,-24.524371 3.32903,-0.0067 12.92047,19.228525 -0.0393,-19.254826 3.11155,-0.0067 0.05,24.52437 -3.32902,0.007 -12.92049,-19.24525 0.0393,19.27155 -3.11155,0.007"
       style="font-style:normal;font-variant:normal;font-weight:normal;font-stretch:normal;font-size:30px;font-family:Arial;-inkscape-font-specification:Arial;display:inline;fill:#ffffff;fill-opacity:1;stroke:none;stroke-width:1px;stroke-linecap:butt;stroke-linejoin:miter;stroke-opacity:1" /><path
       inkscape:connector-curvature="0"
       id="text5670"
       d="m 210.31434,288.27705 -3.06193,0.26141 c -0.14239,-1.2271 -0.47497,-2.23708 -0.99752,-3.02994 -0.53374,-0.78179 -1.35773,-1.41918 -2.47198,-1.91216 -1.11427,-0.48184 -2.36842,-0.72416 -3.7625,-0.72703 -1.23791,-0.002 -2.33123,0.17926 -3.27995,0.54537 -0.94872,0.3661 -1.65235,0.86652 -2.11092,1.50127 -0.46971,0.64588 -0.70533,1.34803 -0.7069,2.10639 -0.002,0.76952 0.22013,1.43913 0.66505,2.00884 0.44493,0.58083 1.18,1.06744 2.20522,1.45991 0.65749,0.25783 2.11208,0.65672 4.36379,1.19664 2.25169,0.55107 3.82872,1.06731 4.73109,1.54872 1.16977,0.61576 2.04369,1.37593 2.6218,2.28049 0.56688,0.91564 0.84919,1.93668 0.84688,3.0631 -0.002,1.23789 -0.35617,2.39146 -1.06098,3.46068 -0.70481,1.08036 -1.73252,1.89797 -3.0831,2.45286 -1.3506,0.55485 -2.85116,0.83059 -4.50176,0.82725 -1.81784,-0.004 -3.41763,-0.30254 -4.79935,-0.89642 -1.39286,-0.58282 -2.46175,-1.44374 -3.20665,-2.58279 -0.74489,-1.1391 -1.14373,-2.42804 -1.19658,-3.86681 l 3.11202,-0.22784 c 0.16416,1.55052 0.73054,2.72268 1.69916,3.51653 0.95753,0.79375 2.37866,1.19257 4.26341,1.19644 1.96287,0.004 3.39668,-0.35555 4.30153,-1.0786 0.89365,-0.71194 1.34151,-1.57536 1.3436,-2.5902 0.002,-0.88108 -0.31459,-1.60666 -0.94911,-2.1767 -0.62338,-0.57007 -2.25043,-1.1589 -4.88122,-1.76651 -2.64193,-0.5965 -4.45313,-1.11878 -5.43368,-1.56687 -1.42615,-0.66092 -2.47834,-1.49952 -3.1566,-2.51577 -0.67825,-1.00511 -1.01603,-2.16568 -1.01336,-3.48167 0.002,-1.30484 0.37883,-2.53645 1.12838,-3.69477 0.74957,-1.14719 1.82763,-2.04275 3.23417,-2.68674 1.39536,-0.63284 2.96852,-0.9475 4.71945,-0.94392 2.21935,0.004 4.08115,0.33178 5.58543,0.9817 1.49312,0.6499 2.66773,1.62256 3.52381,2.91801 0.84494,1.30658 1.28803,2.77962 1.3293,4.41913"
       style="font-style:normal;font-variant:normal;font-weight:normal;font-stretch:normal;font-size:30px;font-family:Arial;-inkscape-font-specification:Arial;display:inline;fill:#ffffff;fill-opacity:1;stroke:none;stroke-width:1px;stroke-linecap:butt;stroke-linejoin:miter;stroke-opacity:1" /><path
       inkscape:connector-curvature="0"
       id="text5674"
       d="m 121.16506,190.89879 -24.537653,-6.45742 0.0067,3.32902 16.083959,3.6977 c 1.68485,0.39805 3.35844,0.74036 5.02076,1.02693 -2.61957,0.62989 -4.12998,1.00101 -4.53126,1.11337 l -16.551957,4.70115 0.0089,3.91452 12.419931,3.4877 c 3.0799,0.87474 5.97528,1.50452 8.68612,1.88934 -1.54955,0.31541 -3.32754,0.72612 -5.33397,1.2321 l -15.750667,3.8798 0.0067,3.26212 24.510643,-6.77505 -0.007,-3.12828 -18.6966,-5.13104 c -1.56223,-0.43177 -2.521854,-0.68633 -2.878913,-0.76366 1.125893,-0.25881 2.084513,-0.50056 2.875873,-0.7252 l 18.67542,-5.24081 -0.007,-3.31229"
       style="font-style:normal;font-variant:normal;font-weight:normal;font-stretch:normal;font-size:30px;font-family:Arial;-inkscape-font-specification:Arial;display:inline;fill:#ffffff;fill-opacity:1;stroke:none;stroke-width:1px;stroke-linecap:butt;stroke-linejoin:miter;stroke-opacity:1" /><path
       inkscape:connector-curvature="0"
       id="text5678"
       d="m 305.04387,190.34531 -24.52437,0.05 0.0362,17.73249 2.89409,-0.007 -0.0296,-14.48712 7.51123,-0.0155 0.0278,13.56702 2.87736,-0.007 -0.0278,-13.56704 8.34767,-0.0178 0.0307,15.0559 2.89406,-0.007 -0.0373,-18.30129"
       style="font-style:normal;font-variant:normal;font-weight:normal;font-stretch:normal;font-size:30px;font-family:Arial;-inkscape-font-specification:Arial;display:inline;fill:#ffffff;fill-opacity:1;stroke:none;stroke-width:1px;stroke-linecap:butt;stroke-linejoin:miter;stroke-opacity:1" /><path
       inkscape:connector-curvature="0"
       id="text5682"
       d="m 235.98549,121.56009 2.19027,0.82641 c -1.07847,2.83779 -0.77383,4.74158 0.91386,5.71137 0.91153,0.52382 1.92162,0.59401 3.03032,0.21059 1.11385,-0.39238 2.02345,-1.20229 2.72875,-2.42969 0.6638,-1.15521 0.89111,-2.26113 0.68195,-3.31774 -0.20925,-1.05661 -0.76052,-1.84163 -1.65402,-2.35505 -0.37907,-0.21792 -0.90022,-0.39725 -1.56349,-0.53828 l 1.45925,-2.0067 0.29581,0.20592 c 0.98371,0.56531 1.95617,0.72192 2.91737,0.46988 0.96113,-0.25201 1.73216,-0.88343 2.31302,-1.89425 0.53415,-0.92957 0.70479,-1.82195 0.51191,-2.67713 -0.1877,-0.86417 -0.65161,-1.50889 -1.39165,-1.93415 -0.76714,-0.44082 -1.58809,-0.51639 -2.46283,-0.22673 -0.86058,0.28587 -1.70793,0.98746 -2.54207,2.10479 l -1.74109,-1.57673 c 1.22767,-1.55148 2.53267,-2.50633 3.91501,-2.86452 1.3823,-0.35815 2.70072,-0.17682 3.95522,0.54405 1.31764,0.75717 2.15671,1.88762 2.51719,3.39129 0.36044,1.50372 0.11529,2.99562 -0.73509,4.47571 -0.51864,0.90253 -1.17616,1.58715 -1.97255,2.05388 -0.78745,0.47195 -1.64722,0.70419 -2.57934,0.69679 0.54605,0.55389 0.91193,1.1603 1.09754,1.8192 0.18571,0.65892 0.2097,1.41102 0.072,2.25635 -0.1375,0.84532 -0.45275,1.69667 -0.94543,2.55407 -1.04758,1.82306 -2.44288,3.00815 -4.18586,3.55524 -1.7378,0.53806 -3.35581,0.37665 -4.85396,-0.48423 -1.38987,-0.79866 -2.27723,-1.98087 -2.66206,-3.54658 -0.38485,-1.56572 -0.15483,-3.24035 0.68993,-5.02389"
       style="font-style:normal;font-variant:normal;font-weight:bold;font-stretch:normal;font-size:28px;font-family:'Arial Narrow';-inkscape-font-specification:'Arial Narrow Bold';display:inline;fill:#ffffff;fill-opacity:1;stroke:none;stroke-width:1px;stroke-linecap:butt;stroke-linejoin:miter;stroke-opacity:1" /><path
       inkscape:connector-curvature="0"
       id="text5686"
       d="m 287.35474,155.77956 -1.34074,-1.87568 c 0.90773,-0.77928 1.47062,-1.47882 1.68869,-2.09869 0.3221,-0.89683 0.26641,-1.71888 -0.16704,-2.46623 -0.67378,-1.16148 -1.93466,-1.67554 -3.78265,-1.54217 -1.59248,0.11751 -3.60682,0.87683 -6.04309,2.27804 1.13074,-0.0422 2.11777,0.15527 2.96115,0.59274 0.85233,0.43214 1.5031,1.03539 1.95228,1.80971 0.74686,1.28754 0.81188,2.74803 0.19503,4.38141 -0.60265,1.63716 -1.8809,3.02243 -3.83471,4.15581 -1.32357,0.76776 -2.66662,1.22192 -4.02909,1.36246 -1.34829,0.14439 -2.49839,-0.0133 -3.45033,-0.47146 -0.95193,-0.45861 -1.69169,-1.14261 -2.21919,-2.05199 -0.95056,-1.63869 -0.9957,-3.41756 -0.13528,-5.33656 0.86033,-1.91903 3.01472,-3.8787 6.46319,-5.87907 3.82663,-2.21975 6.86628,-3.25494 9.11897,-3.1056 2.26164,0.14417 3.88605,1.06705 4.87319,2.76876 0.71552,1.23353 0.89034,2.50994 0.52453,3.82924 -0.35164,1.32311 -1.27659,2.53952 -2.77478,3.64928 m -13.25978,-3.19266 c -1.43161,0.83046 -2.38824,1.83664 -2.86989,3.01853 -0.47266,1.17669 -0.45045,2.21071 0.0666,3.10211 0.4544,0.78331 1.26883,1.24347 2.44335,1.38046 1.17971,0.14594 2.48538,-0.19615 3.91701,-1.02669 1.40458,-0.81479 2.31647,-1.75289 2.73566,-2.81431 0.41915,-1.06143 0.37281,-2.03334 -0.13906,-2.91572 -0.50142,-0.86437 -1.32732,-1.3961 -2.47769,-1.59522 -1.13615,-0.19526 -2.36149,0.0882 -3.67606,0.85084"
       style="font-style:normal;font-variant:normal;font-weight:bold;font-stretch:normal;font-size:28px;font-family:'Arial Narrow';-inkscape-font-specification:'Arial Narrow Bold';display:inline;fill:#ffffff;fill-opacity:1;stroke:none;stroke-width:1px;stroke-linecap:butt;stroke-linejoin:miter;stroke-opacity:1" /><path
       inkscape:connector-curvature="0"
       id="text5690"
       d="m 273.16806,234.07073 1.06906,-1.86047 14.41857,8.28537 c -0.25723,-0.71637 -0.44275,-1.58658 -0.55658,-2.61069 -0.10551,-1.01929 -0.11884,-1.90769 -0.0404,-2.66517 l 2.18729,1.25688 c -6.4e-4,1.35951 0.19792,2.67213 0.59652,3.93792 0.39376,1.27412 0.9014,2.30158 1.52294,3.08236 l -0.69347,1.20677 -18.504,-10.63297 m -6.1612,15.7562 -2.17472,-1.24964 5.74267,-9.99369 c 0.8944,0.4805 1.72741,1.31033 2.49904,2.48947 0.76679,1.18753 1.46569,2.94915 2.09664,5.28485 0.72954,2.72677 1.40949,4.62802 2.03993,5.70373 0.63877,1.08051 1.36462,1.85432 2.17752,2.32147 0.93861,0.53932 1.86014,0.70099 2.76463,0.48501 0.90802,-0.20281 1.59317,-0.70652 2.0555,-1.51103 0.49598,-0.86319 0.58446,-1.75433 0.26538,-2.67342 -0.31907,-0.91912 -1.07362,-1.72056 -2.26364,-2.40438 l 1.33681,-1.7735 c 1.6912,1.15019 2.73299,2.41211 3.1253,3.78575 0.39587,1.38683 0.18682,2.78839 -0.62695,4.2047 -0.8861,1.54199 -2.07507,2.4083 -3.56689,2.59893 -1.49668,0.19904 -2.90705,-0.082 -4.23116,-0.8428 -1.17327,-0.67422 -2.12227,-1.63198 -2.84699,-2.87336 -0.71634,-1.23655 -1.47277,-3.2375 -2.26935,-6.00277 -0.49569,-1.75635 -0.85495,-2.91592 -1.0778,-3.47872 -0.22764,-0.55442 -0.489,-1.05018 -0.78404,-1.48728 l -4.26188,7.41668"
       style="font-style:normal;font-variant:normal;font-weight:bold;font-stretch:normal;font-size:26px;font-family:'Arial Narrow';-inkscape-font-specification:'Arial Narrow Bold';display:inline;fill:#ffffff;fill-opacity:1;stroke:none;stroke-width:1px;stroke-linecap:butt;stroke-linejoin:miter;stroke-opacity:1" /><path
       inkscape:connector-curvature="0"
       id="text5694"
       d="m 247.26387,265.21617 1.99886,-1.15948 8.98602,15.4911 c 0.14572,-0.80661 0.44136,-1.71812 0.88665,-2.73452 0.45051,-1.00743 0.91633,-1.84321 1.39749,-2.50737 l 1.36318,2.35001 c -0.73289,1.26743 -1.25422,2.59873 -1.56408,3.99387 -0.31885,1.40032 -0.39864,2.63192 -0.23939,3.69477 l -1.29653,0.75211 -11.5322,-19.88049 m -2.06979,8.13193 -1.96804,1.43044 c -0.89327,-1.16657 -1.80372,-1.89592 -2.73135,-2.18814 -0.93139,-0.278 -1.77526,-0.1977 -2.53158,0.2411 -0.94541,0.54839 -1.50954,1.45325 -1.69245,2.71458 -0.17771,1.2703 0.16971,2.65727 1.04184,4.16092 0.82001,1.41358 1.78774,2.31431 2.90319,2.70216 1.11167,0.40206 2.16721,0.31321 3.16664,-0.26652 0.60325,-0.34995 1.07127,-0.85007 1.40403,-1.50034 0.32896,-0.63609 0.47154,-1.34456 0.42774,-2.12539 l 2.04966,-0.79182 4.31912,11.08644 -8.06296,4.67713 -1.34751,-2.32299 6.46927,-3.75266 -2.20886,-5.83051 c -0.48292,1.38719 -1.26459,2.39417 -2.34506,3.02093 -1.35957,0.78864 -2.87595,0.89209 -4.54914,0.31036 -1.67696,-0.56755 -3.08474,-1.83272 -4.22334,-3.79555 -1.12291,-1.93584 -1.58233,-3.88951 -1.37823,-5.86107 0.20036,-1.95734 1.14683,-3.42696 2.83957,-4.40886 1.4046,-0.81477 2.87513,-1.01798 4.41162,-0.60965 1.53271,0.42256 2.86798,1.45905 4.00584,3.10944"
       style="font-style:normal;font-variant:normal;font-weight:bold;font-stretch:normal;font-size:28px;font-family:'Arial Narrow';-inkscape-font-specification:'Arial Narrow Bold';display:inline;fill:#ffffff;fill-opacity:1;stroke:none;stroke-width:1px;stroke-linecap:butt;stroke-linejoin:miter;stroke-opacity:1" /><path
       inkscape:connector-curvature="0"
       id="text5698"
       d="m 159.58999,272.33046 1.34578,-2.34204 10.76243,6.18444 c -0.51746,0.96317 -1.41111,1.86026 -2.68096,2.69125 -1.27888,0.82578 -3.176,1.57844 -5.69139,2.25795 -2.93651,0.78563 -4.98401,1.5179 -6.14247,2.19681 -1.16363,0.68793 -1.99697,1.4696 -2.50004,2.34505 -0.58081,1.01078 -0.75492,2.00321 -0.5223,2.97727 0.21835,0.97786 0.76085,1.71573 1.62722,2.21362 0.92961,0.53415 1.8893,0.62942 2.87909,0.28582 0.98981,-0.34364 1.85292,-1.15623 2.58934,-2.43779 l 1.90991,1.43963 c -1.23866,1.82131 -2.59766,2.94322 -4.07697,3.36574 -1.4935,0.4263 -3.00289,0.20126 -4.52815,-0.67518 -1.66059,-0.95427 -2.59354,-2.23469 -2.79883,-3.84128 -0.21436,-1.61182 0.0882,-3.13068 0.90762,-4.55663 0.72609,-1.26353 1.75753,-2.28553 3.09438,-3.06598 1.3317,-0.77145 3.48654,-1.58608 6.46457,-2.44395 1.89143,-0.53381 3.14018,-0.9207 3.74628,-1.16067 0.59707,-0.24517 1.13098,-0.52662 1.60168,-0.84438 l -7.98719,-4.58968 m -8.26595,-7.86524 2.00357,1.15132 -8.92267,15.52767 c 0.77145,-0.27702 1.70862,-0.47681 2.8115,-0.59939 1.0977,-0.11351 2.05443,-0.12795 2.87018,-0.0433 l -1.35356,2.35556 c -1.46409,-4.4e-4 -2.87769,0.21325 -4.24084,0.64241 -1.37215,0.42404 -2.47863,0.97073 -3.31947,1.64007 l -1.29963,-0.7468 11.45092,-19.92742"
       style="font-style:normal;font-variant:normal;font-weight:bold;font-stretch:normal;font-size:28px;font-family:'Arial Narrow';-inkscape-font-specification:'Arial Narrow Bold';display:inline;fill:#ffffff;fill-opacity:1;stroke:none;stroke-width:1px;stroke-linecap:butt;stroke-linejoin:miter;stroke-opacity:1" /><path
       inkscape:connector-curvature="0"
       id="text5702"
       d="m 129.42479,241.66923 2.3365,-1.35535 6.22833,10.73708 c -0.92974,0.57542 -2.1522,0.90549 -3.66742,0.99023 -1.52043,0.0757 -3.53972,-0.22102 -6.05786,-0.89024 -2.93591,-0.78789 -5.07523,-1.17747 -6.41794,-1.16874 -1.3517,0.0133 -2.46421,0.27422 -3.33763,0.78084 -1.0084,0.58495 -1.65539,1.35738 -1.94096,2.31722 -0.29978,0.9561 -0.19904,1.86632 0.30241,2.73069 0.53799,0.92739 1.32146,1.48972 2.35045,1.68704 1.02902,0.19726 2.18281,-0.0749 3.46133,-0.8165 l 0.93421,2.20174 c -1.98335,0.95795 -3.72122,1.25006 -5.21362,0.8763 -1.50658,-0.37757 -2.7012,-1.32715 -3.5839,-2.84879 -0.961,-1.65671 -1.12873,-3.23207 -0.50324,-4.72608 0.62033,-1.50301 1.64177,-2.6671 3.06435,-3.49234 1.26057,-0.7312 2.66484,-1.10054 4.21281,-1.108 1.53899,-0.002 3.81247,0.36967 6.82042,1.11576 1.90497,0.48341 3.17989,0.77274 3.82474,0.86794 0.63966,0.0864 1.24276,0.1093 1.80931,0.0695 l -4.62229,-7.96842 m -2.57565,-9.82344 -4.74051,2.74985 4.0817,7.0365 -2.22846,1.29267 -17.13154,0.0282 -0.94012,-1.62068 12.83046,-7.44265 -1.27699,-2.20144 2.22844,-1.29267 1.27701,2.20142 4.74053,-2.74985 1.15948,1.99886 m -6.96897,4.04252 -8.92731,5.17854 11.87304,-0.10041 -2.94573,-5.07815"
       style="font-style:normal;font-variant:normal;font-weight:bold;font-stretch:normal;font-size:28px;font-family:'Arial Narrow';-inkscape-font-specification:'Arial Narrow Bold';display:inline;fill:#ffffff;fill-opacity:1;stroke:none;stroke-width:1px;stroke-linecap:butt;stroke-linejoin:miter;stroke-opacity:1" /><path
       inkscape:connector-curvature="0"
       id="text5706"
       d="m 119.13344,169.83923 0.82641,-2.19027 c 2.83779,1.07844 4.74158,0.77382 5.71137,-0.91389 0.52382,-0.91153 0.59404,-1.92162 0.21059,-3.03032 -0.3924,-1.11385 -1.20231,-2.02342 -2.42971,-2.72875 -1.15522,-0.6638 -2.26114,-0.89111 -3.31774,-0.68193 -1.05661,0.20925 -1.84163,0.76052 -2.35505,1.654 -0.21792,0.37907 -0.39725,0.90022 -0.53828,1.56349 l -2.0067,-1.45925 0.20592,-0.29579 c 0.56529,-0.98373 0.72191,-1.95619 0.46988,-2.91736 -0.25201,-0.96116 -0.88343,-1.73219 -1.89425,-2.31305 -0.92957,-0.53415 -1.82195,-0.70479 -2.67713,-0.51191 -0.86417,0.1877 -1.50889,0.65161 -1.93417,1.39165 -0.4408,0.76715 -0.51638,1.58809 -0.22671,2.46283 0.28584,0.86058 0.98745,1.70793 2.10479,2.54207 l -1.57673,1.74112 c -1.5515,-1.2277 -2.50633,-2.5327 -2.86452,-3.91504 -0.35815,-1.3823 -0.17682,-2.70072 0.54405,-3.9552 0.75719,-1.31766 1.88762,-2.15673 3.39129,-2.51721 1.5037,-0.36044 2.9956,-0.11551 4.47571,0.73509 0.90253,0.51864 1.58715,1.17616 2.05388,1.97255 0.47194,0.78745 0.70421,1.64722 0.69677,2.57937 0.55391,-0.5461 1.16032,-0.91195 1.81921,-1.09757 0.6589,-0.18571 1.41103,-0.2097 2.25634,-0.072 0.84533,0.13772 1.69671,0.45275 2.55408,0.94543 1.82306,1.04758 3.00815,2.44288 3.55525,4.18588 0.53805,1.73781 0.37665,3.35579 -0.48426,4.85396 -0.79864,1.38985 -1.98084,2.27721 -3.54656,2.66204 -1.56571,0.38485 -3.24036,0.15483 -5.02389,-0.68993 m 2.72484,-15.2715 c -3.33024,-1.91365 -5.59604,-3.8099 -6.79739,-5.68876 -1.19615,-1.88786 -1.29116,-3.70721 -0.28509,-5.4581 0.89203,-1.5523 2.28968,-2.37589 4.19295,-2.47072 2.30103,-0.11839 5.29714,0.88299 8.9884,3.00409 3.31221,1.90332 5.5735,3.79697 6.78386,5.68099 1.20135,1.87883 1.29638,3.69823 0.28509,5.45811 -0.892,1.55231 -2.38135,2.38922 -4.46804,2.51071 -2.08149,0.1124 -4.98142,-0.89963 -8.69978,-3.03632 m 1.17467,-2.04417 c 3.22198,1.85145 5.55982,2.78666 7.01351,2.80565 1.44988,0.004 2.45226,-0.47566 3.0072,-1.44135 0.52379,-0.91153 0.40697,-1.99308 -0.35047,-3.2447 -0.75743,-1.25157 -2.73359,-2.79532 -5.92846,-4.63122 -3.23098,-1.8566 -5.57143,-2.7873 -7.02131,-2.7921 -1.44467,-0.0133 -2.44966,0.47117 -3.01494,1.45489 -0.5186,0.90251 -0.3992,1.97956 0.35821,3.23115 0.76263,1.24258 2.74137,2.7818 5.93626,4.61768"
       style="font-style:normal;font-variant:normal;font-weight:bold;font-stretch:normal;font-size:28px;font-family:'Arial Narrow';-inkscape-font-specification:'Arial Narrow Bold';display:inline;fill:#ffffff;fill-opacity:1;stroke:none;stroke-width:1px;stroke-linecap:butt;stroke-linejoin:miter;stroke-opacity:1" /><path
       inkscape:connector-curvature="0"
       id="text5710"
       d="m 145.90986,132.35495 1.81084,-1.48361 c 1.91838,2.35287 3.71941,3.04093 5.40312,2.06425 0.9094,-0.5275 1.47527,-1.36717 1.6976,-2.51901 0.21703,-1.16081 -0.0295,-2.35347 -0.7398,-3.57801 -0.66853,-1.15248 -1.51262,-1.9023 -2.53227,-2.24945 -1.01964,-0.34713 -1.97518,-0.26216 -2.86654,0.25488 -0.37818,0.21947 -0.79415,0.58101 -1.24791,1.0849 l -1.00824,-2.2671 0.32629,-0.15328 c 0.98141,-0.56926 1.6033,-1.33312 1.86562,-2.29156 0.26232,-0.9584 0.10107,-1.94182 -0.48396,-2.95026 -0.53795,-0.92739 -1.22545,-1.52136 -2.0625,-1.7819 -0.84225,-0.26952 -1.63254,-0.19015 -2.37087,0.23813 -0.76532,0.44396 -1.24124,1.11711 -1.42775,2.01951 -0.18282,0.88821 0.002,1.97283 0.55178,3.2539 l -2.23605,0.71945 c -0.7298,-1.83894 -0.90422,-3.44653 -0.52324,-4.82277 0.38099,-1.37619 1.19724,-2.42729 2.44877,-3.15329 1.31457,-0.76252 2.71307,-0.92395 4.19555,-0.4843 1.48246,0.43969 2.65198,1.39785 3.50853,2.87447 0.52228,0.9004 0.78643,1.81213 0.79242,2.73521 0.0156,0.91791 -0.21369,1.77864 -0.68624,2.58219 0.75275,-0.19593 1.46083,-0.2097 2.12428,-0.0409 0.6634,0.1686 1.32676,0.524 1.99004,1.06581 0.66329,0.54185 1.243,1.24044 1.73918,2.09579 1.05503,1.81878 1.3837,3.61969 0.98599,5.4027 -0.40293,1.77401 -1.35169,3.09454 -2.84633,3.96153 -1.38661,0.80433 -2.85407,0.9817 -4.40246,0.53212 -1.54837,-0.44957 -2.88367,-1.48605 -4.00585,-3.10944 m 12.6414,-7.33296 1.81082,-1.48364 c 1.91838,2.35286 3.71943,3.04094 5.40315,2.06426 0.90939,-0.52751 1.47524,-1.36717 1.69759,-2.51901 0.21703,-1.16081 -0.0295,-2.35347 -0.73979,-3.57801 -0.66856,-1.15248 -1.51265,-1.9023 -2.5323,-2.24945 -1.01964,-0.34713 -1.97515,-0.26217 -2.86653,0.25487 -0.37817,0.21947 -0.79414,0.58102 -1.24791,1.08491 l -1.00823,-2.26711 0.32629,-0.15327 c 0.98142,-0.56926 1.60331,-1.33312 1.86563,-2.29157 0.26232,-0.9584 0.10107,-1.94181 -0.48397,-2.95026 -0.53797,-0.92736 -1.22545,-1.52135 -2.0625,-1.7819 -0.84224,-0.26951 -1.63253,-0.19014 -2.37087,0.23811 -0.76532,0.44398 -1.24124,1.11716 -1.42775,2.01954 -0.18281,0.88821 0.002,1.97282 0.55177,3.2539 l -2.23604,0.71945 c -0.7298,-1.83895 -0.90422,-3.44654 -0.52323,-4.82277 0.38098,-1.37617 1.19724,-2.42729 2.44877,-3.15329 1.31454,-0.76253 2.71306,-0.92395 4.19552,-0.4843 1.48246,0.43969 2.65198,1.39785 3.50853,2.87447 0.52231,0.9004 0.78645,1.81213 0.79245,2.73521 0.0155,0.9179 -0.2137,1.77863 -0.68624,2.58216 0.75272,-0.19592 1.4608,-0.20947 2.12425,-0.0409 0.66343,0.16882 1.32679,0.52397 1.99006,1.0658 0.66327,0.54183 1.243,1.24045 1.73918,2.09578 1.05501,1.81879 1.38368,3.61971 0.98599,5.40271 -0.40293,1.77402 -1.35171,3.09454 -2.84634,3.96154 -1.38659,0.80432 -2.85408,0.9817 -4.40245,0.53212 -1.54839,-0.44958 -2.88367,-1.48606 -4.00585,-3.10944"
       style="font-style:normal;font-variant:normal;font-weight:bold;font-stretch:normal;font-size:28px;font-family:'Arial Narrow';-inkscape-font-specification:'Arial Narrow Bold';display:inline;fill:#ffffff;fill-opacity:1;stroke:none;stroke-width:1px;stroke-linecap:butt;stroke-linejoin:miter;stroke-opacity:1" /></g></svg>