<?xml version="1.0" encoding="UTF-8" standalone="no"?>
<svg
   xmlns:dc="http://purl.org/dc/elements/1.1/"
   xmlns:cc="http://creativecommons.org/ns#"
   xmlns:rdf="http://www.w3.org/1999/02/22-rdf-syntax-ns#"
   xmlns:svg="http://www.w3.org/2000/svg"
   xmlns="http://www.w3.org/2000/svg"
   xmlns:xlink="http://www.w3.org/1999/xlink"
   xml:space="preserve"
   enable-background="new 0 0 400.667 400.666"
   viewBox="0 0 400.667 400.666"
   height="400.66599"
   width="400.66699"
   y="0px"
   x="0px"
   id="Layer_2"
   version="1.1"><metadata
     id="metadata111"><rdf:RDF><cc:Work
         rdf:about=""><dc:format>image/svg+xml</dc:format><dc:type
           rdf:resource="http://purl.org/dc/dcmitype/StillImage" /><dc:title></dc:title></cc:Work></rdf:RDF></metadata><defs
     id="defs109"><linearGradient
       y2="169.4077"
       x2="163.70171"
       y1="142.3994"
       x1="148.1084"
       gradientUnits="userSpaceOnUse"
       id="SVGID_18_-1"><stop
         id="stop11209"
         style="stop-color:#404040"
         offset="0" /><stop
         id="stop11211"
         style="stop-color:#000000"
         offset="1" /></linearGradient><linearGradient
       y2="169.4077"
       x2="163.70171"
       y1="142.3994"
       x1="148.1084"
       gradientUnits="userSpaceOnUse"
       id="linearGradient8985"><stop
         id="stop8987"
         style="stop-color:#2d2d2d;stop-opacity:1"
         offset="0" /><stop
         id="stop8989"
         style="stop-color:#000000"
         offset="1" /></linearGradient><radialGradient
       xlink:href="#linearGradient5132"
       id="radialGradient5742-9-3"
       cx="129.2859"
       cy="92.274101"
       fx="129.2859"
       fy="92.274101"
       r="72.725906"
       gradientUnits="userSpaceOnUse"
       gradientTransform="matrix(1.6514344,0,0,1.6514344,-84.144237,-60.123606)" /><linearGradient
       id="linearGradient5132"><stop
         id="stop5134"
         offset="0"
         style="stop-color:#969696;stop-opacity:1" /><stop
         id="stop5136"
         offset="1"
         style="stop-color:#000000;stop-opacity:1" /></linearGradient></defs><g
     transform="matrix(2.2213481,0,0,2.2213481,-86.85814,-4.9720701)"
     style="display:inline"
     id="airspeedIndicatorBg"><path
       id="path4405-3-1-1-0"
       d="m 129.36205,20.035743 c -39.888259,7.1e-4 -72.223736,32.336308 -72.224456,72.224568 -3.6e-4,39.889019 32.335597,72.225879 72.224616,72.226599 39.88977,3.6e-4 72.22692,-32.3368 72.22655,-72.226558 -9e-4,-39.889012 -32.3377,-72.224969 -72.22671,-72.224609 z m 1.6e-4,7.82812 c 35.56579,-6.75e-4 64.39802,28.830699 64.39843,64.396489 4.5e-4,35.566548 -28.83187,64.399098 -64.39843,64.398438 -35.565789,-4.1e-4 -64.397156,-28.83265 -64.396486,-64.398438 4.1e-4,-35.56503 28.831467,-64.396079 64.396486,-64.396489 z"
       style="display:inline;opacity:1;fill:url(#radialGradient5742-9-3);fill-opacity:1;stroke:#000000;stroke-width:0.50000012;stroke-miterlimit:4;stroke-dasharray:none;stroke-dashoffset:0;stroke-opacity:1" /></g><g
     transform="matrix(2.2213481,0,0,2.2213481,-86.85814,-4.9720701)"
     style="display:inline"
     id="airspeedIndicatorHand" /><g
     transform="matrix(2.2213481,0,0,2.2213481,-86.85814,-4.9720701)"
     style="display:inline"
     id="airspeedIndicatorFg" /></svg>