<?xml version="1.0" encoding="UTF-8" standalone="no"?>
<svg
   xmlns:dc="http://purl.org/dc/elements/1.1/"
   xmlns:cc="http://creativecommons.org/ns#"
   xmlns:rdf="http://www.w3.org/1999/02/22-rdf-syntax-ns#"
   xmlns:svg="http://www.w3.org/2000/svg"
   xmlns="http://www.w3.org/2000/svg"
   xmlns:sodipodi="http://sodipodi.sourceforge.net/DTD/sodipodi-0.dtd"
   xmlns:inkscape="http://www.inkscape.org/namespaces/inkscape"
   version="1.1"
   id="Layer_2"
   x="0px"
   y="0px"
   width="400.667px"
   height="400.666px"
   viewBox="0 0 400.667 400.666"
   enable-background="new 0 0 400.667 400.666"
   xml:space="preserve"
   inkscape:version="0.91 r13725"
   sodipodi:docname="vertical_needle.svg"><metadata
     id="metadata24"><rdf:RDF><cc:Work
         rdf:about=""><dc:format>image/svg+xml</dc:format><dc:type
           rdf:resource="http://purl.org/dc/dcmitype/StillImage" /></cc:Work></rdf:RDF></metadata><defs
     id="defs22"><filter
       inkscape:collect="always"
       style="color-interpolation-filters:sRGB"
       id="filter9399"
       x="-0.06795878"
       width="1.1359175"
       y="-0.51233059"
       height="2.0246613"><feGaussianBlur
         inkscape:collect="always"
         stdDeviation="4.0359375"
         id="feGaussianBlur9401" /></filter></defs><sodipodi:namedview
     pagecolor="#ffffff"
     bordercolor="#666666"
     borderopacity="1"
     objecttolerance="10"
     gridtolerance="10"
     guidetolerance="10"
     inkscape:pageopacity="0"
     inkscape:pageshadow="2"
     inkscape:window-width="1920"
     inkscape:window-height="1142"
     id="namedview20"
     showgrid="false"
     inkscape:zoom="2.8284271"
     inkscape:cx="129.06746"
     inkscape:cy="199.02047"
     inkscape:window-x="0"
     inkscape:window-y="0"
     inkscape:window-maximized="1"
     inkscape:current-layer="Layer_2"
     showguides="true"
     inkscape:guide-bbox="true"><sodipodi:guide
       position="65.895182,200.66601"
       orientation="0,1"
       id="guide4188"
       inkscape:label=""
       inkscape:color="rgb(0,0,255)" /><sodipodi:guide
       position="200.5,192.50001"
       orientation="1,0"
       id="guide4191"
       inkscape:label=""
       inkscape:color="rgb(0,0,255)" /></sodipodi:namedview><filter
     filterUnits="objectBoundingBox"
     id="AI_Shadow_1"><feGaussianBlur
       stdDeviation="5"
       result="blur"
       in="SourceAlpha"
       id="feGaussianBlur4" /><feOffset
       dy="0"
       dx="0"
       result="offsetBlurredAlpha"
       in="blur"
       id="feOffset6" /><feMerge
       id="feMerge8"><feMergeNode
         in="offsetBlurredAlpha"
         id="feMergeNode10" /><feMergeNode
         in="SourceGraphic"
         id="feMergeNode12" /></feMerge></filter><g
     transform="matrix(2.3449762,0,0,2.3449762,-828.3117,-408.84674)"
     style="display:inline"
     id="g15662"
     inkscape:transform-center-x="34.007551"
     inkscape:transform-center-y="-0.00014079509"><path
       sodipodi:nodetypes="cccsscccccccsccccccsscsscsscs"
       transform="matrix(0.5000001,0,0,0.5000001,44.108109,-45.650059)"
       id="path7796-17"
       d="m 789.07812,601.12891 c -2.39528,0.002 -4.70032,0.91409 -6.44921,2.55078 l -10.07813,0 c 0.3831,1.15039 0.66983,2.30078 0.86133,3.45117 0.1915,1.15039 0.28715,2.30078 0.28711,3.45117 -9e-5,2.30078 -0.38258,4.60157 -1.14844,6.90235 l 10.08594,0 c 1.74692,1.63485 4.04882,2.5464 6.4414,2.55078 3.54683,-0.004 6.79278,-1.99375 8.40626,-5.15235 l 0.18359,-0.0586 21.17187,0 c 1.52272,2.67056 4.35942,4.32071 7.4336,4.32422 4.73065,-10e-4 8.56533,-3.83576 8.5664,-8.56641 10e-4,-4.73217 -3.83423,-8.56924 -8.5664,-8.57031 -3.07638,0.003 -5.91509,1.65484 -7.4375,4.32812 l -21.16797,0 -0.17188,-0.0547 c -1.61432,-3.16386 -4.86606,-5.15565 -8.41797,-5.15625 z m -15.3789,9.45312 c 4e-5,-1.15039 -0.0956,-2.30078 -0.28711,-3.45117 -0.1915,-1.15039 -0.48018,-2.30078 -0.86328,-3.45117 l -61.69226,0 c -1.83242,0 -6.15688,0.3022 -10.07422,1.3125 -3.91732,1.01032 -7.97594,2.6498 -10.4961,5.58984 2.52016,2.94004 6.57878,4.57953 10.4961,5.58985 3.91732,1.01029 8.2418,1.3125 10.07422,1.3125 l 61.69226,0 c 0.76586,-2.30078 1.1503,-4.60157 1.15039,-6.90235 z"
       style="fill:#000000;fill-opacity:1;fill-rule:evenodd;stroke:none;stroke-width:0.99999982;stroke-linecap:butt;stroke-linejoin:miter;stroke-miterlimit:4;stroke-dasharray:none;stroke-opacity:1;filter:url(#filter9399)"
       inkscape:connector-curvature="0" /><g
       inkscape:transform-center-y="-0.0016480438"
       transform="translate(-0.56716912,-1.0449234e-6)"
       style="stroke:#333333;stroke-width:0.5;stroke-miterlimit:4;stroke-dasharray:none;stroke-opacity:1"
       inkscape:transform-center-x="25.753382"
       id="g5058"><path
         inkscape:connector-curvature="0"
         style="fill:#4d4d4d;fill-opacity:1;fill-rule:evenodd;stroke:#333333;stroke-width:0.5;stroke-linecap:butt;stroke-linejoin:miter;stroke-miterlimit:4;stroke-dasharray:none;stroke-opacity:1"
         d="m 439.21483,254.91438 a 4.7261143,4.7261143 0 0 0 -3.22461,1.27539 l -5.03906,0 c 0.7662,2.30078 0.76586,4.60156 0,6.90234 l 5.04297,0 a 4.7261143,4.7261143 0 0 0 3.2207,1.27539 4.7261143,4.7261143 0 0 0 4.20313,-2.57617 l 0.0918,-0.0293 10.58593,0 a 4.2841725,4.2841725 0 0 0 3.7168,2.16211 4.2841725,4.2841725 0 0 0 4.2832,-4.28321 4.2841725,4.2841725 0 0 0 -4.2832,-4.28515 4.2841725,4.2841725 0 0 0 -3.71875,2.16406 l -10.58398,0 -0.0859,-0.0274 a 4.7261143,4.7261143 0 0 0 -4.20899,-2.57812 z"
         id="path7796" /><path
         inkscape:connector-curvature="0"
         style="fill:#ffffff;fill-rule:evenodd;stroke:#333333;stroke-width:0.5;stroke-linecap:butt;stroke-linejoin:miter;stroke-miterlimit:4;stroke-dasharray:none;stroke-opacity:1"
         d="m 400.69205,256.18954 c -0.91621,0 -3.07844,0.1511 -5.03711,0.65625 -1.95866,0.50516 -3.98796,1.3249 -5.24804,2.79492 1.26008,1.47002 3.28938,2.28976 5.24804,2.79492 1.95866,0.50515 4.1209,0.65625 5.03711,0.65625 l 30.25825,0 c 0.76586,-2.30078 0.7662,-4.60156 0,-6.90234 z"
         id="path7796-1"
         sodipodi:nodetypes="sscssccs" /></g></g></svg>